<svg width="285" height="54" viewBox="0 0 285 54" fill="none" xmlns="http://www.w3.org/2000/svg">
<path d="M282.817 26.6304C282.817 29.6431 282.486 32.325 281.824 34.6758C281.162 37.0039 280.227 39.0352 279.017 40.7698C277.83 42.5044 276.392 43.9766 274.703 45.1862C273.037 46.3959 271.177 47.3659 269.123 48.0963C267.069 48.8267 264.855 49.363 262.481 49.7054C260.107 50.0249 257.631 50.1847 255.052 50.1847H225.198V3.14453H254.983C257.563 3.14453 260.039 3.31571 262.413 3.65807C264.786 3.97761 267 4.50256 269.054 5.23292C271.131 5.96329 273.014 6.93331 274.703 8.14298C276.392 9.32982 277.83 10.802 279.017 12.5594C280.227 14.294 281.162 16.3254 281.824 18.6534C282.486 20.9814 282.817 23.6404 282.817 26.6304ZM270.013 26.6304C270.013 24.3708 269.716 22.4079 269.123 20.7418C268.552 19.0756 267.616 17.7062 266.315 16.6335C265.037 15.5379 263.36 14.7277 261.283 14.2027C259.206 13.655 256.672 13.3811 253.682 13.3811H237.9V39.9482H253.682C256.672 39.9482 259.206 39.6857 261.283 39.1607C263.36 38.613 265.037 37.7913 266.315 36.6957C267.616 35.5774 268.552 34.1851 269.123 32.519C269.716 30.8528 270.013 28.8899 270.013 26.6304Z" fill="#EEEFF3"/>
<path d="M198.902 41.2834H172.677L168.26 50.1847H154.087L178.702 3.14453H192.876L217.492 50.1847H203.318L198.902 41.2834ZM177.23 32.1081H194.417L185.858 14.7847L177.23 32.1081Z" fill="#EEEFF3"/>
<path d="M150.22 26.6998C150.22 30.7397 149.478 34.3116 147.994 37.4157C146.511 40.4969 144.388 43.076 141.627 45.153C138.865 47.23 135.51 48.8048 131.561 49.8776C127.636 50.9275 123.219 51.4524 118.312 51.4524C113.405 51.4524 108.966 50.9275 104.994 49.8776C101.046 48.8048 97.6791 47.23 94.8946 45.153C92.11 43.076 89.9646 40.4969 88.4582 37.4157C86.9518 34.3116 86.1986 30.7397 86.1986 26.6998C86.1986 22.66 86.9518 19.0995 88.4582 16.0182C89.9646 12.9142 92.11 10.3237 94.8946 8.24668C97.6791 6.1697 101.046 4.60626 104.994 3.55635C108.966 2.48363 113.405 1.94727 118.312 1.94727C123.219 1.94727 127.636 2.48363 131.561 3.55635C135.51 4.60626 138.865 6.1697 141.627 8.24668C144.388 10.3237 146.511 12.9142 147.994 16.0182C149.478 19.0995 150.22 22.66 150.22 26.6998ZM137.381 26.6998C137.381 24.9424 137.096 23.1964 136.525 21.4617C135.978 19.7043 134.985 18.1294 133.547 16.7372C132.132 15.3449 130.192 14.2151 127.727 13.3478C125.262 12.4805 122.124 12.0469 118.312 12.0469C115.756 12.0469 113.507 12.2523 111.567 12.6631C109.627 13.0511 107.95 13.5989 106.535 14.3064C105.12 15.014 103.933 15.8471 102.974 16.8057C102.016 17.7414 101.251 18.7571 100.68 19.8527C100.11 20.9254 99.699 22.0552 99.4479 23.242C99.2197 24.406 99.1056 25.5586 99.1056 26.6998C99.1056 27.8639 99.2197 29.0393 99.4479 30.2261C99.699 31.413 100.11 32.5542 100.68 33.6497C101.251 34.7225 102.016 35.7267 102.974 36.6625C103.933 37.5983 105.12 38.4199 106.535 39.1275C107.95 39.8122 109.627 40.36 111.567 40.7708C113.507 41.1588 115.756 41.3528 118.312 41.3528C122.124 41.3528 125.262 40.9192 127.727 40.0519C130.192 39.1845 132.132 38.0548 133.547 36.6625C134.985 35.2702 135.978 33.7068 136.525 31.9722C137.096 30.2147 137.381 28.4573 137.381 26.6998Z" fill="#EEEFF3"/>
<path d="M61.9942 50.1847V17.147L44.5339 50.1847H32.3459L14.8855 17.147V50.1847H2.18401V3.14453H19.4389L38.4399 38.7499L57.4408 3.14453H74.6272V50.1847H61.9942Z" fill="#EEEFF3"/>
<path fill-rule="evenodd" clip-rule="evenodd" d="M283.698 35.204L283.697 35.2088C282.985 37.7128 281.965 39.9449 280.618 41.879C279.306 43.7935 277.712 45.4259 275.841 46.7668C274.017 48.0902 271.992 49.1435 269.775 49.9318C267.588 50.7094 265.247 51.2745 262.758 51.6335L262.749 51.6348L262.74 51.636C260.274 51.968 257.711 52.1327 255.051 52.1327H223.25V1.19727H254.983C257.645 1.19727 260.211 1.37373 262.681 1.72945C265.17 2.06513 267.512 2.61855 269.701 3.39648C269.703 3.39705 269.705 3.39763 269.706 3.3982L269.054 5.2333L269.7 3.39595C269.7 3.39613 269.701 3.3963 269.701 3.39648C271.938 4.18314 273.984 5.23403 275.829 6.55428C275.827 6.55279 275.825 6.5513 275.822 6.54981L274.703 8.14336L275.837 6.55994C275.834 6.55805 275.831 6.55617 275.829 6.55428C277.71 7.87748 279.309 9.51612 280.622 11.4568C280.619 11.4531 280.617 11.4494 280.614 11.4457L279.016 12.5598L280.63 11.4698C280.628 11.4654 280.625 11.4611 280.622 11.4568C281.967 13.3896 282.986 15.6196 283.697 18.1212C284.418 20.6575 284.764 23.5012 284.764 26.6308C284.764 29.7821 284.418 32.6469 283.698 35.204ZM281.824 34.6762C281.162 37.0042 280.226 39.0356 279.016 40.7702C277.83 42.5048 276.392 43.977 274.703 45.1866C273.037 46.3963 271.176 47.3663 269.122 48.0967C267.068 48.8271 264.854 49.3634 262.48 49.7058C260.107 50.0253 257.63 50.1851 255.051 50.1851H225.198V3.14491H254.983C257.562 3.14491 260.038 3.31609 262.412 3.65845M267.283 21.3844L267.28 21.3732C266.82 20.032 266.086 18.9697 265.076 18.1366L265.061 18.1247L265.047 18.1126C264.051 17.2587 262.668 16.5622 260.805 16.0914L260.795 16.0889L260.785 16.0864C258.92 15.5944 256.564 15.3291 253.682 15.3291H239.847V38.0009H253.682C256.564 38.0009 258.924 37.7472 260.795 37.2753C262.658 36.7829 264.045 36.0759 265.045 35.2192C266.076 34.333 266.818 33.2357 267.28 31.8883L267.283 31.8771L267.287 31.8659C267.789 30.4586 268.065 28.7265 268.065 26.6308C268.065 24.535 267.789 22.803 267.287 21.3956L267.283 21.3844ZM266.315 36.6961C265.037 37.7917 263.359 38.6133 261.282 39.1611C259.205 39.6861 256.672 39.9485 253.682 39.9485H237.899V13.3815H253.682C256.672 13.3815 259.205 13.6553 261.282 14.2031C263.359 14.7281 265.037 15.5383 266.315 16.6339C267.616 17.7066 268.552 19.076 269.122 20.7422C269.716 22.4083 270.012 24.3712 270.012 26.6308C270.012 28.8903 269.716 30.8532 269.122 32.5193C268.552 34.1855 267.616 35.5777 266.315 36.6961Z" fill="#EEEFF3"/>
<path fill-rule="evenodd" clip-rule="evenodd" d="M203.324 50.1851L198.907 41.2837H172.683L168.266 50.1851H154.093L178.708 3.14491H192.882L217.498 50.1851H203.324ZM173.891 43.2314L169.474 52.1327H150.875L177.529 1.19727H194.061L220.715 52.1327H202.116L197.7 43.2314H173.891ZM194.423 32.1085L185.864 14.7851L177.236 32.1085H194.423ZM180.382 30.1609H191.288L185.857 19.168L180.382 30.1609Z" fill="#EEEFF3"/>
<path fill-rule="evenodd" clip-rule="evenodd" d="M149.751 38.2559L149.749 38.261C148.129 41.6258 145.804 44.4479 142.797 46.71C139.805 48.9601 136.215 50.6316 132.071 51.7575L132.064 51.7595C127.944 52.8612 123.354 53.4004 118.311 53.4004C113.268 53.4004 108.657 52.8611 104.496 51.7609L104.483 51.7575C100.34 50.6318 96.7415 48.9613 93.7294 46.7146C90.6998 44.4547 88.3522 41.6349 86.7078 38.2715L86.7054 38.2664C85.0502 34.8557 84.2504 30.9845 84.2504 26.7002C84.2504 22.4177 85.0495 18.5567 86.7062 15.1665C88.3497 11.7807 90.6972 8.94761 93.7294 6.68587C96.7437 4.43753 100.344 2.77808 104.489 1.67545C108.654 0.551066 113.266 0 118.311 0C123.355 0 127.946 0.550738 132.068 1.67628C136.212 2.77908 139.803 4.43924 142.797 6.69049C145.807 8.95429 148.131 11.7894 149.75 15.1762C151.381 18.5641 152.167 22.4215 152.167 26.7002C152.167 30.9804 151.38 34.8477 149.751 38.2559ZM147.994 16.0186C146.51 12.9146 144.388 10.324 141.626 8.24706C138.864 6.17008 135.509 4.60663 131.561 3.55673C127.635 2.48401 123.218 1.94764 118.311 1.94764C113.404 1.94764 108.965 2.48401 104.994 3.55673C101.045 4.60663 97.6785 6.17008 94.8939 8.24706C92.1094 10.324 89.964 12.9146 88.4576 16.0186C86.9512 19.0998 86.198 22.6604 86.198 26.7002C86.198 30.7401 86.9512 34.312 88.4576 37.4161C89.964 40.4973 92.1094 43.0764 94.8939 45.1534C97.6785 47.2304 101.045 48.8052 104.994 49.8779C108.965 50.9278 113.404 51.4528 118.311 51.4528C123.218 51.4528 127.635 50.9278 131.561 49.8779C135.509 48.8052 138.864 47.2304 141.626 45.1534C144.388 43.0764 146.51 40.4973 147.994 37.4161C149.477 34.312 150.219 30.7401 150.219 26.7002C150.219 22.6604 149.477 19.0998 147.994 16.0186ZM134.67 22.0562L134.665 22.0417C134.223 20.6221 133.416 19.3226 132.191 18.1368L132.186 18.1314L132.18 18.1259C131.023 16.9873 129.356 15.9865 127.08 15.1854C124.894 14.4165 121.994 13.9949 118.311 13.9949C115.854 13.9949 113.746 14.1928 111.97 14.5689L111.96 14.5712L111.949 14.5733C110.138 14.9355 108.632 15.4352 107.405 16.0488C106.147 16.678 105.139 17.395 104.351 18.1832L104.343 18.1915L104.334 18.1997C103.511 19.0035 102.875 19.8551 102.407 20.7527L102.403 20.7602L102.399 20.7677C101.916 21.6755 101.569 22.6285 101.356 23.6315C101.153 24.672 101.053 25.6943 101.053 26.7002C101.053 27.7303 101.153 28.7766 101.356 29.8406C101.57 30.8425 101.918 31.8087 102.403 32.7427C102.87 33.6184 103.507 34.4616 104.334 35.2692C105.123 36.0391 106.132 36.7482 107.394 37.38C108.631 37.9776 110.145 38.4786 111.959 38.8635C113.741 39.2189 115.853 39.4056 118.311 39.4056C121.994 39.4056 124.894 38.984 127.08 38.215C129.356 37.4139 131.023 36.4132 132.18 35.2745L132.186 35.2691L132.191 35.2637C133.421 34.0733 134.227 32.7821 134.668 31.3861L134.67 31.3786L134.672 31.3711C135.183 29.7979 135.433 28.2431 135.433 26.7002C135.433 25.1575 135.183 23.6167 134.675 22.0707L134.67 22.0562ZM111.567 40.7712C109.627 40.3604 107.949 39.8126 106.534 39.1279C105.119 38.4203 103.932 37.5987 102.974 36.6629C102.015 35.7271 101.25 34.7228 100.68 33.6501C100.109 32.5546 99.6984 31.4134 99.4473 30.2265C99.2191 29.0397 99.105 27.8642 99.105 26.7002C99.105 25.559 99.2191 24.4064 99.4473 23.2424C99.6984 22.0555 100.109 20.9258 100.68 19.853C101.25 18.7575 102.015 17.7418 102.974 16.806C103.932 15.8474 105.119 15.0144 106.534 14.3068C107.949 13.5993 109.627 13.0515 111.567 12.6635C113.507 12.2527 115.755 12.0472 118.311 12.0472C122.123 12.0472 125.261 12.4809 127.726 13.3482C130.191 14.2155 132.131 15.3453 133.546 16.7376C134.984 18.1298 135.977 19.7047 136.525 21.4621C137.095 23.1967 137.381 24.9428 137.381 26.7002C137.381 28.4577 137.095 30.2151 136.525 31.9726C135.977 33.7072 134.984 35.2706 133.546 36.6629C132.131 38.0551 130.191 39.1849 127.726 40.0522C125.261 40.9195 122.123 41.3532 118.311 41.3532C115.755 41.3532 113.507 41.1592 111.567 40.7712Z" fill="#EEEFF3"/>
<path fill-rule="evenodd" clip-rule="evenodd" d="M60.0459 52.1327V25.0009L45.7068 52.1327H31.1716L16.8326 25.0009V52.1327H0.235733V1.19727H20.6065L38.4392 34.6135L56.2719 1.19727H76.5742V52.1327H60.0459ZM38.4392 38.7503L19.4383 3.14491H2.18338V50.1851H14.8849V17.1474L32.3452 50.1851H44.5332L61.9935 17.1474V50.1851H74.6266V3.14491H57.4402L38.4392 38.7503Z" fill="#EEEFF3"/>
</svg>
