<svg width="26" height="32" viewBox="0 0 26 32" fill="none" xmlns="http://www.w3.org/2000/svg">
    <path d="M19.9562 2.04688L2.5918 18.9316C2.64433 19.0114 2.69051 19.093 2.74485 19.1728L4.10245 21.156L5.20194 20.087L6.06142 20.9223L4.78986 22.1593L5.98444 23.9041L6.55502 24.7366L24.3841 7.40043C23.4621 5.25675 21.9433 3.37588 19.9562 2.04688Z" fill="url(#paint0_linear_6883_77500)"/>
    <path d="M13.9599 0.0319107C13.6429 0.0112624 13.3223 0 12.9989 0C12.6756 0 12.3559 0.0103238 12.038 0.0319107C2.58552 0.654177 -2.45001 11.2045 2.59096 18.9327L19.9554 2.04794C18.2672 0.916973 16.244 0.18208 13.9599 0.0319107Z" fill="#4D298B"/>
    <path d="M6.55518 24.7385L10.4939 30.4909C11.8724 32.5042 14.1275 32.5042 15.505 30.4909L20.0144 23.906L23.254 19.1747C25.7971 15.4599 25.9556 11.0543 24.3842 7.40234L6.55518 24.7385Z" fill="#4D298B"/>
    <path d="M18.4527 8.87395L17.5933 8.03863L20.1844 5.51953L21.0439 6.35485L18.4527 8.87395Z" fill="#4D298B"/>
    <path d="M13.4591 13.7294L12.5996 12.8941L15.1907 10.375L16.0502 11.2103L13.4591 13.7294Z" fill="#4D298B"/>
    <path d="M8.46495 18.5849L7.60547 17.7496L10.1966 15.2305L11.0552 16.0658L8.46495 18.5849Z" fill="#4D298B"/>
    <path d="M5.2021 20.0898L4.10352 21.1589L4.79002 22.1622L6.06158 20.9252L5.2021 20.0898Z" fill="#4D298B"/>
    <defs>
        <linearGradient id="paint0_linear_6883_77500" x1="3.16902" y1="23.859" x2="28.0245" y2="-0.125517" gradientUnits="userSpaceOnUse">
            <stop stop-color="#121C3C"/>
            <stop offset="1" stop-color="#4D298B"/>
        </linearGradient>
    </defs>
</svg>
