<svg width="338" height="90" viewBox="0 0 338 90" fill="none" xmlns="http://www.w3.org/2000/svg">
<path d="M304.924 32.1801V32.6801H305.424H336.517H337.017V32.1801V25.696V25.196H336.517H314.356V20.2651H335.057H335.557V19.7651V13.281V12.781H335.057H314.356V8.75753H336.207H336.707V8.25753V1.77344V1.27344H336.207H305.424H304.924V1.77344V32.1801Z" fill="#EEEFF3" stroke="#EEEFF3"/>
<path d="M294.893 10.7884L295.612 11.1386V10.3389V3.30152V2.93761L295.266 2.82574C294.294 2.51185 293.235 2.21371 292.09 1.93107C290.957 1.64781 289.78 1.40206 288.56 1.19366C287.337 0.969965 286.091 0.798528 284.824 0.679269C283.57 0.559838 282.345 0.5 281.148 0.5C280.057 0.5 278.909 0.544815 277.703 0.634146C276.487 0.724205 275.286 0.889339 274.1 1.12959C272.906 1.37147 271.762 1.71202 270.671 2.1517L270.671 2.15169L270.668 2.15261C269.575 2.59936 268.599 3.18703 267.745 3.917C266.894 4.64203 266.217 5.52409 265.716 6.5578C265.204 7.61387 264.958 8.85 264.958 10.2503C264.958 11.4522 265.192 12.5354 265.676 13.4867L265.676 13.4867L265.678 13.4897C266.151 14.4048 266.797 15.2143 267.609 15.9175L267.609 15.9175L267.613 15.9211C268.417 16.601 269.346 17.1914 270.398 17.6945L270.398 17.6945L270.404 17.697C271.441 18.1781 272.537 18.6058 273.691 18.9804L273.691 18.9805L273.698 18.9827C274.862 19.341 276.056 19.6543 277.279 19.9227C278.49 20.1886 279.665 20.4398 280.803 20.6763L280.803 20.6763L280.81 20.6777C281.955 20.898 283.034 21.1254 284.045 21.3598L284.045 21.3599L284.051 21.3613C285.053 21.5791 285.923 21.8241 286.664 22.0948L286.664 22.0949L286.672 22.0977C287.403 22.3509 287.949 22.643 288.33 22.9609L288.33 22.961L288.338 22.9672C288.684 23.2439 288.814 23.5291 288.814 23.8382C288.814 24.0253 288.748 24.2561 288.563 24.5388C288.416 24.7639 288.095 25.0309 287.51 25.3099C286.946 25.5642 286.133 25.7905 285.049 25.9785C283.994 26.1493 282.608 26.2372 280.882 26.2372C277.968 26.2372 275.235 25.9239 272.681 25.3C270.136 24.6747 267.877 23.8117 265.9 22.7149L265.157 22.303V23.1521V30.4108V30.757L265.481 30.8788C267.475 31.6285 269.76 32.2476 272.334 32.7385C274.937 33.247 277.757 33.5 280.794 33.5C281.955 33.5 283.175 33.4628 284.452 33.3885C285.757 33.3135 287.04 33.156 288.301 32.9158C289.582 32.6747 290.805 32.3352 291.969 31.8967L291.969 31.8967L291.974 31.8947C293.156 31.4341 294.2 30.8246 295.101 30.0637C296.027 29.2948 296.763 28.3537 297.309 27.246C297.866 26.1147 298.135 24.7813 298.135 23.2628C298.135 22.0607 297.9 20.9716 297.418 20.0074C296.946 19.0629 296.301 18.2303 295.488 17.5107C294.684 16.8002 293.755 16.1865 292.702 15.6676C291.662 15.1401 290.556 14.6813 289.384 14.2908C288.233 13.9021 287.038 13.5661 285.8 13.2824C284.587 12.9866 283.403 12.7202 282.248 12.4833C281.114 12.233 280.039 11.9973 279.022 11.7763C278.018 11.5433 277.143 11.3044 276.395 11.06C275.659 10.8051 275.108 10.5315 274.72 10.2487C274.369 9.97805 274.257 9.72219 274.257 9.4758C274.257 9.4022 274.268 9.30737 274.299 9.18821C274.326 9.12508 274.386 9.03265 274.515 8.91491C274.639 8.80097 274.839 8.67203 275.136 8.53679L275.136 8.53687L275.145 8.53267C275.435 8.39412 275.842 8.26423 276.381 8.15068C276.932 8.03776 277.612 7.94414 278.426 7.87148C279.248 7.79941 280.243 7.76279 281.414 7.76279C282.864 7.76279 284.276 7.87156 285.651 8.08863L285.651 8.08865L285.656 8.0894C287.041 8.29346 288.319 8.55524 289.493 8.87394L289.493 8.87398L289.498 8.87542C290.68 9.18178 291.732 9.50869 292.657 9.85544C293.594 10.2067 294.337 10.5177 294.893 10.7884Z" fill="#EEEFF3" stroke="#EEEFF3"/>
<path d="M248.847 32.1801V32.6801H249.347H257.557H258.057V32.1801V1.77344V1.27344H257.557H249.347H248.847V1.77344V32.1801Z" fill="#EEEFF3" stroke="#EEEFF3"/>
<path d="M230.979 32.6801H231.479V32.1801V8.89031H243.903H244.403V8.39031V1.77344V1.27344H243.903H209.867H209.367V1.77344V8.39031V8.89031H209.867H222.269V32.1801V32.6801H222.769H230.979Z" fill="#EEEFF3" stroke="#EEEFF3"/>
<path d="M180.279 32.6801H180.779V32.1801V21.4823H189.006L198.062 32.4976L198.212 32.6801H198.448H208.053H209.116L208.438 31.861L198.929 20.3872C199.616 20.1139 200.277 19.7924 200.913 19.4228C201.768 18.925 202.518 18.3164 203.159 17.5971C203.823 16.8533 204.341 15.9726 204.714 14.9621C205.109 13.9344 205.299 12.7509 205.299 11.4221C205.299 9.91237 205.071 8.53244 204.605 7.2888C204.148 6.01352 203.398 4.92517 202.361 4.02972C201.336 3.13084 200.013 2.45248 198.413 1.98013C196.819 1.50493 194.894 1.27344 192.65 1.27344H172.069H171.569V1.77344V32.1801V32.6801H172.069H180.279ZM195.786 10.0412L195.789 10.0486L195.792 10.0558C195.925 10.395 196.001 10.8308 196.001 11.3779C196.001 11.9249 195.925 12.3607 195.792 12.6999L195.789 12.7072L195.786 12.7145C195.677 13.0209 195.482 13.2764 195.181 13.4858C194.873 13.6861 194.428 13.8517 193.822 13.962L193.82 13.9624C193.226 14.0728 192.463 14.131 191.521 14.131H180.779V8.62475H191.521C192.463 8.62475 193.226 8.68293 193.82 8.79336L193.822 8.79373C194.428 8.90392 194.87 9.0764 195.176 9.28827L195.176 9.28841L195.187 9.29566C195.484 9.48964 195.677 9.73564 195.786 10.0412Z" fill="#EEEFF3" stroke="#EEEFF3"/>
<path d="M132.532 32.1801V32.6801H133.032H164.124H164.624V32.1801V25.696V25.196H164.124H141.963V20.2651H162.664H163.164V19.7651V13.281V12.781H162.664H141.963V8.75753H163.815H164.315V8.25753V1.77344V1.27344H163.815H133.032H132.532V1.77344V32.1801Z" fill="#EEEFF3" stroke="#EEEFF3"/>
<path d="M112.539 32.6801H112.846L112.985 32.4071L128.476 2.00041L128.846 1.27344H128.03H118.868H118.555L118.418 1.55612L107.825 23.5064L97.2107 1.55577L97.0742 1.27344H96.7606H87.5988H86.7855L87.1526 1.99912L102.533 32.4058L102.672 32.6801H102.979H112.539Z" fill="#EEEFF3" stroke="#EEEFF3"/>
<path d="M75.8838 13.3103L75.8838 13.3103C75.5436 12.3167 74.9904 11.5103 74.2241 10.8784L74.2167 10.8724L74.2168 10.8723C73.463 10.2262 72.4541 9.73161 71.1666 9.40619L71.1616 9.40493L71.1616 9.4049C69.8733 9.06514 68.2813 8.89031 66.3762 8.89031H56.6743V25.0632H66.3762C68.2814 25.0632 69.8744 24.8958 71.1642 24.5701C72.4517 24.2302 73.4615 23.7285 74.2163 23.0817L75.8838 13.3103ZM75.8838 13.3103L75.8858 13.316M75.8838 13.3103L75.8858 13.316M75.8858 13.316C76.2458 14.3266 76.4322 15.5361 76.4322 16.9546C76.4322 18.3732 76.2458 19.5827 75.8858 20.5932L75.8858 20.5932M75.8858 13.316L75.8858 20.5932M75.8858 20.5932L75.8838 20.599M75.8858 20.5932L75.8838 20.599M75.8838 20.599C75.543 21.5941 74.9879 22.4184 74.2163 23.0817L75.8838 20.599ZM85.048 22.2919L85.0484 22.2907C85.4911 20.7181 85.7089 18.9377 85.7089 16.9546C85.7089 14.9861 85.4911 13.2199 85.048 11.6616C84.6076 10.1123 83.9815 8.74831 83.1646 7.5762C82.3652 6.39317 81.3945 5.39882 80.2534 4.59662C79.1216 3.7863 77.8627 3.13852 76.4792 2.65195C75.1167 2.16756 73.6526 1.82088 72.0884 1.61017C70.5295 1.38544 68.9056 1.27344 67.2172 1.27344H47.9641H47.4641V1.77344V32.1801V32.6801H47.9641H67.2614C68.9492 32.6801 70.5723 32.5755 72.1303 32.3658L72.135 32.3651C73.6989 32.1396 75.1625 31.7855 76.5244 31.3013C77.894 30.8143 79.1388 30.1659 80.2564 29.3547C81.395 28.539 82.3646 27.5461 83.1639 26.3785C83.9811 25.2061 84.6074 23.8417 85.048 22.2919Z" fill="#EEEFF3" stroke="#EEEFF3"/>
<path d="M11.1618 32.6801H11.4719L11.6097 32.4023L14.3267 26.9263H30.6581L33.3751 32.4023L33.5129 32.6801H33.823H42.9848H43.8108L43.4278 31.9483L27.5163 1.54161L27.376 1.27344H27.0733H17.9115H17.6088L17.4685 1.54161L1.55699 31.9483L1.17403 32.6801H2H11.1618ZM17.7675 19.9954L22.5349 10.4228L27.2644 19.9954H17.7675Z" fill="#EEEFF3" stroke="#EEEFF3"/>
<path d="M245.919 89.5H246.419V89V64.4636H259.52H260.02V63.9636V57V56.5H259.52H223.701H223.201V57V63.9636V64.4636H223.701H236.779V89V89.5H237.279H245.919Z" fill="#EEEFF3" stroke="#EEEFF3"/>
<path d="M208.252 89.3503L208.399 89.5H208.609H217.971H218.471V89V57V56.5H217.971H209.377H208.877V57V77.8531L188.122 56.6502L187.975 56.5H187.764H178.379H177.879V57V89V89.5H178.379H187.019H187.519V89V68.2373L208.252 89.3503Z" fill="#EEEFF3" stroke="#EEEFF3"/>
<path d="M136.796 89V89.5H137.296H170.018H170.518V89V82.1761V81.6761H170.018H146.669V76.4345H168.48H168.98V75.9345V69.1106V68.6106H168.48H146.669V64.3239H169.691H170.191V63.8239V57V56.5H169.691H137.296H136.796V57V89Z" fill="#EEEFF3" stroke="#EEEFF3"/>
<path d="M118.187 89V89.5H118.687H127.281H127.781V89V57V56.5H127.281H115.59H115.29L115.148 56.7646L102.664 80.1592L90.1791 56.7646L90.0379 56.5H89.738H78H77.5V57V89V89.5H78H86.6405H87.1405V89V68.5416L98.0762 89.2336L98.2169 89.5H98.5182H106.809H107.111L107.251 89.2336L118.187 68.5416V89Z" fill="#EEEFF3" stroke="#EEEFF3"/>
</svg>
