<svg width="169" height="208" viewBox="0 0 169 208" fill="none" xmlns="http://www.w3.org/2000/svg">
<path fill-rule="evenodd" clip-rule="evenodd" d="M160.903 48.3356C154.683 34.4848 144.439 22.3489 131.036 13.7746C119.628 6.48648 105.992 1.73761 90.5597 0.748275C88.4311 0.616363 86.2693 0.550415 84.0742 0.550415C81.9123 0.550415 79.7504 0.616363 77.5886 0.748275C62.1564 1.70464 48.5203 6.45351 37.1124 13.7746C23.709 22.3489 13.4653 34.5178 7.24584 48.3356C-3.36379 71.9148 -1.834 100.243 9.40756 122.14C19.7483 142.282 24.7104 148.023 35.7595 160.808C36.6865 161.881 37.6563 163.003 38.6757 164.187C51.8463 179.489 67.1787 197.429 67.1787 197.429C71.835 203.926 77.9545 207.157 84.0742 207.19C90.1938 207.19 96.3135 203.926 100.97 197.429C100.97 197.429 116.302 179.456 129.473 164.187C130.489 163.007 131.456 161.888 132.38 160.818L132.388 160.809C143.438 148.024 148.4 142.282 158.741 122.14C169.982 100.243 171.512 71.9148 160.903 48.3356Z" fill="#561AA4"/>
</svg>
