<svg width="160" height="75" viewBox="0 0 160 75" fill="none" xmlns="http://www.w3.org/2000/svg">
<path fill-rule="evenodd" clip-rule="evenodd" d="M84.2955 0.334961H69.1305C67.6106 0.334961 66.3764 1.56919 66.3764 3.08908V3.28136H59.6952V3.08908C59.6952 1.56919 58.461 0.334961 56.9411 0.334961H41.776C40.2561 0.334961 39.0219 1.56919 39.0219 3.08908V3.28136H6.15557C2.75595 3.28136 0 6.03731 0 9.43693V56.6818C0 60.0815 2.75595 62.8374 6.15557 62.8374H23.6389C23.6389 60.8606 24.0271 58.9415 24.7917 57.1323C25.5296 55.3872 26.5862 53.8206 27.9303 52.4756C29.2744 51.1306 30.842 50.0749 32.5871 49.3369C34.3963 48.5715 36.3154 48.1842 38.2922 48.1842C40.269 48.1842 42.1881 48.5724 43.9973 49.3369C45.7424 50.0749 47.309 51.1315 48.654 52.4756C49.9981 53.8197 51.0547 55.3872 51.7927 57.1323C52.5581 58.9415 52.9454 60.8606 52.9454 62.8374H115.94C115.94 60.8606 116.328 58.9415 117.092 57.1323C117.83 55.3872 118.887 53.8206 120.231 52.4756C121.575 51.1306 123.143 50.0749 124.888 49.3369C126.697 48.5715 128.616 48.1842 130.593 48.1842C132.57 48.1842 134.489 48.5724 136.298 49.3369C138.043 50.0749 139.61 51.1315 140.955 52.4756C142.3 53.8197 143.355 55.3872 144.093 57.1323C144.859 58.9415 145.246 60.8606 145.246 62.8374H153.844C157.244 62.8374 160 60.0815 160 56.6818V51.2588C160 39.2397 157.672 27.3341 153.143 16.2014C149.966 8.38948 142.373 3.28136 133.94 3.28136H114.762V3.08908C114.762 1.56919 113.528 0.334961 112.008 0.334961H96.8429C95.323 0.334961 94.0888 1.56919 94.0888 3.08908V3.28136H87.0497V3.08908C87.0497 1.56919 85.8154 0.334961 84.2955 0.334961ZM32.946 28.5299C32.946 30.0352 31.7255 31.2566 30.2193 31.2566H12.356C10.8508 31.2566 9.62935 30.0361 9.62935 28.5299V13.537C9.62935 12.0317 10.8498 10.8103 12.356 10.8103H30.2193C31.7246 10.8103 32.946 12.0308 32.946 13.537V28.5299ZM60.6584 28.5299C60.6584 30.0352 59.4379 31.2566 57.9318 31.2566H40.0684C38.5632 31.2566 37.3418 30.0361 37.3418 28.5299V13.537C37.3418 12.0317 38.5623 10.8103 40.0684 10.8103H57.9318C59.437 10.8103 60.6584 12.0308 60.6584 13.537V28.5299ZM88.3709 28.5299C88.3709 30.0352 87.1504 31.2566 85.6442 31.2566H67.7809C66.2756 31.2566 65.0542 30.0361 65.0542 28.5299V13.537C65.0542 12.0317 66.2747 10.8103 67.7809 10.8103H85.6442C87.1495 10.8103 88.3709 12.0308 88.3709 13.537V28.5299ZM116.083 28.5299C116.083 30.0352 114.863 31.2566 113.357 31.2566H95.4933C93.9881 31.2566 92.7667 30.0361 92.7667 28.5299V13.537C92.7667 12.0317 93.9871 10.8103 95.4933 10.8103H113.357C114.862 10.8103 116.083 12.0308 116.083 13.537V28.5299ZM146.311 40.137H129.44C124.492 40.137 120.481 36.1257 120.481 31.1778V10.8112H132.8C139.427 10.8112 145.395 14.8261 147.892 20.9652C149.181 24.1332 150.603 28.8504 151.697 33.2306C152.574 36.7383 149.927 40.137 146.312 40.137H146.311ZM26.4636 62.8365C26.4636 56.3037 31.7594 51.0079 38.2922 51.0079C44.825 51.0079 50.1208 56.3037 50.1208 62.8365C50.1208 69.3693 44.825 74.6651 38.2922 74.6651C31.7594 74.6651 26.4636 69.3693 26.4636 62.8365ZM33.9019 62.8374C33.9019 65.2619 35.8677 67.2277 38.2922 67.2277C40.7167 67.2277 42.6825 65.2619 42.6825 62.8374C42.6825 60.4129 40.7167 58.4471 38.2922 58.4471C35.8677 58.4471 33.9019 60.4129 33.9019 62.8374ZM118.746 62.8365C118.746 56.3037 124.042 51.0079 130.574 51.0079C137.107 51.0079 142.403 56.3037 142.403 62.8365C142.403 69.3693 137.107 74.6651 130.574 74.6651C124.042 74.6651 118.746 69.3693 118.746 62.8365ZM126.184 62.8374C126.184 65.2619 128.15 67.2277 130.574 67.2277C132.999 67.2277 134.965 65.2619 134.965 62.8374C134.965 60.4129 132.999 58.4471 130.574 58.4471C128.15 58.4471 126.184 60.4129 126.184 62.8374Z" fill="url(#paint0_linear_2_6421)"/>
<defs>
<linearGradient id="paint0_linear_2_6421" x1="80" y1="0.334961" x2="80" y2="74.6651" gradientUnits="userSpaceOnUse">
<stop stop-color="#101440"/>
<stop offset="1" stop-color="#3E4164"/>
</linearGradient>
</defs>
</svg>
