<svg width="160" height="83" viewBox="0 0 160 83" fill="none" xmlns="http://www.w3.org/2000/svg">
<path fill-rule="evenodd" clip-rule="evenodd" d="M69.7041 0.665283H69.2931C65.7031 0.665283 62.7891 3.57927 62.7891 7.16924V10.9222H33.0923C31.7953 10.9222 30.5923 11.5962 29.9143 12.7022L14.7794 37.0401H3.79651C1.82752 37.0401 0.198534 38.571 0.0765347 40.536C0.024535 41.371 -0.00146484 42.094 -0.00146484 42.35V64.8519C-0.00146484 66.9099 1.66752 68.5789 3.72551 68.5789H24.1894C24.1894 66.3209 24.6324 64.1279 25.5064 62.0619C26.3494 60.0679 27.5564 58.2789 29.0924 56.7419C30.6283 55.2059 32.4183 53.999 34.4123 53.156C36.4783 52.282 38.6703 51.839 40.9293 51.839C43.1883 51.839 45.3802 52.282 47.4462 53.156C49.4402 53.999 51.2292 55.2059 52.7662 56.7419C54.3022 58.2779 55.5092 60.0679 56.3522 62.0619C57.2262 64.1279 57.6692 66.3199 57.6692 68.5789H115.142C115.142 66.3209 115.585 64.1279 116.459 62.0619C117.302 60.0679 118.509 58.2789 120.045 56.7419C121.581 55.2059 123.371 53.999 125.365 53.156C127.431 52.282 129.623 51.839 131.882 51.839C134.141 51.839 136.333 52.282 138.399 53.156C140.393 53.999 142.182 55.2059 143.719 56.7419C145.255 58.2779 146.462 60.0679 147.305 62.0619C148.179 64.1279 148.622 66.3199 148.622 68.5789H156.275C158.333 68.5789 160.002 66.9099 160.002 64.8519V59.4249C160.002 58.2359 159.863 57.0519 159.587 55.8949H159.584L157.869 48.712C156.892 44.619 154.262 41.114 150.606 39.032C148.314 37.7261 145.721 37.0401 143.083 37.0401H127.348C126.305 37.0401 125.31 36.6031 124.604 35.8351L102.81 12.1272C102.104 11.3592 101.109 10.9222 100.066 10.9222H76.2081V7.16924C76.2081 3.57927 73.2941 0.665283 69.7041 0.665283ZM67.3771 37.0401H20.9634L33.0323 17.3462H67.3781V37.0401H67.3771ZM71.8421 37.0401V17.3462H100.153L118.257 37.0401H71.8431H71.8421ZM27.1714 68.5779C27.1714 60.9799 33.3303 54.8209 40.9283 54.8209C48.5262 54.8209 54.6852 60.9799 54.6852 68.5779C54.6852 76.1758 48.5262 82.3348 40.9283 82.3348C33.3303 82.3348 27.1714 76.1758 27.1714 68.5779ZM36.4313 68.5789C36.4313 71.0628 38.4443 73.0758 40.9283 73.0758C43.4123 73.0758 45.4252 71.0628 45.4252 68.5789C45.4252 66.0949 43.4123 64.0819 40.9283 64.0819C38.4443 64.0819 36.4313 66.0949 36.4313 68.5789ZM118.123 68.5779C118.123 60.9799 124.282 54.8209 131.88 54.8209C139.478 54.8209 145.637 60.9799 145.637 68.5779C145.637 76.1758 139.478 82.3348 131.88 82.3348C124.282 82.3348 118.123 76.1758 118.123 68.5779ZM127.383 68.5789C127.383 71.0628 129.396 73.0758 131.88 73.0758C134.364 73.0758 136.377 71.0628 136.377 68.5789C136.377 66.0949 134.364 64.0819 131.88 64.0819C129.396 64.0819 127.383 66.0949 127.383 68.5789Z" fill="url(#paint0_linear_2_6422)"/>
<defs>
<linearGradient id="paint0_linear_2_6422" x1="80" y1="0.665283" x2="80" y2="82.3348" gradientUnits="userSpaceOnUse">
<stop stop-color="#101440"/>
<stop offset="1" stop-color="#3E4164"/>
</linearGradient>
</defs>
</svg>
