<svg width="24" height="24" viewBox="0 0 24 24" fill="none" xmlns="http://www.w3.org/2000/svg">
<g clip-path="url(#clip0_532_1232)">
<path d="M12 13.4139L14.947 16.3609L5.25 21.9589C5.01075 22.0988 4.73719 22.169 4.46016 22.1618C4.18312 22.1546 3.91361 22.0701 3.682 21.9179L3.574 21.8399L12 13.4139ZM3 4.41392L10.586 11.9999L3 19.5859V4.41392ZM16.74 8.67392L20.25 10.7009C21.25 11.2779 21.25 12.7209 20.25 13.2989L16.74 15.3259L13.414 11.9999L16.74 8.67392ZM5.25 2.04092L14.947 7.63892L12 10.5859L3.574 2.15892C3.8092 1.9732 4.09487 1.86262 4.39381 1.84158C4.69275 1.82053 4.9911 1.88999 5.25 2.04092Z" fill="#561AA4"/>
</g>
<defs>
<clipPath id="clip0_532_1232">
<rect width="24" height="24" fill="white"/>
</clipPath>
</defs>
</svg>
