<svg width="280" height="135" viewBox="0 0 280 135" fill="none" xmlns="http://www.w3.org/2000/svg">
<g clip-path="url(#clip0_1_8878)">
<rect x="14.8369" y="0.720703" width="170.353" height="100.632" rx="1.5" fill="#561AA4" stroke="#561AA4"/>
<path d="M38.8076 50.579H44.6431L52.1396 65.4519H52.4153L59.8566 50.579H65.6936V75.1969H59.4778V63.8452H59.2021L53.7102 75.1969H50.0488L44.5399 63.8452H44.2642V75.1969H38.8076V50.579Z" fill="white"/>
<path d="M69.3252 62.4595C69.3252 54.6137 74.1598 50.5564 81.6549 50.5564C89.1316 50.5564 93.9507 54.6137 93.9507 62.4595C93.9507 70.3067 89.1316 75.1967 81.6549 75.1967C74.1598 75.1967 69.3252 70.3081 69.3252 62.4595ZM87.4211 62.4595C87.4211 57.8956 85.1777 55.7543 81.6535 55.7543C78.1321 55.7543 75.852 57.8956 75.852 62.4595C75.852 67.0248 78.1321 69.9988 81.6535 69.9988C85.1777 69.9988 87.4211 67.0248 87.4211 62.4595Z" fill="white"/>
<path d="M103.921 50.5564H110.38L119.479 75.1743H112.712L110.951 70.1485H102.162L100.347 75.1743H94.8213L103.921 50.5564ZM109.327 65.5329L106.738 58.2846H106.46L103.835 65.5329H109.327Z" fill="white"/>
<path d="M122.636 50.5564H133.169C140.61 50.5564 144.807 54.8992 144.807 62.626C144.807 70.7126 140.662 75.1743 133.169 75.1743H122.636V50.5564ZM132.028 70.0968C136.139 70.0968 138.28 67.5664 138.28 62.7114C138.28 58.1125 135.968 55.6339 132.028 55.6339H129.093V70.0968H132.028Z" fill="white"/>
<path fill-rule="evenodd" clip-rule="evenodd" d="M98.3213 42.758C98.8909 43.1219 99.3264 43.6369 99.5907 44.2247C100.042 45.2254 99.9766 46.4276 99.4988 47.3569C99.0593 48.2117 98.8484 48.4553 98.3787 48.9979C98.3393 49.0434 98.2981 49.091 98.2548 49.1413C97.695 49.7893 97.0433 50.552 97.0433 50.552C96.8454 50.8277 96.5853 50.9663 96.3252 50.9663C96.0651 50.9649 95.805 50.8277 95.6071 50.552C95.6071 50.552 94.9554 49.7907 94.3956 49.1413C94.3523 49.091 94.311 49.0434 94.2716 48.9979C93.802 48.4553 93.5911 48.2117 93.1516 47.3569C92.6738 46.4276 92.6088 45.2254 93.0597 44.2247C93.3241 43.6383 93.7595 43.1219 94.3291 42.758C94.814 42.4473 95.3936 42.2458 96.0495 42.2052C96.1414 42.1996 96.2333 42.1968 96.3252 42.1968C96.4185 42.1968 96.5104 42.1996 96.6009 42.2052C97.2568 42.2472 97.8364 42.4487 98.3213 42.758ZM98.0427 45.6835C98.0427 46.6226 97.2737 47.3839 96.3251 47.3839C95.3765 47.3839 94.6076 46.6226 94.6076 45.6835C94.6076 44.7444 95.3765 43.9831 96.3251 43.9831C97.2737 43.9831 98.0427 44.7444 98.0427 45.6835Z" fill="white"/>
<g style="mix-blend-mode:multiply" opacity="0.5">
<path d="M280 133.683C280 134.413 217.319 135 140.002 135C62.6858 135 0 134.408 0 133.683C0 132.958 62.6812 132.365 139.998 132.365C217.314 132.365 279.995 132.958 279.995 133.683H280Z" fill="#9B9B9B"/>
</g>
<path d="M276.173 109.987H274.75L190.627 109.872V35.6267C190.627 34.6352 190.922 33.7125 191.437 32.9505C192.308 31.633 193.814 30.7609 195.518 30.7609H219.967C225.322 30.7609 230.296 33.5427 233.096 38.0964L245.535 61.021L270.444 78.3545C272.917 79.929 274.644 82.3619 275.33 85.1208C275.431 85.5155 275.51 85.9103 275.565 86.3143C275.625 86.732 275.662 87.1589 275.671 87.5812L275.864 95.2977L275.897 96.4913L275.933 97.8684L275.975 99.7321L276.016 101.274L276.062 103.138L276.168 109.978L276.173 109.987Z" fill="#561AA4"/>
<g style="mix-blend-mode:multiply" opacity="0.5">
<path d="M211.153 68.9027H203.144C202.857 68.9027 202.624 69.135 202.624 69.4214V71.074C202.624 71.3605 202.857 71.5927 203.144 71.5927H211.153C211.44 71.5927 211.673 71.3605 211.673 71.074V69.4214C211.673 69.135 211.44 68.9027 211.153 68.9027Z" fill="#B5B5B5"/>
</g>
<g style="mix-blend-mode:multiply" opacity="0.5">
<path d="M239.028 60.7456L233.944 50.8945L231.125 45.4319L229.536 42.3517C228.726 40.791 227.538 39.5011 226.106 38.5784C224.922 37.8118 223.573 37.2977 222.154 37.0957C221.685 37.0222 221.206 36.9901 220.722 36.9901H197.305V63.027V96.3995H198.493V63.027H237.632C238.807 63.027 239.562 61.7876 239.028 60.7502V60.7456ZM237.945 61.6499C237.904 61.7142 237.812 61.8243 237.628 61.8243H198.497V38.179H220.713C221.137 38.179 221.56 38.2112 221.975 38.2754C223.2 38.4499 224.402 38.8997 225.447 39.5791C226.718 40.3962 227.759 41.5438 228.459 42.8934L230.048 45.9736L232.866 51.4408L237.95 61.2919C238.033 61.4525 237.978 61.5856 237.936 61.6545L237.945 61.6499Z" fill="#B5B5B5"/>
</g>
<path d="M237.945 61.6545C237.904 61.7187 237.807 61.8289 237.627 61.8289H198.497V38.1836H220.712C220.828 38.1836 220.934 38.1836 221.049 38.1882C221.362 38.202 221.666 38.2295 221.979 38.28C223.116 38.4407 224.235 38.8492 225.23 39.446C225.308 39.4919 225.382 39.5378 225.451 39.5837C226.718 40.4008 227.758 41.5438 228.463 42.9026L230.052 45.9736L230.231 46.3133L232.87 51.4408L233.045 51.7805L237.959 61.2872C238.042 61.4479 237.982 61.5856 237.945 61.6499V61.6545Z" fill="#CBE3FF"/>
<path opacity="0.15" d="M218.17 38.1836L198.497 57.7939V46.4785L206.828 38.1836H218.17Z" fill="white"/>
<path opacity="0.15" d="M225.23 39.4414L202.775 61.8243H198.497V60.6629L221.049 38.1836C221.362 38.1974 221.666 38.2249 221.979 38.2754C223.116 38.4361 224.235 38.8446 225.23 39.4414Z" fill="white"/>
<path opacity="0.15" d="M233.046 51.785L222.969 61.8289H214.671L230.232 46.3132L232.871 51.4407L233.046 51.785Z" fill="white"/>
<path opacity="0.15" d="M276.173 109.872H274.75L274.676 104.529V104.346H276.062L276.016 102.482H274.626L274.589 101.123V100.939H275.975L275.933 99.0757H274.543L274.515 97.8868L274.483 96.6933L274.409 93.7049L274.289 88.9767C274.276 88.5544 274.243 88.1275 274.184 87.7098C274.128 87.3012 274.05 86.9065 273.949 86.5163C273.691 85.4651 273.272 84.4598 272.719 83.5279C271.83 82.0222 270.591 80.7231 269.058 79.75L244.148 62.4165L231.71 39.4919C228.91 34.9382 223.936 32.1564 218.58 32.1564H194.132C193.137 32.1564 192.211 32.4502 191.438 32.9643C192.308 31.6468 193.814 30.7747 195.518 30.7747H219.967C225.322 30.7747 230.296 33.5565 233.096 38.1102L245.535 61.0348L270.444 78.3683C272.424 79.626 273.921 81.4347 274.791 83.5279C275.012 84.0466 275.192 84.5883 275.33 85.1345C275.432 85.5293 275.51 85.9241 275.565 86.3281C275.625 86.7458 275.662 87.1727 275.671 87.595L275.823 93.7049L275.864 95.3115L275.897 96.5051L275.933 97.8822L275.975 99.7459L276.016 101.288L276.062 103.152L276.168 109.877L276.173 109.872Z" fill="white"/>
<path d="M275.823 93.6957H270.509C268.929 93.6957 267.653 92.4288 267.653 90.8543V86.3602C267.653 85.2769 268.261 84.3404 269.145 83.8539H269.15C269.551 83.6381 270.016 83.5142 270.504 83.5142H274.787C275.008 84.0329 275.187 84.5745 275.326 85.1208C275.427 85.5156 275.505 85.9104 275.56 86.3143C275.62 86.7321 275.657 87.159 275.666 87.5813L275.786 92.539L275.818 93.6911L275.823 93.6957Z" fill="#FFC931"/>
<path opacity="0.2" d="M275.796 92.539H271.67C270.09 92.539 268.814 91.272 268.814 89.6975V85.2034C268.814 84.7169 268.939 84.2532 269.151 83.8539H269.155C269.556 83.6381 270.021 83.5142 270.509 83.5142H274.792C275.013 84.0329 275.193 84.5745 275.331 85.1208C275.432 85.5156 275.51 85.9104 275.566 86.3143C275.626 86.7321 275.662 87.159 275.672 87.5813L275.791 92.539H275.796Z" fill="white"/>
<path d="M187.823 103.157H17.8271V106.287H187.823V103.157Z" fill="#303030"/>
<path d="M190.627 106.287V70.514H186.556V106.287H190.627Z" fill="#303030"/>
<path d="M269.427 114.16H17.8271V115.844H269.427V114.16Z" fill="#303030"/>
<path d="M270.172 113.389V114.16H217.452V112.374C217.986 98.3504 229.601 87.0992 243.803 87.0992C258.005 87.0992 270.172 98.8921 270.172 113.389Z" fill="#303030"/>
<path d="M95.9956 113.389V114.16H43.2754V112.374C43.8096 98.3504 55.4239 87.0992 69.6263 87.0992C83.8287 87.0992 95.9956 98.8921 95.9956 113.389Z" fill="#303030"/>
<path d="M69.6261 93.0576C58.3619 93.0576 49.2344 102.16 49.2344 113.384C49.2344 124.608 58.3665 133.71 69.6261 133.71C80.8858 133.71 90.0179 124.608 90.0179 113.384C90.0179 102.16 80.8858 93.0576 69.6261 93.0576Z" fill="#424242"/>
<path d="M70.1619 125.467C76.852 125.171 82.0349 119.525 81.7381 112.856C81.4413 106.188 75.7773 101.022 69.0872 101.317C62.3971 101.613 57.2142 107.259 57.511 113.928C57.8078 120.596 63.4718 125.763 70.1619 125.467Z" fill="#424242"/>
<path d="M69.6259 125.884C62.7135 125.884 57.0859 120.279 57.0859 113.384C57.0859 106.489 62.7089 100.884 69.6259 100.884C76.5429 100.884 82.1658 106.489 82.1658 113.384C82.1658 120.279 76.5429 125.884 69.6259 125.884Z" fill="#3D3D3D"/>
<path d="M70.7713 125.424C77.4378 124.791 82.3275 118.891 81.6926 112.246C81.0577 105.601 75.1388 100.727 68.4722 101.359C61.8057 101.992 56.916 107.892 57.5509 114.537C58.1858 121.183 64.1047 126.057 70.7713 125.424Z" fill="#C6C6C6"/>
<path d="M75.2357 109.321L73.7021 107.793L75.162 105.172L75.6409 105.466C76.3732 105.92 76.9995 106.531 77.4692 107.251L77.8652 107.866L75.2357 109.321Z" fill="#919191"/>
<path d="M64.0124 117.451L65.5459 118.98L64.0861 121.601L63.6071 121.307C62.8703 120.853 62.2486 120.242 61.7789 119.521L61.3828 118.906L64.0124 117.451Z" fill="#919191"/>
<path d="M76.4746 114.467V112.305L79.3667 111.479L79.4956 112.025C79.6936 112.865 79.7028 113.733 79.5186 114.578L79.3667 115.289L76.4746 114.463V114.467Z" fill="#919191"/>
<path d="M62.7738 112.307V114.469L59.8817 115.295L59.7528 114.749C59.5547 113.909 59.5455 113.041 59.7297 112.196L59.8817 111.485L62.7738 112.311V112.307Z" fill="#919191"/>
<path d="M73.7021 118.98L75.2357 117.451L77.8652 118.906L77.5705 119.384C77.1146 120.114 76.5021 120.738 75.7791 121.206L75.162 121.601L73.7021 118.98Z" fill="#919191"/>
<path d="M65.5508 107.793L64.0173 109.321L61.3877 107.866L61.6824 107.389C62.1383 106.659 62.7508 106.035 63.4738 105.567L64.0909 105.172L65.5508 107.793Z" fill="#919191"/>
<path d="M68.5392 120.215H70.7082L71.5372 123.097L70.9891 123.226C70.1464 123.423 69.276 123.432 68.4286 123.249L67.7148 123.097L68.5438 120.215H68.5392Z" fill="#919191"/>
<path d="M70.7128 106.558H68.5438L67.7148 103.675L68.2629 103.547C69.1056 103.349 69.976 103.34 70.8233 103.524L71.5372 103.675L70.7082 106.558H70.7128Z" fill="#919191"/>
<path d="M72.7901 113.389L72.5967 113.724L71.2106 116.12H68.0422L66.656 113.724L66.458 113.389L68.0422 110.653H71.2106L72.7901 113.389Z" fill="#848484"/>
<path d="M72.5969 113.724L71.2108 116.12H68.0424L66.6562 113.724L68.0424 111.323H71.2108L72.5969 113.724Z" fill="#919191"/>
<path d="M243.803 93.0576C232.539 93.0576 223.411 102.16 223.411 113.384C223.411 124.608 232.543 133.71 243.803 133.71C255.063 133.71 264.195 124.608 264.195 113.384C264.195 102.16 255.063 93.0576 243.803 93.0576ZM243.803 125.475C237.116 125.475 231.677 120.054 231.677 113.389C231.677 106.723 237.116 101.302 243.803 101.302C250.49 101.302 255.928 106.723 255.928 113.389C255.928 120.054 250.49 125.475 243.803 125.475Z" fill="#424242"/>
<path d="M243.803 125.884C236.89 125.884 231.263 120.279 231.263 113.384C231.263 106.489 236.886 100.884 243.803 100.884C250.72 100.884 256.343 106.489 256.343 113.384C256.343 120.279 250.72 125.884 243.803 125.884Z" fill="#3D3D3D"/>
<path d="M246.371 125.195C252.916 123.781 257.072 117.346 255.653 110.822C254.234 104.298 247.779 100.156 241.234 101.57C234.689 102.984 230.534 109.419 231.952 115.943C233.371 122.467 239.827 126.609 246.371 125.195Z" fill="#C6C6C6"/>
<path d="M249.412 109.321L247.879 107.793L249.339 105.172L249.818 105.466C250.55 105.92 251.176 106.531 251.646 107.251L252.042 107.866L249.412 109.321Z" fill="#919191"/>
<path d="M238.189 117.451L239.723 118.98L238.263 121.601L237.784 121.307C237.052 120.853 236.425 120.242 235.956 119.521L235.56 118.906L238.189 117.451Z" fill="#919191"/>
<path d="M250.651 114.467V112.305L253.543 111.479L253.672 112.025C253.87 112.865 253.88 113.733 253.695 114.578L253.543 115.289L250.651 114.463V114.467Z" fill="#919191"/>
<path d="M236.951 112.307V114.469L234.058 115.295L233.93 114.749C233.731 113.909 233.722 113.041 233.906 112.196L234.058 111.485L236.951 112.311V112.307Z" fill="#919191"/>
<path d="M247.879 118.98L249.412 117.451L252.042 118.906L251.747 119.384C251.291 120.114 250.679 120.738 249.956 121.206L249.339 121.601L247.879 118.98Z" fill="#919191"/>
<path d="M239.723 107.793L238.189 109.321L235.56 107.866L235.854 107.389C236.31 106.659 236.923 106.035 237.646 105.567L238.263 105.172L239.723 107.793Z" fill="#919191"/>
<path d="M242.716 120.215H244.885L245.714 123.097L245.166 123.226C244.323 123.423 243.453 123.432 242.605 123.249L241.892 123.097L242.721 120.215H242.716Z" fill="#919191"/>
<path d="M244.885 106.558H242.716L241.887 103.675L242.435 103.547C243.277 103.349 244.148 103.34 244.995 103.524L245.709 103.675L244.88 106.558H244.885Z" fill="#919191"/>
<path d="M246.967 113.389L246.773 113.724L245.383 116.12H242.219L240.828 113.724L240.635 113.389L242.219 110.653H245.383L246.967 113.389Z" fill="#848484"/>
<path d="M246.773 113.724L245.383 116.12H242.219L240.828 113.724L242.219 111.323H245.383L246.773 113.724Z" fill="#919191"/>
<path d="M95.9952 113.389C95.9952 113.646 95.9813 113.903 95.9721 114.16H91.74C91.7492 113.903 91.763 113.646 91.763 113.389C91.763 101.219 81.8296 91.3179 69.6259 91.3179C57.4221 91.3179 47.4841 101.219 47.4841 113.389C47.4841 113.646 47.4979 113.903 47.5071 114.16H43.275C43.2658 113.903 43.252 113.646 43.252 113.389C43.252 113.054 43.2612 112.714 43.275 112.379C43.8092 98.355 55.4235 87.1039 69.6259 87.1039C83.8283 87.1039 95.9952 98.8967 95.9952 113.393V113.389Z" fill="#919191"/>
<path d="M270.173 113.389C270.173 113.646 270.159 113.903 270.15 114.16H265.918C265.927 113.903 265.941 113.646 265.941 113.389C265.941 101.219 256.007 91.3179 243.804 91.3179C231.6 91.3179 221.662 101.219 221.662 113.389C221.662 113.646 221.676 113.903 221.685 114.16H217.453C217.443 113.903 217.43 113.646 217.43 113.389C217.43 113.054 217.439 112.714 217.453 112.379C217.987 98.355 229.601 87.1039 243.804 87.1039C258.006 87.1039 270.173 98.8967 270.173 113.393V113.389Z" fill="#919191"/>
<path d="M219.446 106.287H93.333V114.16H219.446V106.287Z" fill="#919191"/>
<path d="M44.9002 106.287H13.2119V114.16H44.9002V106.287Z" fill="#919191"/>
<path d="M176.894 114.151H95.3594V117.543H176.894V114.151Z" fill="#303030"/>
<path d="M277.472 98.6579V112.93C277.472 113.609 276.919 114.16 276.238 114.16H266.226L264.665 97.5011H276.307C276.947 97.5011 277.472 98.0152 277.472 98.6533V98.6579Z" fill="#919191"/>
<g style="mix-blend-mode:multiply" opacity="0.5">
<path d="M239.189 62.1777H238.001V81.3979H239.189V62.1777Z" fill="#B5B5B5"/>
</g>
<path d="M237.121 55.7282L236.393 55.7098L236.509 50.7017C236.522 50.1416 235.947 49.6734 235.228 49.6551L233.939 49.6229L233.557 65.9694L234.846 66.0016C235.564 66.0199 236.163 65.5793 236.172 65.0146L236.186 64.4179L236.914 64.4362L236.946 63.027H237.595C238.797 63.027 239.566 61.76 239.014 60.695L237.089 56.9997L237.116 55.7282H237.121Z" fill="#303030"/>
<g style="mix-blend-mode:multiply" opacity="0.5">
<path d="M277.477 102.059H275.598V103.923H277.477V102.059Z" fill="#B5B5B5"/>
</g>
<g style="mix-blend-mode:multiply" opacity="0.5">
<path d="M277.477 105.466H275.598V107.329H277.477V105.466Z" fill="#B5B5B5"/>
</g>
<path opacity="0.25" d="M21.6892 3.59021H177.952L49.7591 98.5677H24.2744C18.238 98.5677 17.7104 97.5411 17.7111 93.0134L17.7109 7.90737C17.7109 5.99887 18.0258 3.59021 21.6892 3.59021Z" fill="white"/>
</g>
<defs>
<clipPath id="clip0_1_8878">
<rect width="280" height="134.78" fill="white" transform="translate(0 0.220703)"/>
</clipPath>
</defs>
</svg>
