<svg width="454" height="473" viewBox="0 0 454 473" fill="none" xmlns="http://www.w3.org/2000/svg">
<path opacity="0.4" fill-rule="evenodd" clip-rule="evenodd" d="M380.413 -88.7014C419.346 -63.8306 449.102 -28.6288 467.168 11.547C497.987 79.9416 493.543 162.111 460.888 225.627C430.85 284.051 416.437 300.705 384.341 337.79C381.649 340.901 378.832 344.155 375.872 347.589C337.615 391.878 293.078 444.011 293.078 444.011C279.552 462.856 261.776 472.325 244 472.325C226.224 472.23 208.448 462.856 194.923 444.011C194.923 444.011 150.385 391.974 112.128 347.589C109.167 344.154 106.35 340.899 103.657 337.788C71.5622 300.704 57.1486 284.05 27.1111 225.627C-5.54292 162.111 -9.9866 79.9416 20.8319 11.547C38.8979 -28.5332 68.6534 -63.8306 107.587 -88.7014C140.724 -109.937 180.334 -123.712 225.161 -126.486C231.44 -126.869 237.72 -127.06 244 -127.06C250.376 -127.06 256.656 -126.869 262.839 -126.486C307.666 -123.616 347.275 -109.842 380.413 -88.7014ZM361.375 111.254C361.375 175.442 308.822 227.476 243.994 227.476C179.167 227.476 126.614 175.442 126.614 111.254C126.614 47.0654 179.167 -4.96933 243.994 -4.96933C308.822 -4.96933 361.375 47.0654 361.375 111.254Z" fill="url(#paint0_linear_70_57)"/>
<defs>
<linearGradient id="paint0_linear_70_57" x1="244" y1="-20.2352" x2="244" y2="533.896" gradientUnits="userSpaceOnUse">
<stop stop-color="white" stop-opacity="0"/>
<stop offset="1" stop-color="white" stop-opacity="0.4"/>
</linearGradient>
</defs>
</svg>
