<svg width="861" height="200" viewBox="0 0 861 200" fill="none" xmlns="http://www.w3.org/2000/svg">
<g opacity="0.03">
<path d="M0 0.248047H47.3598L108.2 120.967H110.437L170.83 0.248047H218.202V200.065H167.756V107.926H165.518L120.946 200.065H91.2319L46.5223 107.926H44.2851V200.065H0V0.248047Z" fill="#561AA4"/>
<path d="M247.675 96.6789C247.675 32.9966 286.912 0.0649414 347.741 0.0649414C408.421 0.0649414 447.532 32.9966 447.532 96.6789C447.532 160.373 408.421 200.063 347.741 200.063C286.912 200.063 247.675 160.384 247.675 96.6789ZM394.539 96.6789C394.539 59.635 376.331 42.2547 347.73 42.2547C319.151 42.2547 300.645 59.635 300.645 96.6789C300.645 133.734 319.151 157.873 347.73 157.873C376.331 157.873 394.539 133.734 394.539 96.6789Z" fill="#561AA4"/>
<path d="M528.45 0.0649414H580.869L654.72 199.882H599.799L585.504 159.089H514.178L499.446 199.882H454.599L528.45 0.0649414ZM572.322 121.625L551.315 62.793H549.055L527.75 121.625H572.322Z" fill="#561AA4"/>
<path d="M680.338 0.0649414H765.822C826.215 0.0649414 860.277 35.314 860.277 98.0307C860.277 163.667 826.639 199.882 765.822 199.882H680.338V0.0649414ZM756.563 158.669C789.926 158.669 807.307 138.13 807.307 98.7237C807.307 61.3958 788.538 41.2778 756.563 41.2778H732.746V158.669H756.563Z" fill="#561AA4"/>
</g>
</svg>
