<svg width="254" height="131" viewBox="0 0 254 131" fill="none" xmlns="http://www.w3.org/2000/svg">
<rect width="254" height="130.695" rx="16" fill="#F5F7FA"/>
<path fill-rule="evenodd" clip-rule="evenodd" d="M50.9408 27.2C50.9408 25.4325 52.3733 24 54.1408 24H149.394C151.162 24 152.594 25.4325 152.593 27.2V70.1867V73.3771V91.8891H96.864C96.864 89.4581 96.3871 87.0987 95.4464 84.8757C94.5386 82.7296 93.2405 80.8032 91.5872 79.1499C89.9338 77.4965 88.0074 76.1984 85.8613 75.2907C83.6384 74.3509 81.2789 73.8731 78.848 73.8731C76.417 73.8731 74.0565 74.3499 71.8346 75.2907C69.6885 76.1984 67.7621 77.4965 66.1088 79.1499C64.4544 80.8032 63.1562 82.7296 62.2485 84.8757C61.3088 87.0987 60.832 89.4581 60.832 91.8891H49.4069C48.0778 91.8891 47.0005 90.8117 47.0005 89.4827V84.592C47.0005 83.2619 48.0778 82.1845 49.408 82.1835H50.9408V73.3771V70.1867V27.2ZM203.06 82.1845H205.396L205.395 82.1867C206.282 82.1867 206.999 82.9045 206.999 83.7909V90.2859C206.999 91.1723 206.282 91.8901 205.395 91.8901H194.752C194.752 89.4592 194.276 87.0997 193.335 84.8768C192.428 82.7307 191.128 80.8043 189.475 79.1509C187.822 77.4976 185.895 76.1995 183.75 75.2917C181.527 74.352 179.168 73.8741 176.737 73.8741C174.306 73.8741 171.947 74.3509 169.724 75.2917C167.579 76.1995 165.652 77.4976 163.999 79.1509C162.344 80.8043 161.046 82.7307 160.139 84.8768C159.199 87.0997 158.722 89.4592 158.722 91.8901H155.804V43.8155C155.804 42.048 157.236 40.6155 159.004 40.6155H179.964C181.538 40.6155 182.966 41.536 183.617 42.9685L192.516 62.576C192.911 63.4443 193.602 64.144 194.465 64.5493L200.753 67.4997C202.161 68.1611 203.06 69.5765 203.06 71.1317V82.1845ZM162.956 60.6699H186.3C186.592 60.6699 186.786 60.368 186.664 60.1024L179.723 44.8053C179.462 44.2325 178.891 43.8645 178.261 43.8645H162.939C162.051 43.8645 161.332 44.5845 161.334 45.472L161.351 59.0677C161.352 59.9531 162.07 60.6699 162.956 60.6699ZM78.8479 77.083C70.6708 77.083 64.0415 83.7123 64.0415 91.8894C64.0415 100.066 70.6708 106.696 78.8479 106.696C87.025 106.696 93.6543 100.066 93.6543 91.8894C93.6543 83.7123 87.025 77.083 78.8479 77.083ZM78.8479 96.7289C76.1748 96.7289 74.0074 94.5614 74.0074 91.8883C74.0074 89.2153 76.1748 87.0478 78.8479 87.0478C81.521 87.0478 83.6884 89.2153 83.6884 91.8883C83.6884 94.5614 81.521 96.7289 78.8479 96.7289ZM161.931 91.8894C161.931 83.7123 168.56 77.083 176.737 77.083C184.914 77.083 191.543 83.7123 191.543 91.8894C191.543 100.066 184.914 106.696 176.737 106.696C168.56 106.696 161.931 100.066 161.931 91.8894ZM171.897 91.8883C171.897 94.5614 174.064 96.7289 176.737 96.7289C179.41 96.7289 181.578 94.5614 181.578 91.8883C181.578 89.2153 179.41 87.0478 176.737 87.0478C174.064 87.0478 171.897 89.2153 171.897 91.8883Z" fill="url(#paint0_linear_484_2563)"/>
<path d="M95.4374 53.7891C95.4452 57.4453 93.2108 59.6016 90.2499 59.6016C87.2733 59.6016 85.0546 57.4375 85.0624 53.7891C85.0546 50.1328 87.2733 47.9766 90.2499 47.9766C93.2108 47.9766 95.4452 50.1328 95.4374 53.7891ZM87.1093 53.7891C87.1014 56.375 88.4061 57.7734 90.2499 57.7734C92.1014 57.7734 93.3983 56.375 93.3905 53.7891C93.3983 51.2031 92.1014 49.8047 90.2499 49.8047C88.4061 49.8047 87.1014 51.2031 87.1093 53.7891ZM107.344 53.7891C107.351 57.4453 105.117 59.6016 102.156 59.6016C99.1796 59.6016 96.9608 57.4375 96.9686 53.7891C96.9608 50.1328 99.1796 47.9766 102.156 47.9766C105.117 47.9766 107.351 50.1328 107.344 53.7891ZM99.0155 53.7891C99.0077 56.375 100.312 57.7734 102.156 57.7734C104.008 57.7734 105.305 56.375 105.297 53.7891C105.305 51.2031 104.008 49.8047 102.156 49.8047C100.312 49.8047 99.0077 51.2031 99.0155 53.7891ZM109.156 59.4453V48.1328H111.187V52.9297H116.453V48.1328H118.5V59.4453H116.453V54.6328H111.187V59.4453H109.156Z" fill="white"/>
<defs>
<linearGradient id="paint0_linear_484_2563" x1="127" y1="24" x2="127" y2="106.695" gradientUnits="userSpaceOnUse">
<stop stop-color="#101440"/>
<stop offset="1" stop-color="#3E4164"/>
</linearGradient>
</defs>
</svg>
