<svg width="254" height="131" viewBox="0 0 254 131" fill="none" xmlns="http://www.w3.org/2000/svg">
<rect y="0.695312" width="254" height="129.669" rx="16" fill="#F5F7FA"/>
<path fill-rule="evenodd" clip-rule="evenodd" d="M116.704 24.6953H116.293C112.703 24.6953 109.789 27.6093 109.789 31.1993V34.9522H80.0923C78.7953 34.9522 77.5923 35.6262 76.9143 36.7322L61.7794 61.0701H50.7965C48.8275 61.0701 47.1985 62.6011 47.0765 64.5661C47.0245 65.4011 46.9985 66.1241 46.9985 66.3801V88.8819C46.9985 90.9399 48.6675 92.6089 50.7255 92.6089H71.1894C71.1894 90.3509 71.6324 88.1579 72.5064 86.0919C73.3494 84.0979 74.5564 82.309 76.0924 80.772C77.6283 79.236 79.4183 78.029 81.4123 77.186C83.4783 76.312 85.6703 75.869 87.9293 75.869C90.1883 75.869 92.3802 76.312 94.4462 77.186C96.4402 78.029 98.2292 79.236 99.7662 80.772C101.302 82.308 102.509 84.0979 103.352 86.0919C104.226 88.1579 104.669 90.3499 104.669 92.6089H162.142C162.142 90.3509 162.585 88.1579 163.459 86.0919C164.302 84.0979 165.509 82.309 167.045 80.772C168.581 79.236 170.371 78.029 172.365 77.186C174.431 76.312 176.623 75.869 178.882 75.869C181.141 75.869 183.333 76.312 185.399 77.186C187.393 78.029 189.182 79.236 190.719 80.772C192.255 82.308 193.462 84.0979 194.305 86.0919C195.179 88.1579 195.622 90.3499 195.622 92.6089H203.275C205.333 92.6089 207.002 90.9399 207.002 88.8819V83.4549C207.002 82.266 206.863 81.082 206.587 79.925H206.584L204.869 72.742C203.892 68.649 201.262 65.1441 197.606 63.0621C195.314 61.7561 192.721 61.0701 190.083 61.0701H174.348C173.305 61.0701 172.31 60.6331 171.604 59.8651L149.81 36.1572C149.104 35.3892 148.109 34.9522 147.066 34.9522H123.208V31.1993C123.208 27.6093 120.294 24.6953 116.704 24.6953ZM114.377 61.0701H67.9634L80.0323 41.3762H114.378V61.0701H114.377ZM118.842 61.0701V41.3762H147.153L165.257 61.0701H118.843H118.842ZM74.1714 92.6079C74.1714 85.0099 80.3303 78.851 87.9283 78.851C95.5262 78.851 101.685 85.0099 101.685 92.6079C101.685 100.206 95.5262 106.365 87.9283 106.365C80.3303 106.365 74.1714 100.206 74.1714 92.6079ZM83.4313 92.6089C83.4313 95.0929 85.4443 97.1059 87.9283 97.1059C90.4123 97.1059 92.4252 95.0929 92.4252 92.6089C92.4252 90.1249 90.4123 88.1119 87.9283 88.1119C85.4443 88.1119 83.4313 90.1249 83.4313 92.6089ZM165.123 92.6079C165.123 85.0099 171.282 78.851 178.88 78.851C186.478 78.851 192.637 85.0099 192.637 92.6079C192.637 100.206 186.478 106.365 178.88 106.365C171.282 106.365 165.123 100.206 165.123 92.6079ZM174.383 92.6089C174.383 95.0929 176.396 97.1059 178.88 97.1059C181.364 97.1059 183.377 95.0929 183.377 92.6089C183.377 90.1249 181.364 88.1119 178.88 88.1119C176.396 88.1119 174.383 90.1249 174.383 92.6089Z" fill="url(#paint0_linear_484_2660)"/>
<defs>
<linearGradient id="paint0_linear_484_2660" x1="127" y1="24.6953" x2="127" y2="106.365" gradientUnits="userSpaceOnUse">
<stop stop-color="#101440"/>
<stop offset="1" stop-color="#3E4164"/>
</linearGradient>
</defs>
</svg>
