<svg width="254" height="124" viewBox="0 0 254 124" fill="none" xmlns="http://www.w3.org/2000/svg">
<rect y="0.695312" width="254" height="122.33" rx="16" fill="#F5F7FA"/>
<path fill-rule="evenodd" clip-rule="evenodd" d="M131.296 24.6953H116.13C114.611 24.6953 113.376 25.9295 113.376 27.4494V27.6417H106.695V27.4494C106.695 25.9295 105.461 24.6953 103.941 24.6953H88.776C87.2561 24.6953 86.0219 25.9295 86.0219 27.4494V27.6417H53.1556C49.756 27.6417 47 30.3977 47 33.7973V81.0422C47 84.4418 49.756 87.1978 53.1556 87.1978H70.6389C70.6389 85.221 71.0271 83.3019 71.7917 81.4927C72.5296 79.7475 73.5862 78.1809 74.9303 76.8359C76.2744 75.4909 77.842 74.4352 79.5871 73.6973C81.3963 72.9318 83.3154 72.5445 85.2922 72.5445C87.269 72.5445 89.1881 72.9327 90.9973 73.6973C92.7424 74.4352 94.309 75.4918 95.654 76.8359C96.9981 78.18 98.0547 79.7475 98.7927 81.4927C99.5581 83.3019 99.9454 85.221 99.9454 87.1978H162.94C162.94 85.221 163.328 83.3019 164.092 81.4927C164.83 79.7475 165.887 78.1809 167.231 76.8359C168.575 75.4909 170.143 74.4352 171.888 73.6973C173.697 72.9318 175.616 72.5445 177.593 72.5445C179.57 72.5445 181.489 72.9327 183.298 73.6973C185.043 74.4352 186.61 75.4918 187.955 76.8359C189.3 78.18 190.355 79.7475 191.093 81.4927C191.859 83.3019 192.246 85.221 192.246 87.1978H200.844C204.244 87.1978 207 84.4418 207 81.0422V75.6191C207 63.6 204.672 51.6945 200.143 40.5617C196.966 32.7498 189.373 27.6417 180.94 27.6417H161.762V27.4494C161.762 25.9295 160.528 24.6953 159.008 24.6953H143.843C142.323 24.6953 141.089 25.9295 141.089 27.4494V27.6417H134.05V27.4494C134.05 25.9295 132.815 24.6953 131.296 24.6953ZM79.946 52.8903C79.946 54.3955 78.7255 55.6169 77.2193 55.6169H59.356C57.8508 55.6169 56.6294 54.3964 56.6294 52.8903V37.8973C56.6294 36.3921 57.8498 35.1707 59.356 35.1707H77.2193C78.7246 35.1707 79.946 36.3912 79.946 37.8973V52.8903ZM107.658 52.8903C107.658 54.3955 106.438 55.6169 104.932 55.6169H87.0684C85.5632 55.6169 84.3418 54.3964 84.3418 52.8903V37.8973C84.3418 36.3921 85.5623 35.1707 87.0684 35.1707H104.932C106.437 35.1707 107.658 36.3912 107.658 37.8973V52.8903ZM135.371 52.8903C135.371 54.3955 134.15 55.6169 132.644 55.6169H114.781C113.276 55.6169 112.054 54.3964 112.054 52.8903V37.8973C112.054 36.3921 113.275 35.1707 114.781 35.1707H132.644C134.149 35.1707 135.371 36.3912 135.371 37.8973V52.8903ZM163.083 52.8903C163.083 54.3955 161.863 55.6169 160.357 55.6169H142.493C140.988 55.6169 139.767 54.3964 139.767 52.8903V37.8973C139.767 36.3921 140.987 35.1707 142.493 35.1707H160.357C161.862 35.1707 163.083 36.3912 163.083 37.8973V52.8903ZM193.311 64.4973H176.44C171.492 64.4973 167.481 60.4861 167.481 55.5382V35.1716H179.8C186.427 35.1716 192.395 39.1865 194.892 45.3256C196.181 48.4936 197.603 53.2107 198.697 57.591C199.574 61.0986 196.927 64.4973 193.312 64.4973H193.311ZM73.4636 87.1968C73.4636 80.6641 78.7594 75.3682 85.2922 75.3682C91.825 75.3682 97.1208 80.6641 97.1208 87.1968C97.1208 93.7297 91.825 99.0255 85.2922 99.0255C78.7594 99.0255 73.4636 93.7297 73.4636 87.1968ZM80.9019 87.1978C80.9019 89.6223 82.8677 91.5881 85.2922 91.5881C87.7167 91.5881 89.6825 89.6223 89.6825 87.1978C89.6825 84.7733 87.7167 82.8075 85.2922 82.8075C82.8677 82.8075 80.9019 84.7733 80.9019 87.1978ZM165.746 87.1968C165.746 80.6641 171.042 75.3682 177.574 75.3682C184.107 75.3682 189.403 80.6641 189.403 87.1968C189.403 93.7297 184.107 99.0255 177.574 99.0255C171.042 99.0255 165.746 93.7297 165.746 87.1968ZM173.184 87.1978C173.184 89.6223 175.15 91.5881 177.574 91.5881C179.999 91.5881 181.965 89.6223 181.965 87.1978C181.965 84.7733 179.999 82.8075 177.574 82.8075C175.15 82.8075 173.184 84.7733 173.184 87.1978Z" fill="url(#paint0_linear_484_2642)"/>
<defs>
<linearGradient id="paint0_linear_484_2642" x1="127" y1="24.6953" x2="127" y2="99.0255" gradientUnits="userSpaceOnUse">
<stop stop-color="#101440"/>
<stop offset="1" stop-color="#3E4164"/>
</linearGradient>
</defs>
</svg>
