<svg width="151" height="185" viewBox="0 0 151 185" fill="none" xmlns="http://www.w3.org/2000/svg">
<path opacity="0.06" fill-rule="evenodd" clip-rule="evenodd" d="M144.097 43.1653C138.544 30.7986 129.397 19.9629 117.43 12.3073C107.245 5.80006 95.0694 1.56 81.2906 0.676661C79.3901 0.558882 77.4599 0.5 75.5 0.5C73.5697 0.5 71.6395 0.558882 69.7093 0.676661C55.9305 1.53055 43.7554 5.77062 33.5698 12.3073C21.6025 19.9629 12.4563 30.828 6.90324 43.1653C-2.56965 64.2182 -1.20377 89.5111 8.83334 109.062C18.0662 127.046 22.4966 132.172 32.3618 143.587C33.1895 144.545 34.0554 145.547 34.9656 146.604C46.725 160.267 60.4147 176.284 60.4147 176.284C64.5721 182.085 70.036 184.971 75.5 185C80.9639 185 86.428 182.085 90.5854 176.284C90.5854 176.284 104.275 160.237 116.034 146.604C116.944 145.547 117.81 144.545 118.638 143.588C128.503 132.172 132.934 127.046 142.167 109.062C152.204 89.5111 153.57 64.2182 144.097 43.1653Z" fill="#561AA4"/>
</svg>
