<svg width="160" height="83" viewBox="0 0 160 83" fill="none" xmlns="http://www.w3.org/2000/svg">
<path fill-rule="evenodd" clip-rule="evenodd" d="M105.594 43.1293V2.75169H105.593C105.593 1.31595 104.429 0.152222 102.994 0.152222H6.54027C5.10453 0.152222 3.9408 1.31595 3.9408 2.75169V43.1293H105.594ZM158.396 58.3367H156.06V47.2839C156.06 45.7287 155.161 44.3133 153.753 43.652L147.465 40.7015C146.602 40.2962 145.911 39.5965 145.516 38.7282L136.617 19.1208C135.966 17.6882 134.538 16.7677 132.964 16.7677H108.804V68.0423H111.722C111.722 65.6114 112.199 63.2519 113.139 61.029C114.046 58.8829 115.345 56.9565 116.999 55.3031C118.652 53.6498 120.579 52.3517 122.724 51.4439C124.947 50.5031 127.306 50.0264 129.737 50.0264C132.168 50.0264 134.527 50.5042 136.75 51.4439C138.895 52.3517 140.822 53.6498 142.475 55.3031C144.129 56.9565 145.428 58.8829 146.335 61.029C147.276 63.2519 147.752 65.6114 147.752 68.0423H158.395C159.282 68.0423 159.999 67.3234 159.999 66.4381V59.9431C159.999 59.0578 159.282 58.3389 158.395 58.3389L158.396 58.3367ZM139.3 36.8221H115.956C115.07 36.8221 114.353 36.1053 114.351 35.22L114.334 21.6242C114.332 20.7368 115.051 20.0168 115.939 20.0168H131.261C131.891 20.0168 132.462 20.3848 132.723 20.9576L139.665 36.2546C139.786 36.5202 139.592 36.8221 139.3 36.8221ZM105.594 46.3389V68.0413H49.864C49.864 65.6104 49.3861 63.2509 48.4464 61.028C47.5387 58.8818 46.2405 56.9554 44.5872 55.3021C42.9339 53.6488 41.0075 52.3506 38.8613 51.4429C36.6384 50.5021 34.2789 50.0253 31.848 50.0253C29.4171 50.0253 27.0576 50.5032 24.8347 51.4429C22.6885 52.3506 20.7621 53.6488 19.1088 55.3021C17.4555 56.9554 16.1573 58.8818 15.2485 61.028C14.3077 63.2509 13.832 65.6104 13.832 68.0413H2.40693C1.07787 68.0413 0.000534058 66.9629 0.000534058 65.6349V60.7442C0.000534058 59.4152 1.07787 58.3378 2.40693 58.3378H3.93973V46.34H105.593L105.594 46.3389ZM31.848 53.2349C23.6709 53.2349 17.0416 59.8642 17.0416 68.0413C17.0416 76.2184 23.6709 82.8477 31.848 82.8477C40.0251 82.8477 46.6544 76.2184 46.6544 68.0413C46.6544 59.8642 40.0251 53.2349 31.848 53.2349ZM31.848 72.8808C29.1749 72.8808 27.0075 70.7133 27.0075 68.0402C27.0075 65.3672 29.1749 63.1997 31.848 63.1997C34.5211 63.1997 36.6885 65.3672 36.6885 68.0402C36.6885 70.7133 34.5211 72.8808 31.848 72.8808ZM114.931 68.0413C114.931 59.8642 121.56 53.2349 129.737 53.2349C137.914 53.2349 144.543 59.8642 144.543 68.0413C144.543 76.2184 137.914 82.8477 129.737 82.8477C121.56 82.8477 114.931 76.2184 114.931 68.0413ZM124.897 68.0402C124.897 70.7133 127.064 72.8808 129.737 72.8808C132.41 72.8808 134.578 70.7133 134.578 68.0402C134.578 65.3672 132.41 63.1997 129.737 63.1997C127.064 63.1997 124.897 65.3672 124.897 68.0402Z" fill="url(#paint0_linear_2_6443)"/>
<defs>
<linearGradient id="paint0_linear_2_6443" x1="80" y1="0.152222" x2="80" y2="82.8477" gradientUnits="userSpaceOnUse">
<stop stop-color="#101440"/>
<stop offset="1" stop-color="#3E4164"/>
</linearGradient>
</defs>
</svg>
