<svg xmlns="http://www.w3.org/2000/svg" width="160" height="83" viewBox="0 0 160 83" fill="none">
<path fill-rule="evenodd" clip-rule="evenodd" d="M3.94075 3.2C3.94075 1.43253 5.37329 0 7.14075 0H102.394C104.162 0 105.594 1.43253 105.593 3.2V46.1867V49.3771V67.8891H49.864C49.864 65.4581 49.3871 63.0987 48.4464 60.8757C47.5386 58.7296 46.2405 56.8032 44.5872 55.1499C42.9338 53.4965 41.0074 52.1984 38.8613 51.2907C36.6384 50.3509 34.2789 49.8731 31.848 49.8731C29.417 49.8731 27.0565 50.3499 24.8346 51.2907C22.6885 52.1984 20.7621 53.4965 19.1088 55.1499C17.4544 56.8032 16.1562 58.7296 15.2485 60.8757C14.3088 63.0987 13.832 65.4581 13.832 67.8891H2.40689C1.07782 67.8891 0.000488281 66.8117 0.000488281 65.4827V60.592C0.000488281 59.2619 1.07782 58.1845 2.40795 58.1835H3.94075V49.3771V46.1867V3.2ZM156.06 58.1845H158.396L158.395 58.1867C159.282 58.1867 159.999 58.9045 159.999 59.7909V66.2859C159.999 67.1723 159.282 67.8901 158.395 67.8901H147.752C147.752 65.4592 147.276 63.0997 146.335 60.8768C145.428 58.7307 144.128 56.8043 142.475 55.1509C140.822 53.4976 138.895 52.1995 136.75 51.2917C134.527 50.352 132.168 49.8741 129.737 49.8741C127.306 49.8741 124.947 50.3509 122.724 51.2917C120.579 52.1995 118.652 53.4976 116.999 55.1509C115.344 56.8043 114.046 58.7307 113.139 60.8768C112.199 63.0997 111.722 65.4592 111.722 67.8901H108.804V19.8155C108.804 18.048 110.236 16.6155 112.004 16.6155H132.964C134.538 16.6155 135.966 17.536 136.617 18.9685L145.516 38.576C145.911 39.4443 146.602 40.144 147.465 40.5493L153.753 43.4997C155.161 44.1611 156.06 45.5765 156.06 47.1317V58.1845ZM115.956 36.6699H139.3C139.592 36.6699 139.786 36.368 139.664 36.1024L132.723 20.8053C132.462 20.2325 131.891 19.8645 131.261 19.8645H115.939C115.051 19.8645 114.332 20.5845 114.334 21.472L114.351 35.0677C114.352 35.9531 115.07 36.6699 115.956 36.6699ZM31.8479 53.083C23.6708 53.083 17.0415 59.7123 17.0415 67.8894C17.0415 76.0665 23.6708 82.6958 31.8479 82.6958C40.025 82.6958 46.6543 76.0665 46.6543 67.8894C46.6543 59.7123 40.025 53.083 31.8479 53.083ZM31.8479 72.7289C29.1748 72.7289 27.0074 70.5614 27.0074 67.8883C27.0074 65.2153 29.1748 63.0478 31.8479 63.0478C34.521 63.0478 36.6884 65.2153 36.6884 67.8883C36.6884 70.5614 34.521 72.7289 31.8479 72.7289ZM114.931 67.8894C114.931 59.7123 121.56 53.083 129.737 53.083C137.914 53.083 144.543 59.7123 144.543 67.8894C144.543 76.0665 137.914 82.6958 129.737 82.6958C121.56 82.6958 114.931 76.0665 114.931 67.8894ZM124.897 67.8883C124.897 70.5614 127.064 72.7289 129.737 72.7289C132.41 72.7289 134.578 70.5614 134.578 67.8883C134.578 65.2153 132.41 63.0478 129.737 63.0478C127.064 63.0478 124.897 65.2153 124.897 67.8883Z" fill="url(#paint0_linear_484_2565)"/>
<defs>
<linearGradient id="paint0_linear_484_2565" x1="79.9999" y1="0" x2="79.9999" y2="82.6955" gradientUnits="userSpaceOnUse">
<stop stop-color="#101440"/>
<stop offset="1" stop-color="#3E4164"/>
</linearGradient>
</defs>
</svg>