<svg width="387" height="358" viewBox="0 0 387 358" fill="none" xmlns="http://www.w3.org/2000/svg">
<path opacity="0.06" fill-rule="evenodd" clip-rule="evenodd" d="M382.944 -20.8918C368.136 -53.8698 343.746 -82.7649 311.833 -103.18C284.672 -120.533 252.205 -131.839 215.461 -134.195C210.393 -134.509 205.246 -134.666 200.019 -134.666C194.872 -134.666 189.725 -134.509 184.578 -134.195C147.834 -131.918 115.367 -120.611 88.2057 -103.18C56.2928 -82.7649 31.903 -53.7913 17.0948 -20.8918C-8.16621 35.2492 -4.52384 102.697 22.2418 154.833C46.8626 202.79 58.6771 216.46 84.9845 246.9C87.1916 249.453 89.5006 252.125 91.9278 254.945C123.286 291.378 159.792 334.092 159.792 334.092C170.878 349.561 185.449 357.255 200.019 357.334C214.59 357.334 229.161 349.561 240.247 334.092C240.247 334.092 276.753 291.299 308.111 254.945C310.538 252.126 312.846 249.455 315.053 246.902C341.362 216.461 353.176 202.791 377.797 154.833C404.563 102.697 408.205 35.2492 382.944 -20.8918Z" fill="#561AA4"/>
</svg>
