<svg width="13" height="17" viewBox="0 0 13 17" fill="none" xmlns="http://www.w3.org/2000/svg">
<path fill-rule="evenodd" clip-rule="evenodd" d="M12.3536 4.19997C11.8797 3.12752 11.0993 2.18784 10.078 1.52394C9.20887 0.959626 8.16993 0.591924 6.99414 0.51532C6.83196 0.505106 6.66725 0.5 6.5 0.5C6.33529 0.5 6.17058 0.505106 6.00586 0.51532C4.83008 0.589371 3.79113 0.957072 2.92196 1.52394C1.90075 2.18784 1.12028 3.13007 0.646416 4.19997C-0.161938 6.0257 -0.0453819 8.21912 0.811118 9.91462C1.59899 11.4742 1.97705 11.9187 2.81889 12.9086C2.88951 12.9917 2.9634 13.0786 3.04107 13.1703C4.04454 14.3551 5.21273 15.7442 5.21273 15.7442C5.56749 16.2472 6.03374 16.4974 6.5 16.5C6.96626 16.5 7.43253 16.2472 7.78729 15.7442C7.78729 15.7442 8.95548 14.3525 9.95895 13.1703C10.0366 13.0786 10.1105 12.9917 10.1811 12.9087L10.1811 12.9087C11.023 11.9188 11.401 11.4742 12.1889 9.91462C13.0454 8.21912 13.162 6.0257 12.3536 4.19997Z" fill="#E4DEEB"/>
</svg>
