<svg width="338" height="90" viewBox="0 0 338 90" fill="none" xmlns="http://www.w3.org/2000/svg">
<path d="M305.424 32.1801V1.77344H336.207V8.25753H313.856V13.281H335.057V19.7651H313.856V25.696H336.517V32.1801H305.424Z" fill="#EEEFF3"/>
<path fill-rule="evenodd" clip-rule="evenodd" d="M304.424 33.1801V0.773438H337.207V9.25753H314.856V12.281H336.057V20.7651H314.856V24.696H337.517V33.1801H304.424ZM313.856 25.696V19.7651H335.057V13.281H313.856V8.25753H336.207V1.77344H305.424V32.1801H336.517V25.696H313.856Z" fill="#EEEFF3"/>
<path d="M295.112 10.3389C294.537 10.0586 293.777 9.74136 292.833 9.38728C291.888 9.0332 290.819 8.70125 289.624 8.39143C288.429 8.06685 287.13 7.80129 285.729 7.59474C284.327 7.37344 282.889 7.26279 281.414 7.26279C280.233 7.26279 279.223 7.29968 278.382 7.37344C277.556 7.44721 276.855 7.54311 276.279 7.66113C275.719 7.77916 275.269 7.91932 274.929 8.0816C274.605 8.22914 274.354 8.38405 274.177 8.54634C274 8.70862 273.882 8.87091 273.823 9.0332C273.779 9.19548 273.757 9.34302 273.757 9.4758C273.757 9.9184 273.978 10.3094 274.42 10.6487C274.863 10.9733 275.468 11.2683 276.235 11.5339C277.002 11.7847 277.895 12.0281 278.913 12.2642C279.931 12.4855 281.008 12.7215 282.144 12.9723C283.295 13.2084 284.475 13.474 285.685 13.769C286.909 14.0493 288.089 14.3813 289.225 14.7649C290.376 15.1485 291.461 15.5984 292.479 16.1148C293.496 16.6164 294.389 17.2065 295.156 17.8852C295.923 18.5639 296.528 19.3458 296.971 20.231C297.414 21.1162 297.635 22.1268 297.635 23.2628C297.635 24.7234 297.377 25.9774 296.86 27.0249C296.344 28.0724 295.65 28.9576 294.78 29.6805C293.924 30.4034 292.928 30.9862 291.792 31.4288C290.656 31.8566 289.461 32.1886 288.207 32.4246C286.968 32.6607 285.707 32.8156 284.423 32.8894C283.154 32.9631 281.945 33 280.794 33C277.784 33 274.996 32.7492 272.429 32.2476C269.876 31.7607 267.619 31.1485 265.657 30.4108V23.1521C267.678 24.2734 269.98 25.1512 272.561 25.7856C275.158 26.42 277.932 26.7372 280.882 26.7372C282.623 26.7372 284.04 26.6487 285.131 26.4716C286.238 26.2799 287.101 26.0438 287.721 25.7635C288.34 25.4684 288.761 25.1512 288.982 24.8119C289.203 24.4726 289.314 24.148 289.314 23.8382C289.314 23.3513 289.093 22.9308 288.65 22.5768C288.207 22.2079 287.603 21.8907 286.835 21.6252C286.068 21.3449 285.176 21.0941 284.158 20.8728C283.14 20.6367 282.055 20.408 280.905 20.1867C279.769 19.9507 278.596 19.6999 277.386 19.4343C276.176 19.1687 274.996 18.8589 273.845 18.5048C272.709 18.136 271.632 17.7155 270.614 17.2434C269.596 16.7566 268.703 16.1886 267.936 15.5394C267.169 14.8755 266.564 14.1157 266.122 13.26C265.679 12.3896 265.458 11.3864 265.458 10.2503C265.458 8.90779 265.694 7.74965 266.166 6.77593C266.638 5.80221 267.272 4.97603 268.069 4.29737C268.881 3.60396 269.81 3.04334 270.857 2.61549C271.92 2.18764 273.034 1.85569 274.199 1.61964C275.365 1.38359 276.545 1.2213 277.74 1.13278C278.935 1.04426 280.071 1 281.148 1C282.328 1 283.538 1.05901 284.777 1.17704C286.031 1.29507 287.263 1.46473 288.473 1.68603C289.683 1.89258 290.848 2.13601 291.97 2.41632C293.106 2.69663 294.153 2.9917 295.112 3.30152V10.3389Z" fill="#EEEFF3"/>
<path fill-rule="evenodd" clip-rule="evenodd" d="M296.112 11.9384L294.674 11.2379C294.138 10.9768 293.411 10.6721 292.481 10.3236C291.576 9.98419 290.541 9.66231 289.373 9.35942L289.362 9.35653C288.21 9.0437 286.951 8.78563 285.583 8.58406L285.573 8.58256C284.225 8.36972 282.839 8.26279 281.414 8.26279C280.252 8.26279 279.273 8.29915 278.47 8.36954C277.669 8.44108 277.009 8.53241 276.483 8.64021C275.965 8.74928 275.601 8.8689 275.361 8.98374L275.352 8.98794L275.343 8.99197C275.073 9.11492 274.924 9.21789 274.853 9.28349C274.81 9.32266 274.784 9.35216 274.77 9.37085C274.759 9.42464 274.757 9.45872 274.757 9.4758C274.757 9.52739 274.762 9.64825 275.021 9.8488C275.353 10.0903 275.851 10.3422 276.554 10.5861C277.283 10.8241 278.141 11.0586 279.132 11.2885C280.147 11.5091 281.22 11.7444 282.352 11.9942C283.511 12.2321 284.699 12.4993 285.915 12.7958C287.167 13.0828 288.377 13.423 289.543 13.8168C290.735 14.2142 291.863 14.6817 292.926 15.2204C294.013 15.7566 294.98 16.3938 295.819 17.1362C296.678 17.8967 297.363 18.7801 297.865 19.7838C298.387 20.827 298.635 21.9946 298.635 23.2628C298.635 24.8392 298.356 26.2519 297.757 27.4671C297.181 28.6351 296.403 29.6321 295.422 30.4471C294.476 31.2459 293.384 31.882 292.156 32.3605L292.145 32.3647C290.952 32.814 289.701 33.1611 288.393 33.4073C288.393 33.4073 288.393 33.4073 288.393 33.4073L288.207 32.4246L288.395 33.407C288.394 33.4071 288.393 33.4072 288.393 33.4073C287.111 33.6514 285.807 33.8115 284.481 33.8877C284.481 33.8877 284.481 33.8877 284.481 33.8877C283.195 33.9624 281.966 34 280.794 34C277.73 34 274.877 33.7448 272.239 33.2295C272.24 33.2296 272.241 33.2297 272.241 33.2299L272.429 32.2476L272.237 33.229C272.238 33.2292 272.239 33.2293 272.239 33.2295C269.644 32.7344 267.331 32.1085 265.305 31.3468L264.657 31.1032V21.4538L266.142 22.2777C268.075 23.35 270.292 24.1981 272.8 24.8145C272.8 24.8144 272.799 24.8143 272.799 24.8142L272.561 25.7856L272.8 24.8145C272.8 24.8144 272.8 24.8145 272.8 24.8145C275.311 25.4278 278.004 25.7372 280.882 25.7372C282.593 25.7372 283.949 25.6499 284.966 25.4854C284.964 25.4857 284.962 25.486 284.961 25.4863L285.131 26.4716L284.971 25.4845C284.97 25.4848 284.968 25.4851 284.966 25.4854C286.027 25.3012 286.791 25.0848 287.3 24.8564C287.297 24.8578 287.294 24.8592 287.291 24.8606L287.721 25.7635L287.308 24.8524C287.305 24.8537 287.303 24.855 287.3 24.8564C287.849 24.5937 288.072 24.3772 288.144 24.2656C288.292 24.0396 288.314 23.9026 288.314 23.8382C288.314 23.707 288.274 23.5569 288.025 23.3576L288.018 23.3514L288.01 23.345C287.69 23.0781 287.204 22.8111 286.508 22.5702L286.5 22.5674L286.492 22.5644C285.777 22.3033 284.93 22.0641 283.945 21.8499L283.932 21.847C282.927 21.6141 281.855 21.3879 280.716 21.1687L280.708 21.1673L280.701 21.1658C279.561 20.9289 278.385 20.6774 277.171 20.411C275.936 20.1398 274.729 19.823 273.551 19.4606L273.544 19.4584L273.536 19.456C272.364 19.0755 271.25 18.6406 270.193 18.1506L270.183 18.1456C269.097 17.6263 268.13 17.0135 267.29 16.3028L267.282 16.2956C266.424 15.5531 265.737 14.6939 265.233 13.7195L265.23 13.7133C264.705 12.6811 264.458 11.5181 264.458 10.2503C264.458 8.79221 264.714 7.47809 265.266 6.33966C265.796 5.24598 266.515 4.30804 267.42 3.53666C268.317 2.77011 269.339 2.15539 270.479 1.68974L270.484 1.68789C271.605 1.23638 272.778 0.887251 274.001 0.63954C275.208 0.39509 276.429 0.227109 277.666 0.135512C278.883 0.0453709 280.044 0 281.148 0C282.361 0 283.603 0.0606635 284.872 0.181498C286.152 0.301989 287.41 0.475197 288.647 0.701288C288.645 0.700957 288.643 0.700625 288.641 0.700294L288.473 1.68603L288.653 0.702353C288.651 0.701998 288.649 0.701643 288.647 0.701288C289.878 0.91153 291.066 1.1596 292.211 1.44581C292.21 1.44569 292.21 1.44556 292.209 1.44544L291.97 2.41632L292.212 1.44618C292.212 1.44605 292.211 1.44593 292.211 1.44581C293.365 1.73078 294.435 2.032 295.419 2.34995L296.112 2.5737V11.9384ZM266.657 23.6757V23.1521H265.657L265.172 24.0266C265.332 24.1154 265.494 24.2027 265.657 24.2885V23.1521C265.983 23.333 266.316 23.5075 266.657 23.6757ZM278.382 7.37344C277.556 7.44721 276.855 7.54311 276.279 7.66113C275.719 7.77916 275.269 7.91932 274.929 8.0816C274.605 8.22914 274.354 8.38405 274.177 8.54634C274 8.70862 273.882 8.87091 273.823 9.0332M274.42 10.6487C274.863 10.9733 275.468 11.2683 276.235 11.5339C277.002 11.7847 277.895 12.0281 278.913 12.2642C279.931 12.4855 281.008 12.7215 282.144 12.9723C283.295 13.2084 284.475 13.474 285.685 13.769C286.909 14.0493 288.089 14.3813 289.225 14.7649C290.376 15.1485 291.461 15.5984 292.479 16.1148C293.496 16.6164 294.389 17.2065 295.156 17.8852C295.923 18.5639 296.528 19.3458 296.971 20.231C297.414 21.1162 297.635 22.1268 297.635 23.2628C297.635 24.7234 297.377 25.9774 296.86 27.0249C296.344 28.0724 295.65 28.9576 294.78 29.6805C293.924 30.4034 292.928 30.9862 291.792 31.4288M294.112 9.89131C294.491 10.0497 294.825 10.1989 295.112 10.3389H294.112V9.89131ZM295.112 9.23485V10.3389V9.23485Z" fill="#EEEFF3"/>
<path d="M249.347 32.1801V1.77344H257.557V32.1801H249.347Z" fill="#EEEFF3"/>
<path fill-rule="evenodd" clip-rule="evenodd" d="M248.347 33.1801V0.773438H258.557V33.1801H248.347ZM249.347 32.1801H257.557V1.77344H249.347V32.1801Z" fill="#EEEFF3"/>
<path d="M230.979 8.39031V32.1801H222.769V8.39031H209.867V1.77344H243.903V8.39031H230.979Z" fill="#EEEFF3"/>
<path fill-rule="evenodd" clip-rule="evenodd" d="M231.979 33.1801H221.769V9.39031H208.867V0.773438H244.903V9.39031H231.979V33.1801ZM222.769 8.39031V32.1801H230.979V8.39031H243.903V1.77344H209.867V8.39031H222.769Z" fill="#EEEFF3"/>
<path d="M180.279 32.1801H172.069V1.77344H192.65C194.863 1.77344 196.737 2.00211 198.271 2.45947C199.82 2.91682 201.074 3.56597 202.033 4.40691C203.007 5.24785 203.708 6.26583 204.136 7.46085C204.578 8.64112 204.799 9.96154 204.799 11.4221C204.799 12.7057 204.615 13.8269 204.246 14.7859C203.892 15.7449 203.405 16.571 202.786 17.2644C202.181 17.9431 201.473 18.5185 200.661 18.9906C199.85 19.4627 198.994 19.8537 198.094 20.1635L208.053 32.1801H198.448L189.242 20.9823H180.279V32.1801ZM196.501 11.3779C196.501 10.7877 196.42 10.2861 196.257 9.87302C196.11 9.45993 195.844 9.12798 195.461 8.87717C195.077 8.61161 194.561 8.41982 193.911 8.30179C193.277 8.18376 192.48 8.12475 191.521 8.12475H180.279V14.631H191.521C192.48 14.631 193.277 14.572 193.911 14.4539C194.561 14.3359 195.077 14.1515 195.461 13.9007C195.844 13.6351 196.11 13.2958 196.257 12.8827C196.42 12.4696 196.501 11.968 196.501 11.3779Z" fill="#EEEFF3"/>
<path fill-rule="evenodd" clip-rule="evenodd" d="M181.279 33.1801H171.069V0.773438H192.65C194.925 0.773438 196.901 1.00776 198.556 1.50079C200.206 1.98815 201.598 2.69575 202.69 3.65253C203.789 4.60251 204.588 5.7612 205.074 7.11672C205.564 8.4237 205.799 9.86314 205.799 11.4221C205.799 12.7962 205.603 14.0418 205.182 15.1384C204.789 16.2005 204.242 17.1356 203.532 17.9298C202.855 18.6898 202.064 19.3315 201.164 19.8549C200.703 20.123 200.229 20.3665 199.743 20.5855L210.18 33.1801H197.976L188.77 21.9823H181.279V33.1801ZM189.242 20.9823L198.448 32.1801H208.053L198.094 20.1635C198.428 20.0484 198.757 19.9221 199.079 19.7846C199.624 19.552 200.151 19.2873 200.661 18.9906C201.473 18.5185 202.181 17.9431 202.786 17.2644C203.405 16.571 203.892 15.7449 204.246 14.7859C204.615 13.8269 204.799 12.7057 204.799 11.4221C204.799 9.96154 204.578 8.64112 204.136 7.46085C203.708 6.26583 203.007 5.24785 202.033 4.40691C201.074 3.56597 199.82 2.91682 198.271 2.45947C196.737 2.00211 194.863 1.77344 192.65 1.77344H172.069V32.1801H180.279V20.9823H189.242ZM195.321 10.2241L195.316 10.2094C195.245 10.0114 195.123 9.8513 194.913 9.71414L194.902 9.7069L194.891 9.69936C194.663 9.54118 194.296 9.38803 193.733 9.28566L193.729 9.28493C193.176 9.1821 192.446 9.12475 191.521 9.12475H181.279V13.631H191.521C192.446 13.631 193.176 13.5736 193.729 13.4708L193.733 13.4701C194.295 13.3679 194.667 13.2214 194.902 13.0709C195.119 12.9182 195.244 12.7463 195.316 12.5464L195.321 12.5316L195.327 12.5171C195.431 12.2519 195.501 11.8818 195.501 11.3779C195.501 10.874 195.431 10.5038 195.327 10.2387L195.321 10.2241ZM195.461 13.9007C195.077 14.1515 194.561 14.3359 193.911 14.4539C193.277 14.572 192.48 14.631 191.521 14.631H180.279V8.12475H191.521C192.48 8.12475 193.277 8.18376 193.911 8.30179C194.561 8.41982 195.077 8.61161 195.461 8.87717C195.844 9.12798 196.11 9.45993 196.257 9.87302C196.42 10.2861 196.501 10.7877 196.501 11.3779C196.501 11.968 196.42 12.4696 196.257 12.8827C196.11 13.2958 195.844 13.6351 195.461 13.9007Z" fill="#EEEFF3"/>
<path d="M133.032 32.1801V1.77344H163.815V8.25753H141.463V13.281H162.664V19.7651H141.463V25.696H164.124V32.1801H133.032Z" fill="#EEEFF3"/>
<path fill-rule="evenodd" clip-rule="evenodd" d="M132.032 33.1801V0.773438H164.815V9.25753H142.463V12.281H163.664V20.7651H142.463V24.696H165.124V33.1801H132.032ZM141.463 25.696V19.7651H162.664V13.281H141.463V8.25753H163.815V1.77344H133.032V32.1801H164.124V25.696H141.463Z" fill="#EEEFF3"/>
<path d="M112.539 32.1801H102.979L87.5988 1.77344H96.7606L107.826 24.6559L118.869 1.77344H128.03L112.539 32.1801Z" fill="#EEEFF3"/>
<path fill-rule="evenodd" clip-rule="evenodd" d="M113.152 33.1801H102.364L85.9724 0.773438H97.3879L107.825 22.3569L118.241 0.773438H129.662L113.152 33.1801ZM118.869 1.77344H128.03L112.539 32.1801H102.979L87.5988 1.77344H96.7607L107.826 24.6559L118.869 1.77344Z" fill="#EEEFF3"/>
<path d="M85.2089 16.9546C85.2089 18.9021 84.9949 20.6356 84.5671 22.1552C84.1392 23.66 83.5344 24.9731 82.7524 26.0943C81.9853 27.2156 81.0558 28.1672 79.964 28.9491C78.8871 29.731 77.6847 30.358 76.3569 30.8301C75.0291 31.3023 73.598 31.649 72.0636 31.8703C70.5293 32.0768 68.9285 32.1801 67.2614 32.1801H47.9641V1.77344H67.2172C68.8843 1.77344 70.485 1.88409 72.0194 2.10539C73.5537 2.31193 74.9848 2.65126 76.3126 3.12337C77.6551 3.59548 78.8723 4.22249 79.964 5.00442C81.0558 5.77159 81.9853 6.72318 82.7524 7.85919C83.5344 8.98044 84.1392 10.2935 84.5671 11.7983C84.9949 13.3032 85.2089 15.0219 85.2089 16.9546ZM76.9322 16.9546C76.9322 15.494 76.7404 14.2253 76.3569 13.1483C75.988 12.0713 75.3831 11.1861 74.5422 10.4927C73.716 9.7845 72.6316 9.26076 71.2891 8.92143C69.9465 8.56735 68.3089 8.39031 66.3762 8.39031H56.1743V25.5632H66.3762C68.3089 25.5632 69.9465 25.3935 71.2891 25.0542C72.6316 24.7001 73.716 24.169 74.5422 23.4608C75.3831 22.7379 75.988 21.838 76.3569 20.761C76.7404 19.684 76.9322 18.4152 76.9322 16.9546Z" fill="#EEEFF3"/>
<path fill-rule="evenodd" clip-rule="evenodd" d="M85.5297 22.4262L85.529 22.4287C85.0756 24.0234 84.4278 25.4392 83.5752 26.6627C82.744 27.8767 81.7342 28.9109 80.5487 29.7604C79.3906 30.6007 78.1033 31.2705 76.6919 31.7724C75.2959 32.2687 73.7998 32.6302 72.2064 32.86L72.1971 32.8614C70.6153 33.0743 68.9698 33.1801 67.2614 33.1801H46.9641V0.773438H67.2172C68.9268 0.773438 70.5739 0.8868 72.1575 1.11496C73.7515 1.32984 75.2487 1.68389 76.646 2.18059C78.0704 2.68163 79.371 3.35017 80.5427 4.18885C81.7332 5.0261 82.7452 6.06325 83.577 7.29339C84.4287 8.51629 85.0759 9.93121 85.529 11.5249C85.9872 13.1367 86.2089 14.9503 86.2089 16.9546C86.2089 18.9732 85.9873 20.8007 85.5297 22.4262ZM82.7524 7.85919C81.9853 6.72318 81.0558 5.77159 79.9641 5.00442C78.8723 4.22249 77.6552 3.59548 76.3126 3.12337C74.9848 2.65126 73.5537 2.31193 72.0194 2.10539C70.485 1.88409 68.8843 1.77344 67.2172 1.77344H47.9641V32.1801H67.2614C68.9285 32.1801 70.5293 32.0768 72.0636 31.8703C73.598 31.649 75.0291 31.3023 76.3569 30.8301C77.6847 30.358 78.8871 29.731 79.9641 28.9491C81.0558 28.1672 81.9853 27.2156 82.7524 26.0943C83.5344 24.9731 84.1392 23.66 84.5671 22.1552C84.9949 20.6356 85.2089 18.9021 85.2089 16.9546C85.2089 15.0219 84.9949 13.3032 84.5671 11.7983C84.1392 10.2935 83.5344 8.98045 82.7524 7.85919ZM75.4108 13.4723C75.0991 12.5621 74.5978 11.8346 73.906 11.2642L73.8987 11.2581L73.8914 11.2519C73.2099 10.6678 72.2765 10.2025 71.044 9.89094L71.0341 9.88842C69.8001 9.56298 68.2537 9.39031 66.3762 9.39031H57.1743V24.5632H66.3762C68.2537 24.5632 69.802 24.398 71.0391 24.0859C72.272 23.7602 73.2075 23.2877 73.891 22.7019C74.5929 22.0983 75.0981 21.35 75.4108 20.437L75.4148 20.4254C75.751 19.4813 75.9322 18.3311 75.9322 16.9546C75.9322 15.5782 75.7511 14.4279 75.4148 13.4838L75.4108 13.4723ZM74.5422 23.4609C73.716 24.169 72.6316 24.7001 71.2891 25.0542C69.9465 25.3935 68.3089 25.5632 66.3762 25.5632H56.1743V8.39031H66.3762C68.3089 8.39031 69.9465 8.56735 71.2891 8.92143C72.6316 9.26076 73.716 9.7845 74.5422 10.4927C75.3831 11.1861 75.988 12.0713 76.3569 13.1483C76.7404 14.2253 76.9322 15.494 76.9322 16.9546C76.9322 18.4152 76.7404 19.684 76.3569 20.761C75.988 21.838 75.3831 22.7379 74.5422 23.4609Z" fill="#EEEFF3"/>
<path d="M30.9682 26.4263H14.0166L11.1618 32.1801H2L17.9115 1.77344H27.0733L42.9848 32.1801H33.823L30.9682 26.4263ZM16.9599 20.4954H28.0692L22.5367 9.29764L16.9599 20.4954Z" fill="#EEEFF3"/>
<path fill-rule="evenodd" clip-rule="evenodd" d="M33.823 32.1801L30.9682 26.4263H14.0166L11.1618 32.1801H2.00001L17.9115 1.77344H27.0733L42.9848 32.1801H33.823ZM14.6368 27.4263L11.782 33.1801H0.348083L17.3061 0.773438H27.6787L44.6367 33.1801H33.2028L30.348 27.4263H14.6368ZM28.0692 20.4954L22.5367 9.29764L16.9599 20.4954H28.0692ZM18.5751 19.4954H26.4597L22.5331 11.548L18.5751 19.4954Z" fill="#EEEFF3"/>
<path d="M245.919 63.9636V89H237.279V63.9636H223.701V57H259.52V63.9636H245.919Z" fill="#EEEFF3"/>
<path fill-rule="evenodd" clip-rule="evenodd" d="M246.919 90H236.279V64.9636H222.701V56H260.52V64.9636H246.919V90ZM237.279 63.9636V89H245.919V63.9636H259.52V57H223.701V63.9636H237.279Z" fill="#EEEFF3"/>
<path d="M208.609 89L187.019 67.0146V89H178.379V57H187.764L209.377 79.0786V57H217.971V89H208.609Z" fill="#EEEFF3"/>
<path fill-rule="evenodd" clip-rule="evenodd" d="M208.189 90L188.019 69.4601V90H177.379V56H188.185L208.377 76.6275V56H218.971V90H208.189ZM209.377 79.0786L187.764 57H178.379V89H187.019V67.0146L208.609 89H217.971V57H209.377V79.0786Z" fill="#EEEFF3"/>
<path d="M137.296 89V57H169.692V63.8239H146.169V69.1106H168.48V75.9345H146.169V82.1761H170.018V89H137.296Z" fill="#EEEFF3"/>
<path fill-rule="evenodd" clip-rule="evenodd" d="M136.296 90V56H170.692V64.8239H147.169V68.1106H169.48V76.9345H147.169V81.1761H171.018V90H136.296ZM146.169 82.1761V75.9345H168.48V69.1106H146.169V63.8239H169.692V57H137.296V89H170.018V82.1761H146.169Z" fill="#EEEFF3"/>
<path d="M118.687 89V66.5255L106.809 89H98.5183L86.6405 66.5255V89H78.0001V57H89.7381L102.664 81.2213L115.59 57H127.281V89H118.687Z" fill="#EEEFF3"/>
<path fill-rule="evenodd" clip-rule="evenodd" d="M117.687 90V70.5578L107.412 90H97.9157L87.6405 70.5578V90H77.0001V56H90.3379L102.664 79.0972L114.99 56H128.281V90H117.687ZM102.664 81.2213L89.7381 57H78.0001V89H86.6405V66.5255L98.5183 89H106.809L118.687 66.5255V89H127.281V57H115.59L102.664 81.2213Z" fill="#EEEFF3"/>
</svg>
