<svg width="1296" height="86" viewBox="0 0 1296 86" fill="none" xmlns="http://www.w3.org/2000/svg">
<path d="M1260.05 82.4521H1261.55V80.9521V22.9777H1292.36H1293.86V21.4777V4.93555V3.43555H1292.36H1207.27H1205.77V4.93555V21.4777V22.9777H1207.27H1238.02V80.9521V82.4521H1239.52H1260.05Z" fill="#EEEFF3" stroke="#EEEFF3" stroke-width="3"/>
<path d="M1170.35 82.0031L1170.79 82.4521H1171.42H1193.66H1195.16V80.9521V4.93555V3.43555H1193.66H1173.24H1171.74V4.93555V53.7071L1122.97 3.88625L1122.53 3.43555H1121.9H1099.61H1098.11V4.93555V80.9521V82.4521H1099.61H1120.13H1121.63V80.9521V32.3937L1170.35 82.0031Z" fill="#EEEFF3" stroke="#EEEFF3" stroke-width="3"/>
<path d="M1000.51 80.9521V82.4521H1002.01H1079.74H1081.24V80.9521V64.7419V63.2419H1079.74H1024.59V51.4148H1076.09H1077.59V49.9148V33.7046V32.2046H1076.09H1024.59V22.6458H1078.97H1080.47V21.1458V4.93555V3.43555H1078.97H1002.01H1000.51V4.93555V80.9521Z" fill="#EEEFF3" stroke="#EEEFF3" stroke-width="3"/>
<path d="M956.307 80.9521V82.4521H957.807H978.222H979.722V80.9521V4.93555V3.43555H978.222H950.449H949.549L949.126 4.22933L919.744 59.2876L890.362 4.22933L889.938 3.43555H889.038H861.155H859.655V4.93555V80.9521V82.4521H861.155H881.68H883.18V80.9521V33.612L908.57 81.653L908.992 82.4521H909.896H929.592H930.495L930.918 81.653L956.307 33.6119V80.9521Z" fill="#EEEFF3" stroke="#EEEFF3" stroke-width="3"/>
<path d="M762.061 80.9521V82.4521H763.561H841.293H842.793V80.9521V64.7419V63.2419H841.293H786.14V51.4148H837.641H839.141V49.9148V33.7046V32.2046H837.641H786.14V22.6458H840.518H842.018V21.1458V4.93555V3.43555H840.518H763.561H762.061V4.93555V80.9521Z" fill="#EEEFF3" stroke="#EEEFF3" stroke-width="3"/>
<path d="M739.28 28.7465L737.123 27.6957C735.744 27.0238 733.893 26.2495 731.555 25.3727C729.253 24.5095 726.63 23.6947 723.683 22.9306L723.675 22.9284L723.666 22.9261C720.744 22.1323 717.557 21.4797 714.104 20.9708L714.096 20.9697L714.088 20.9685C710.665 20.4279 707.147 20.157 703.534 20.157C700.612 20.157 698.133 20.2484 696.088 20.4277L739.28 28.7465ZM739.28 28.7465V26.3472M739.28 28.7465V26.3472M739.28 26.3472V8.7538V7.66208L738.241 7.32645C735.806 6.53967 733.153 5.79276 730.285 5.08497C727.447 4.37538 724.499 3.75986 721.444 3.23797C718.379 2.67753 715.259 2.24805 712.085 1.94929C708.942 1.65001 705.87 1.5 702.87 1.5C700.137 1.5 697.26 1.61232 694.239 1.83605C691.189 2.06196 688.176 2.47622 685.2 3.07895C682.2 3.68657 679.327 4.54222 676.583 5.64735L676.583 5.64733L676.577 5.6501C673.819 6.77641 671.356 8.25911 669.199 10.1023C667.045 11.9381 665.333 14.1712 664.065 16.7854C662.765 19.4668 662.145 22.5961 662.145 26.1259C662.145 29.1636 662.737 31.9113 663.967 34.3299L663.967 34.33L663.972 34.3392C665.171 36.6566 666.805 38.705 668.859 40.4828L668.866 40.4883L668.872 40.4936C670.899 42.2088 673.241 43.696 675.888 44.9618L675.896 44.9656L675.904 44.9694C678.507 46.1765 681.256 47.2493 684.15 48.1888L684.161 48.1924L684.172 48.1958C687.089 49.0934 690.08 49.8784 693.143 50.5509C696.173 51.2159 699.11 51.8441 701.956 52.4354L701.967 52.4377L701.978 52.4398C704.839 52.9899 707.531 53.5577 710.055 54.1431L710.065 54.1455L710.076 54.1476C712.571 54.6902 714.734 55.2998 716.574 55.9718L716.586 55.9762L716.598 55.9804C718.409 56.6074 719.742 57.3251 720.665 58.0942L720.676 58.1038L720.688 58.1132C721.504 58.7662 721.785 59.4118 721.785 60.0954C721.785 60.5019 721.641 61.0319 721.199 61.7103C720.869 62.2163 720.114 62.8586 718.67 63.5481C717.288 64.1708 715.279 64.7317 712.58 65.1998M739.28 26.3472L712.58 65.1998M687.958 22.0635L687.944 22.0696C687.214 22.4015 686.741 22.7109 686.456 22.9716C686.165 23.2381 686.038 23.4352 685.985 23.5522C685.916 23.8251 685.891 24.0346 685.891 24.1895C685.891 24.7077 686.119 25.2798 686.951 25.9217C687.891 26.6081 689.244 27.2812 691.066 27.913C692.927 28.5208 695.107 29.116 697.611 29.6969C700.151 30.2492 702.838 30.8381 705.672 31.4637C708.561 32.0565 711.523 32.7229 714.557 33.4627C717.66 34.1735 720.655 35.0157 723.541 35.99C726.479 36.9698 729.256 38.1211 731.867 39.4455C734.516 40.7513 736.859 42.2974 738.885 44.0895C740.941 45.9088 742.574 48.0159 743.769 50.4066C744.994 52.8568 745.587 55.6186 745.587 58.657C745.587 62.4822 744.911 65.8553 743.496 68.7255C742.116 71.5249 740.255 73.9056 737.913 75.8511C735.638 77.7722 733.004 79.3092 730.026 80.4696L730.018 80.4727L730.01 80.4757C727.085 81.5773 724.014 82.4299 720.798 83.0353M687.958 22.0635L720.519 81.5616M687.958 22.0635L687.971 22.0572M687.958 22.0635L687.971 22.0572M720.798 83.0353C717.635 83.6378 714.417 84.0328 711.144 84.2209M720.798 83.0353C720.798 83.0354 720.797 83.0355 720.796 83.0357L720.519 81.5616M720.798 83.0353C720.799 83.0352 720.799 83.0351 720.799 83.0351L720.519 81.5616M711.144 84.2209L711.058 82.7262L711.145 84.2208C711.145 84.2209 711.144 84.2209 711.144 84.2209ZM711.144 84.2209C707.947 84.4068 704.893 84.5 701.985 84.5C694.379 84.5 687.312 83.8664 680.787 82.5917M680.787 82.5917C680.789 82.5919 680.79 82.5922 680.791 82.5924L681.072 81.1189M680.787 82.5917C680.786 82.5915 680.785 82.5913 680.784 82.5911L681.072 81.1189M680.787 82.5917C674.343 81.3623 668.616 79.8111 663.615 77.931L662.642 77.5656V76.527V58.3804V55.8329L664.87 57.0687C669.791 59.7985 675.417 61.9484 681.761 63.5073M681.072 81.1189C687.49 82.373 694.461 83 701.985 83C704.862 83 707.886 82.9078 711.058 82.7234C714.267 82.539 717.42 82.1517 720.519 81.5616M681.072 81.1189C674.691 79.9018 669.048 78.3711 664.142 76.527L681.76 63.5069C681.76 63.507 681.761 63.5072 681.761 63.5073M681.761 63.5073C688.125 65.0618 694.938 65.843 702.206 65.843C706.513 65.843 709.963 65.6235 712.58 65.1998M681.761 63.5073L712.58 65.1998M687.971 22.0572C688.67 21.7227 689.667 21.4031 691.004 21.1214M687.971 22.0572L691.004 21.1214M691.004 21.1214C692.369 20.8417 694.06 20.6088 696.088 20.4277L691.004 21.1214Z" fill="#EEEFF3" stroke="#EEEFF3" stroke-width="3"/>
<path d="M621.868 80.9521V82.4521H623.368H643.894H645.394V80.9521V4.93555V3.43555H643.894H623.368H621.868V4.93555V80.9521Z" fill="#EEEFF3" stroke="#EEEFF3" stroke-width="3"/>
<path d="M577.448 82.4521H578.948V80.9521V22.9777H609.758H611.258V21.4777V4.93555V3.43555H609.758H524.668H523.168V4.93555V21.4777V22.9777H524.668H555.422V80.9521V82.4521H556.922H577.448Z" fill="#EEEFF3" stroke="#EEEFF3" stroke-width="3"/>
<path d="M450.698 82.4521H452.198V80.9521V54.4577H472.396L494.961 81.9047L495.412 82.4521H496.12H520.131H523.322L521.286 79.995L497.733 51.5738C499.348 50.9144 500.906 50.1481 502.407 49.2749C504.567 48.0181 506.462 46.4806 508.082 44.6626C509.767 42.7776 511.075 40.5483 512.019 37.9957C513.019 35.3918 513.498 32.402 513.498 29.0573C513.498 25.2582 512.923 21.7785 511.747 18.6377C510.589 15.4096 508.69 12.6538 506.068 10.388C503.471 8.11168 500.129 6.40104 496.104 5.21261C492.088 4.0157 487.251 3.43555 481.625 3.43555H430.173H428.673V4.93555V80.9521V82.4521H430.173H450.698ZM489.23 25.689L489.238 25.7111L489.247 25.733C489.565 26.5438 489.752 27.6006 489.752 28.9466C489.752 30.2926 489.565 31.3494 489.247 32.1602L489.238 32.1821L489.23 32.2042C488.976 32.9168 488.523 33.5138 487.814 34.009C487.079 34.4847 486.004 34.8893 484.51 35.161L484.504 35.1621C483.041 35.4344 481.149 35.5794 478.803 35.5794H452.198V22.3138H478.803C481.149 22.3138 483.041 22.4589 484.504 22.7311L484.51 22.7322C486.004 23.0038 487.071 23.4253 487.797 23.9282L487.814 23.9395L487.83 23.9503C488.529 24.4069 488.977 24.9789 489.23 25.689Z" fill="#EEEFF3" stroke="#EEEFF3" stroke-width="3"/>
<path d="M331.079 80.9521V82.4521H332.579H410.311H411.811V80.9521V64.7419V63.2419H410.311H355.158V51.4148H406.66H408.16V49.9148V33.7046V32.2046H406.66H355.158V22.6458H409.537H411.037V21.1458V4.93555V3.43555H409.537H332.579H331.079V4.93555V80.9521Z" fill="#EEEFF3" stroke="#EEEFF3" stroke-width="3"/>
<path d="M281.348 82.4521H282.268L282.685 81.6331L321.412 5.61646L322.523 3.43555H320.076H297.171H296.23L295.82 4.28361L269.563 58.6932L243.252 4.28255L242.842 3.43555H241.902H218.997H216.557L217.658 5.61259L256.109 81.6292L256.526 82.4521H257.448H281.348Z" fill="#EEEFF3" stroke="#EEEFF3" stroke-width="3"/>
<mask id="path-12-outside-1_1061_1992" maskUnits="userSpaceOnUse" x="116.91" y="1.93555" width="100" height="83" fill="black">
<rect fill="white" x="116.91" y="1.93555" width="100" height="83"/>
<path d="M213.022 42.8885C213.022 47.7571 212.487 52.0909 211.418 55.8899C210.348 59.652 208.836 62.9346 206.881 65.7378C204.963 68.5409 202.64 70.9199 199.91 72.8747C197.218 74.8295 194.212 76.3971 190.892 77.5773C187.573 78.7576 183.995 79.6243 180.159 80.1776C176.323 80.694 172.321 80.9521 168.154 80.9521H119.91V4.93555H168.043C172.211 4.93555 176.213 5.21217 180.048 5.76542C183.884 6.28179 187.462 7.13011 190.782 8.31037C194.138 9.49064 197.181 11.0582 199.91 13.013C202.64 14.9309 204.963 17.3099 206.881 20.1499C208.836 22.9531 210.348 26.2357 211.418 29.9978C212.487 33.7599 213.022 38.0568 213.022 42.8885ZM192.331 42.8885C192.331 39.2371 191.851 36.0651 190.892 33.3726C189.97 30.6801 188.458 28.4671 186.356 26.7336C184.29 24.9632 181.579 23.6539 178.223 22.8055C174.866 21.9203 170.772 21.4777 165.941 21.4777H140.436V64.41H165.941C170.772 64.41 174.866 63.9858 178.223 63.1375C181.579 62.2523 184.29 60.9245 186.356 59.1541C188.458 57.3468 189.97 55.0969 190.892 52.4044C191.851 49.7119 192.331 46.54 192.331 42.8885Z"/>
</mask>
<path d="M213.022 42.8885C213.022 47.7571 212.487 52.0909 211.418 55.8899C210.348 59.652 208.836 62.9346 206.881 65.7378C204.963 68.5409 202.64 70.9199 199.91 72.8747C197.218 74.8295 194.212 76.3971 190.892 77.5773C187.573 78.7576 183.995 79.6243 180.159 80.1776C176.323 80.694 172.321 80.9521 168.154 80.9521H119.91V4.93555H168.043C172.211 4.93555 176.213 5.21217 180.048 5.76542C183.884 6.28179 187.462 7.13011 190.782 8.31037C194.138 9.49064 197.181 11.0582 199.91 13.013C202.64 14.9309 204.963 17.3099 206.881 20.1499C208.836 22.9531 210.348 26.2357 211.418 29.9978C212.487 33.7599 213.022 38.0568 213.022 42.8885ZM192.331 42.8885C192.331 39.2371 191.851 36.0651 190.892 33.3726C189.97 30.6801 188.458 28.4671 186.356 26.7336C184.29 24.9632 181.579 23.6539 178.223 22.8055C174.866 21.9203 170.772 21.4777 165.941 21.4777H140.436V64.41H165.941C170.772 64.41 174.866 63.9858 178.223 63.1375C181.579 62.2523 184.29 60.9245 186.356 59.1541C188.458 57.3468 189.97 55.0969 190.892 52.4044C191.851 49.7119 192.331 46.54 192.331 42.8885Z" fill="#EEEFF3"/>
<path d="M211.418 55.8899L214.303 56.7103L214.305 56.703L211.418 55.8899ZM206.881 65.7378L204.42 64.0217L204.413 64.0327L204.405 64.0437L206.881 65.7378ZM199.91 72.8747L198.163 70.4357L198.155 70.4414L198.148 70.447L199.91 72.8747ZM180.159 80.1776L180.559 83.1508L180.573 83.1489L180.587 83.1469L180.159 80.1776ZM119.91 80.9521H116.91V83.9521H119.91V80.9521ZM119.91 4.93555V1.93555H116.91V4.93555H119.91ZM180.048 5.76542L179.62 8.7347L179.634 8.73672L179.648 8.7386L180.048 5.76542ZM190.782 8.31037L189.776 11.137L189.786 11.1405L190.782 8.31037ZM199.91 13.013L198.163 15.452L198.174 15.4598L198.185 15.4676L199.91 13.013ZM206.881 20.1499L204.395 21.8289L204.408 21.8475L204.42 21.866L206.881 20.1499ZM190.892 33.3726L188.054 34.3446L188.06 34.3619L188.066 34.3792L190.892 33.3726ZM186.356 26.7336L184.403 29.0114L184.425 29.03L184.447 29.0482L186.356 26.7336ZM178.223 22.8055L177.458 25.7063L177.473 25.7103L177.488 25.7141L178.223 22.8055ZM140.436 21.4777V18.4777H137.436V21.4777H140.436ZM140.436 64.41H137.436V67.41H140.436V64.41ZM178.223 63.1375L178.958 66.046L178.973 66.0422L178.988 66.0383L178.223 63.1375ZM186.356 59.1541L188.308 61.4319L188.311 61.429L186.356 59.1541ZM190.892 52.4044L188.066 51.3979L188.06 51.4151L188.054 51.4324L190.892 52.4044ZM210.022 42.8885C210.022 47.5436 209.51 51.5957 208.53 55.0769L214.305 56.703C215.465 52.5862 216.022 47.9706 216.022 42.8885H210.022ZM208.532 55.0695C207.541 58.5571 206.16 61.5278 204.42 64.0217L209.342 67.4538C211.512 64.3415 213.156 60.747 214.303 56.7103L208.532 55.0695ZM204.405 64.0437C202.683 66.5613 200.605 68.6872 198.163 70.4357L201.657 75.3137C204.674 73.1526 207.244 70.5204 209.357 67.4318L204.405 64.0437ZM198.148 70.447C195.701 72.2237 192.952 73.6608 189.887 74.7507L191.897 80.404C195.471 79.1333 198.735 77.4353 201.673 75.3023L198.148 70.447ZM189.887 74.7507C186.772 75.8582 183.39 76.6806 179.731 77.2083L180.587 83.1469C184.6 82.5681 188.373 81.657 191.897 80.404L189.887 74.7507ZM179.759 77.2044C176.065 77.7016 172.198 77.9521 168.154 77.9521V83.9521C172.445 83.9521 176.581 83.6863 180.559 83.1508L179.759 77.2044ZM168.154 77.9521H119.91V83.9521H168.154V77.9521ZM122.91 80.9521V4.93555H116.91V80.9521H122.91ZM119.91 7.93555H168.043V1.93555H119.91V7.93555ZM168.043 7.93555C172.078 7.93555 175.936 8.20337 179.62 8.7347L180.477 2.79615C176.489 2.22097 172.343 1.93555 168.043 1.93555V7.93555ZM179.648 8.7386C183.298 9.22991 186.671 10.0329 189.776 11.137L191.787 5.48373C188.253 4.22734 184.471 3.33367 180.449 2.79224L179.648 8.7386ZM189.786 11.1405C192.891 12.2322 195.678 13.672 198.163 15.452L201.657 10.574C198.683 8.44433 195.385 6.74906 191.777 5.48026L189.786 11.1405ZM198.185 15.4676C200.608 17.1697 202.676 19.2832 204.395 21.8289L209.367 18.471C207.251 15.3366 204.671 12.6922 201.635 10.5584L198.185 15.4676ZM204.42 21.866C206.16 24.3599 207.541 27.3306 208.532 30.8182L214.303 29.1774C213.156 25.1407 211.512 21.5462 209.342 18.4339L204.42 21.866ZM208.532 30.8182C209.511 34.2594 210.022 38.2719 210.022 42.8885H216.022C216.022 37.8417 215.464 33.2603 214.303 29.1774L208.532 30.8182ZM195.331 42.8885C195.331 38.9847 194.819 35.4572 193.718 32.3661L188.066 34.3792C188.883 36.673 189.331 39.4894 189.331 42.8885H195.331ZM193.73 32.4006C192.637 29.2077 190.814 26.5216 188.264 24.419L184.447 29.0482C186.102 30.4127 187.303 32.1526 188.054 34.3446L193.73 32.4006ZM188.308 24.4558C185.808 22.3133 182.644 20.8288 178.958 19.897L177.488 25.7141C180.514 26.4789 182.772 27.6131 184.403 29.0114L188.308 24.4558ZM178.988 19.9047C175.306 18.9336 170.938 18.4777 165.941 18.4777V24.4777C170.607 24.4777 174.427 24.9071 177.458 25.7063L178.988 19.9047ZM165.941 18.4777H140.436V24.4777H165.941V18.4777ZM137.436 21.4777V64.41H143.436V21.4777H137.436ZM140.436 67.41H165.941V61.41H140.436V67.41ZM165.941 67.41C170.931 67.41 175.288 66.9737 178.958 66.046L177.488 60.2289C174.445 60.9979 170.614 61.41 165.941 61.41V67.41ZM178.988 66.0383C182.665 65.0685 185.817 63.5666 188.308 61.4319L184.403 56.8763C182.763 58.2824 180.493 59.4361 177.458 60.2367L178.988 66.0383ZM188.311 61.429C190.83 59.2641 192.64 56.56 193.73 53.3764L188.054 51.4324C187.3 53.6339 186.086 55.4295 184.4 56.8791L188.311 61.429ZM193.718 53.411C194.819 50.3198 195.331 46.7923 195.331 42.8885H189.331C189.331 46.2876 188.883 49.1041 188.066 51.3979L193.718 53.411Z" fill="#EEEFF3" mask="url(#path-12-outside-1_1061_1992)"/>
<path d="M27.9046 82.4521H28.8348L29.2483 81.6188L35.9717 68.0676H76.4902L83.2137 81.6188L83.6272 82.4521H84.5574H107.462H109.94L108.791 80.2567L69.0123 4.24008L68.5913 3.43555H67.6833H44.7787H43.8707L43.4497 4.24008L3.67097 80.2567L2.5221 82.4521H5H27.9046ZM44.8225 50.2405L56.3363 27.1216L67.7587 50.2405H44.8225Z" fill="#EEEFF3" stroke="#EEEFF3" stroke-width="3"/>
</svg>
