<svg width="1296" height="86" viewBox="0 0 1296 86" fill="none" xmlns="http://www.w3.org/2000/svg">
<path d="M1260.05 82.4521H1261.55V80.9521V22.9777H1292.36H1293.86V21.4777V4.93555V3.43555H1292.36H1207.27H1205.77V4.93555V21.4777V22.9777H1207.27H1238.02V80.9521V82.4521H1239.52H1260.05Z" fill="#EEEFF3" stroke="#EEEFF3" stroke-width="3"/>
<path d="M1170.35 82.0031L1170.79 82.4521H1171.42H1193.66H1195.16V80.9521V4.93555V3.43555H1193.66H1173.24H1171.74V4.93555V53.7071L1122.97 3.88625L1122.53 3.43555H1121.9H1099.61H1098.11V4.93555V80.9521V82.4521H1099.61H1120.13H1121.63V80.9521V32.3937L1170.35 82.0031Z" fill="#EEEFF3" stroke="#EEEFF3" stroke-width="3"/>
<path d="M1000.51 80.9521V82.4521H1002.01H1079.74H1081.24V80.9521V64.7419V63.2419H1079.74H1024.59V51.4148H1076.09H1077.59V49.9148V33.7046V32.2046H1076.09H1024.59V22.6458H1078.97H1080.47V21.1458V4.93555V3.43555H1078.97H1002.01H1000.51V4.93555V80.9521Z" fill="#EEEFF3" stroke="#EEEFF3" stroke-width="3"/>
<path d="M956.307 80.9521V82.4521H957.807H978.222H979.722V80.9521V4.93555V3.43555H978.222H950.449H949.549L949.126 4.22933L919.744 59.2876L890.362 4.22933L889.938 3.43555H889.038H861.155H859.655V4.93555V80.9521V82.4521H861.155H881.68H883.18V80.9521V33.612L908.57 81.653L908.992 82.4521H909.896H929.592H930.495L930.918 81.653L956.307 33.6119V80.9521Z" fill="#EEEFF3" stroke="#EEEFF3" stroke-width="3"/>
<path d="M762.061 80.9521V82.4521H763.561H841.293H842.793V80.9521V64.7419V63.2419H841.293H786.14V51.4148H837.642H839.142V49.9148V33.7046V32.2046H837.642H786.14V22.6458H840.518H842.018V21.1458V4.93555V3.43555H840.518H763.561H762.061V4.93555V80.9521Z" fill="#EEEFF3" stroke="#EEEFF3" stroke-width="3"/>
<path d="M737.78 26.3472C736.342 25.6464 734.442 24.8534 732.082 23.9682C729.721 23.083 727.047 22.2531 724.059 21.4786C721.072 20.6671 717.826 20.0032 714.322 19.4869C710.818 18.9336 707.222 18.657 703.534 18.657C700.583 18.657 698.057 18.7492 695.954 18.9336C693.889 19.118 692.137 19.3578 690.698 19.6528C689.297 19.9479 688.172 20.2983 687.324 20.704C686.512 21.0728 685.885 21.4601 685.443 21.8658C685 22.2716 684.705 22.6773 684.557 23.083C684.447 23.4887 684.391 23.8575 684.391 24.1895C684.391 25.296 684.945 26.2734 686.051 27.1217C687.158 27.9331 688.67 28.6708 690.588 29.3347C692.506 29.9617 694.737 30.5703 697.282 31.1604C699.827 31.7137 702.52 32.3038 705.36 32.9308C708.237 33.521 711.187 34.1849 714.212 34.9225C717.273 35.6233 720.224 36.4532 723.064 37.4122C725.941 38.3711 728.651 39.4961 731.196 40.787C733.741 42.041 735.973 43.5164 737.891 45.213C739.809 46.9096 741.321 48.8645 742.427 51.0775C743.534 53.2905 744.087 55.817 744.087 58.657C744.087 62.3084 743.442 65.4435 742.151 68.0622C740.86 70.681 739.126 72.894 736.95 74.7012C734.811 76.5085 732.321 77.9654 729.481 79.0719C726.641 80.1415 723.654 80.9714 720.519 81.5616C717.42 82.1517 714.267 82.539 711.058 82.7234C707.886 82.9078 704.862 83 701.985 83C694.461 83 687.49 82.373 681.072 81.1189C674.691 79.9018 669.048 78.3711 664.142 76.527V58.3804C669.195 61.1835 674.949 63.3781 681.404 64.964C687.895 66.55 694.829 67.343 702.206 67.343C706.558 67.343 710.099 67.1217 712.828 66.6791C715.595 66.1996 717.752 65.6095 719.302 64.9087C720.851 64.171 721.902 63.3781 722.455 62.5297C723.008 61.6814 723.285 60.87 723.285 60.0954C723.285 58.8783 722.732 57.8271 721.625 56.9419C720.519 56.0198 719.006 55.2268 717.089 54.5629C715.171 53.8622 712.939 53.2351 710.394 52.6819C707.849 52.0917 705.138 51.5201 702.261 50.9668C699.421 50.3767 696.489 49.7497 693.465 49.0858C690.44 48.4219 687.49 47.6473 684.613 46.7621C681.773 45.84 679.08 44.7888 676.535 43.6086C673.99 42.3914 671.759 40.9714 669.841 39.3485C667.923 37.6888 666.411 35.7893 665.304 33.6501C664.198 31.474 663.645 28.9659 663.645 26.1259C663.645 22.7695 664.235 19.8741 665.415 17.4398C666.595 15.0055 668.181 12.9401 670.173 11.2434C672.201 9.50991 674.525 8.10835 677.144 7.03873C679.799 5.96911 682.584 5.13923 685.498 4.5491C688.412 3.95897 691.362 3.55325 694.35 3.33195C697.337 3.11065 700.177 3 702.87 3C705.821 3 708.845 3.14753 711.943 3.4426C715.078 3.73767 718.158 4.16183 721.183 4.71508C724.207 5.23144 727.121 5.84002 729.924 6.5408C732.764 7.24159 735.383 7.97925 737.78 8.7538V26.3472Z" fill="#EEEFF3"/>
<path fill-rule="evenodd" clip-rule="evenodd" d="M740.78 31.1458L736.466 29.0441C735.147 28.4012 733.344 27.6457 731.028 26.7772C728.785 25.936 726.214 25.1363 723.307 24.3826L723.29 24.3782L723.273 24.3737C720.415 23.5975 717.288 22.9562 713.885 22.4548L713.87 22.4526L713.854 22.4501C710.511 21.9223 707.072 21.657 703.534 21.657C700.641 21.657 698.208 21.7476 696.219 21.9219C694.23 22.0996 692.6 22.3257 691.309 22.5901C690.037 22.8582 689.169 23.147 688.618 23.4104L688.592 23.423L688.565 23.4351C687.916 23.7302 687.596 23.9616 687.47 24.0773C687.44 24.1048 687.415 24.1291 687.394 24.1499C687.394 24.1576 687.393 24.1642 687.392 24.1697C687.391 24.1833 687.391 24.1897 687.391 24.1895C687.391 24.2167 687.392 24.2296 687.417 24.2746C687.453 24.3373 687.562 24.4959 687.853 24.7224C688.628 25.2852 689.822 25.8931 691.545 26.4913C693.349 27.08 695.477 27.6618 697.94 28.2333C700.476 28.7847 703.157 29.3724 705.985 29.9966C708.886 30.5921 711.859 31.261 714.902 32.003C718.047 32.7237 721.086 33.5783 724.018 34.5679C727.018 35.5684 729.86 36.746 732.538 38.1037C735.291 39.4615 737.745 41.0783 739.878 42.966C742.074 44.9081 743.826 47.1673 745.111 49.7358C746.454 52.4231 747.087 55.4203 747.087 58.657C747.087 62.6559 746.38 66.2671 744.842 69.3887C743.372 72.3689 741.383 74.9173 738.877 77.001C736.466 79.0359 733.687 80.6529 730.57 81.8673L730.555 81.8734L730.539 81.8794C727.529 83.013 724.374 83.8883 721.078 84.509C717.85 85.1237 714.568 85.5265 711.232 85.7183C708.008 85.9058 704.925 86 701.985 86C694.298 86 687.134 85.3598 680.503 84.0645C673.995 82.8227 668.183 81.2511 663.087 79.3351L661.142 78.6041V53.2854L665.598 55.757C670.386 58.4134 675.885 60.5187 682.119 62.0505C688.354 63.5735 695.046 64.343 702.206 64.343C706.469 64.343 709.827 64.1253 712.332 63.7204C714.961 63.264 716.823 62.7327 718.039 62.1872C719.375 61.5474 719.834 61.0566 719.942 60.8909C720.274 60.3825 720.285 60.1338 720.285 60.0954C720.285 59.9452 720.277 59.7053 719.751 59.2845L719.728 59.2658L719.705 59.2466C718.965 58.6304 717.812 57.988 716.107 57.3979L716.083 57.3895L716.059 57.3807C714.298 56.7374 712.203 56.1452 709.757 55.6134L709.737 55.609L709.717 55.6043C707.213 55.0237 704.539 54.4598 701.695 53.9128L701.673 53.9086L701.651 53.9041C698.799 53.3115 695.856 52.6821 692.822 52.016C689.719 51.3349 686.688 50.5396 683.73 49.6294L683.708 49.6226L683.686 49.6155C680.739 48.6586 677.934 47.5642 675.273 46.3301L675.257 46.3227L675.241 46.315C672.492 45.0005 670.039 43.4461 667.903 41.6387L667.89 41.628L667.878 41.6171C665.687 39.7213 663.93 37.524 662.64 35.0283L662.635 35.0191L662.63 35.0098C661.277 32.3486 660.645 29.3613 660.645 26.1259C660.645 22.4227 661.296 19.0594 662.715 16.131C664.07 13.3368 665.908 10.936 668.226 8.96118C670.511 7.00829 673.113 5.44448 676.009 4.26146L676.016 4.2587L676.023 4.25597C678.855 3.11534 681.816 2.23391 684.902 1.6088C687.941 0.993477 691.016 0.570678 694.128 0.340147C697.182 0.113983 700.096 0 702.87 0C705.92 0 709.039 0.152473 712.226 0.455943C715.439 0.758403 718.599 1.19321 721.705 1.76085C724.792 2.2883 727.773 2.91081 730.647 3.62926C733.543 4.34401 736.229 5.10013 738.702 5.89909L740.78 6.57035V31.1458ZM729.924 6.5408C727.121 5.84002 724.207 5.23144 721.183 4.71508C718.158 4.16183 715.078 3.73767 711.943 3.4426C708.845 3.14753 705.821 3 702.87 3C700.177 3 697.337 3.11065 694.35 3.33195C691.362 3.55325 688.412 3.95897 685.498 4.5491C682.584 5.13923 679.799 5.96911 677.144 7.03873C674.525 8.10835 672.201 9.50991 670.173 11.2434C668.181 12.9401 666.595 15.0055 665.415 17.4398C664.235 19.8741 663.645 22.7695 663.645 26.1259C663.645 28.9659 664.198 31.474 665.304 33.6501C666.411 35.7893 667.923 37.6888 669.841 39.3485C671.759 40.9714 673.99 42.3914 676.535 43.6086C679.08 44.7888 681.773 45.84 684.613 46.7621C687.49 47.6473 690.44 48.4219 693.465 49.0858C696.489 49.7497 699.421 50.3767 702.261 50.9668C705.138 51.5201 707.849 52.0917 710.394 52.6819C712.939 53.2351 715.171 53.8621 717.089 54.5629C719.006 55.2268 720.519 56.0198 721.625 56.9419C722.732 57.8271 723.285 58.8783 723.285 60.0954C723.285 60.87 723.008 61.6814 722.455 62.5297C721.902 63.3781 720.851 64.171 719.302 64.9087C717.752 65.6095 715.595 66.1996 712.828 66.6791C710.099 67.1217 706.558 67.343 702.206 67.343C694.829 67.343 687.895 66.55 681.404 64.964C676.193 63.6838 671.44 62.0069 667.142 59.9334C666.116 59.4384 665.116 58.9207 664.142 58.3804V76.527C669.048 78.3711 674.691 79.9018 681.072 81.1189C687.49 82.373 694.461 83 701.985 83C704.862 83 707.886 82.9078 711.058 82.7234C714.267 82.539 717.42 82.1517 720.519 81.5616C723.654 80.9714 726.641 80.1415 729.481 79.0719C732.321 77.9654 734.811 76.5085 736.95 74.7012C739.126 72.894 740.86 70.681 742.151 68.0622C743.442 65.4435 744.087 62.3084 744.087 58.657C744.087 55.817 743.534 53.2905 742.427 51.0775C741.321 48.8645 739.809 46.9096 737.891 45.213C735.973 43.5164 733.741 42.041 731.196 40.787C728.651 39.4961 725.941 38.3711 723.064 37.4122C720.224 36.4532 717.273 35.6233 714.212 34.9225C711.187 34.1849 708.237 33.521 705.36 32.9308C702.52 32.3038 699.827 31.7137 697.282 31.1604C694.737 30.5703 692.506 29.9617 690.588 29.3347C688.67 28.6708 687.158 27.9331 686.051 27.1217C684.945 26.2734 684.391 25.296 684.391 24.1895C684.391 23.8575 684.447 23.4887 684.557 23.083C684.705 22.6773 685 22.2716 685.443 21.8658C685.885 21.4601 686.512 21.0728 687.324 20.704C688.172 20.2983 689.297 19.9479 690.698 19.6528C692.137 19.3578 693.889 19.118 695.954 18.9336C698.057 18.7492 700.583 18.657 703.534 18.657C707.222 18.657 710.818 18.9336 714.322 19.4869C717.826 20.0032 721.072 20.6671 724.059 21.4786C727.047 22.2531 729.721 23.083 732.082 23.9682C733.06 24.3352 733.96 24.6864 734.78 25.0217C735.938 25.4951 736.938 25.937 737.78 26.3472V8.7538C735.383 7.97925 732.764 7.24159 729.924 6.5408Z" fill="#EEEFF3"/>
<path d="M621.868 80.9521V82.4521H623.368H643.894H645.394V80.9521V4.93555V3.43555H643.894H623.368H621.868V4.93555V80.9521Z" fill="#EEEFF3" stroke="#EEEFF3" stroke-width="3"/>
<path d="M577.448 82.4521H578.948V80.9521V22.9777H609.758H611.258V21.4777V4.93555V3.43555H609.758H524.668H523.168V4.93555V21.4777V22.9777H524.668H555.422V80.9521V82.4521H556.922H577.448Z" fill="#EEEFF3" stroke="#EEEFF3" stroke-width="3"/>
<path d="M450.698 82.4521H452.198V80.9521V54.4577H472.396L494.961 81.9047L495.412 82.4521H496.12H520.131H523.322L521.286 79.995L497.733 51.5738C499.348 50.9144 500.906 50.1481 502.407 49.2749C504.567 48.0181 506.462 46.4806 508.082 44.6626C509.767 42.7776 511.075 40.5483 512.019 37.9957C513.019 35.3918 513.498 32.402 513.498 29.0573C513.498 25.2582 512.923 21.7785 511.747 18.6377C510.589 15.4096 508.69 12.6538 506.068 10.388C503.471 8.11168 500.129 6.40104 496.104 5.21261C492.088 4.0157 487.251 3.43555 481.625 3.43555H430.173H428.673V4.93555V80.9521V82.4521H430.173H450.698ZM489.23 25.689L489.238 25.7111L489.247 25.733C489.565 26.5438 489.752 27.6006 489.752 28.9466C489.752 30.2926 489.565 31.3494 489.247 32.1602L489.238 32.1821L489.23 32.2042C488.976 32.9168 488.523 33.5138 487.814 34.009C487.079 34.4847 486.004 34.8893 484.51 35.161L484.504 35.1621C483.041 35.4344 481.149 35.5794 478.803 35.5794H452.198V22.3138H478.803C481.149 22.3138 483.041 22.4589 484.504 22.7311L484.51 22.7322C486.004 23.0038 487.071 23.4253 487.797 23.9282L487.814 23.9395L487.83 23.9503C488.529 24.4069 488.977 24.9789 489.23 25.689Z" fill="#EEEFF3" stroke="#EEEFF3" stroke-width="3"/>
<path d="M331.079 80.9521V82.4521H332.579H410.311H411.811V80.9521V64.7419V63.2419H410.311H355.158V51.4148H406.66H408.16V49.9148V33.7046V32.2046H406.66H355.158V22.6458H409.537H411.037V21.1458V4.93555V3.43555H409.537H332.579H331.079V4.93555V80.9521Z" fill="#EEEFF3" stroke="#EEEFF3" stroke-width="3"/>
<path d="M281.348 82.4521H282.268L282.685 81.6331L321.412 5.61646L322.523 3.43555H320.076H297.171H296.23L295.82 4.28361L269.563 58.6932L243.252 4.28255L242.842 3.43555H241.902H218.997H216.557L217.658 5.61259L256.109 81.6292L256.526 82.4521H257.448H281.348Z" fill="#EEEFF3" stroke="#EEEFF3" stroke-width="3"/>
<mask id="path-13-outside-1_1089_2458" maskUnits="userSpaceOnUse" x="116.91" y="1.93555" width="100" height="83" fill="black">
<rect fill="white" x="116.91" y="1.93555" width="100" height="83"/>
<path d="M213.022 42.8885C213.022 47.7571 212.487 52.0909 211.418 55.8899C210.348 59.652 208.836 62.9346 206.881 65.7378C204.963 68.5409 202.64 70.9199 199.91 72.8747C197.218 74.8295 194.212 76.3971 190.892 77.5773C187.573 78.7576 183.995 79.6243 180.159 80.1776C176.323 80.694 172.321 80.9521 168.154 80.9521H119.91V4.93555H168.043C172.211 4.93555 176.213 5.21217 180.048 5.76542C183.884 6.28179 187.462 7.13011 190.782 8.31037C194.138 9.49064 197.181 11.0582 199.91 13.013C202.64 14.9309 204.963 17.3099 206.881 20.1499C208.836 22.9531 210.348 26.2357 211.418 29.9978C212.487 33.7599 213.022 38.0568 213.022 42.8885ZM192.331 42.8885C192.331 39.2371 191.851 36.0651 190.892 33.3726C189.97 30.6801 188.458 28.4671 186.356 26.7336C184.29 24.9632 181.579 23.6539 178.223 22.8055C174.866 21.9203 170.772 21.4777 165.941 21.4777H140.436V64.41H165.941C170.772 64.41 174.866 63.9858 178.223 63.1375C181.579 62.2523 184.29 60.9245 186.356 59.1541C188.458 57.3468 189.97 55.0969 190.892 52.4044C191.851 49.7119 192.331 46.54 192.331 42.8885Z"/>
</mask>
<path d="M213.022 42.8885C213.022 47.7571 212.487 52.0909 211.418 55.8899C210.348 59.652 208.836 62.9346 206.881 65.7378C204.963 68.5409 202.64 70.9199 199.91 72.8747C197.218 74.8295 194.212 76.3971 190.892 77.5773C187.573 78.7576 183.995 79.6243 180.159 80.1776C176.323 80.694 172.321 80.9521 168.154 80.9521H119.91V4.93555H168.043C172.211 4.93555 176.213 5.21217 180.048 5.76542C183.884 6.28179 187.462 7.13011 190.782 8.31037C194.138 9.49064 197.181 11.0582 199.91 13.013C202.64 14.9309 204.963 17.3099 206.881 20.1499C208.836 22.9531 210.348 26.2357 211.418 29.9978C212.487 33.7599 213.022 38.0568 213.022 42.8885ZM192.331 42.8885C192.331 39.2371 191.851 36.0651 190.892 33.3726C189.97 30.6801 188.458 28.4671 186.356 26.7336C184.29 24.9632 181.579 23.6539 178.223 22.8055C174.866 21.9203 170.772 21.4777 165.941 21.4777H140.436V64.41H165.941C170.772 64.41 174.866 63.9858 178.223 63.1375C181.579 62.2523 184.29 60.9245 186.356 59.1541C188.458 57.3468 189.97 55.0969 190.892 52.4044C191.851 49.7119 192.331 46.54 192.331 42.8885Z" fill="#EEEFF3"/>
<path d="M211.418 55.8899L214.303 56.7103L214.305 56.703L211.418 55.8899ZM206.881 65.7378L204.42 64.0217L204.413 64.0327L204.405 64.0437L206.881 65.7378ZM199.91 72.8747L198.163 70.4357L198.155 70.4414L198.148 70.447L199.91 72.8747ZM180.159 80.1776L180.559 83.1508L180.573 83.1489L180.587 83.1469L180.159 80.1776ZM119.91 80.9521H116.91V83.9521H119.91V80.9521ZM119.91 4.93555V1.93555H116.91V4.93555H119.91ZM180.048 5.76542L179.62 8.7347L179.634 8.73672L179.648 8.7386L180.048 5.76542ZM190.782 8.31037L189.776 11.137L189.786 11.1405L190.782 8.31037ZM199.91 13.013L198.163 15.452L198.174 15.4598L198.185 15.4676L199.91 13.013ZM206.881 20.1499L204.395 21.8289L204.408 21.8475L204.42 21.866L206.881 20.1499ZM190.892 33.3726L188.054 34.3446L188.06 34.3619L188.066 34.3792L190.892 33.3726ZM186.356 26.7336L184.403 29.0114L184.425 29.03L184.447 29.0482L186.356 26.7336ZM178.223 22.8055L177.458 25.7063L177.473 25.7103L177.488 25.7141L178.223 22.8055ZM140.436 21.4777V18.4777H137.436V21.4777H140.436ZM140.436 64.41H137.436V67.41H140.436V64.41ZM178.223 63.1375L178.958 66.046L178.973 66.0422L178.988 66.0383L178.223 63.1375ZM186.356 59.1541L188.308 61.4319L188.311 61.429L186.356 59.1541ZM190.892 52.4044L188.066 51.3979L188.06 51.4151L188.054 51.4324L190.892 52.4044ZM210.022 42.8885C210.022 47.5436 209.51 51.5957 208.53 55.0769L214.305 56.703C215.465 52.5862 216.022 47.9706 216.022 42.8885H210.022ZM208.532 55.0695C207.541 58.5571 206.16 61.5278 204.42 64.0217L209.342 67.4538C211.512 64.3415 213.156 60.747 214.303 56.7103L208.532 55.0695ZM204.405 64.0437C202.683 66.5613 200.605 68.6872 198.163 70.4357L201.657 75.3137C204.674 73.1526 207.244 70.5204 209.357 67.4318L204.405 64.0437ZM198.148 70.447C195.701 72.2237 192.952 73.6608 189.887 74.7507L191.897 80.404C195.471 79.1333 198.735 77.4353 201.673 75.3023L198.148 70.447ZM189.887 74.7507C186.772 75.8582 183.39 76.6806 179.731 77.2083L180.587 83.1469C184.6 82.5681 188.373 81.657 191.897 80.404L189.887 74.7507ZM179.759 77.2044C176.065 77.7016 172.198 77.9521 168.154 77.9521V83.9521C172.445 83.9521 176.581 83.6863 180.559 83.1508L179.759 77.2044ZM168.154 77.9521H119.91V83.9521H168.154V77.9521ZM122.91 80.9521V4.93555H116.91V80.9521H122.91ZM119.91 7.93555H168.043V1.93555H119.91V7.93555ZM168.043 7.93555C172.078 7.93555 175.936 8.20337 179.62 8.7347L180.477 2.79615C176.489 2.22097 172.343 1.93555 168.043 1.93555V7.93555ZM179.648 8.7386C183.298 9.22991 186.671 10.0329 189.776 11.137L191.787 5.48373C188.253 4.22734 184.471 3.33367 180.449 2.79224L179.648 8.7386ZM189.786 11.1405C192.891 12.2322 195.678 13.672 198.163 15.452L201.657 10.574C198.683 8.44433 195.385 6.74906 191.777 5.48026L189.786 11.1405ZM198.185 15.4676C200.608 17.1697 202.676 19.2832 204.395 21.8289L209.367 18.471C207.251 15.3366 204.671 12.6922 201.635 10.5584L198.185 15.4676ZM204.42 21.866C206.16 24.3599 207.541 27.3306 208.532 30.8182L214.303 29.1774C213.156 25.1407 211.512 21.5462 209.342 18.4339L204.42 21.866ZM208.532 30.8182C209.511 34.2594 210.022 38.2719 210.022 42.8885H216.022C216.022 37.8417 215.464 33.2603 214.303 29.1774L208.532 30.8182ZM195.331 42.8885C195.331 38.9847 194.819 35.4572 193.718 32.3661L188.066 34.3792C188.883 36.673 189.331 39.4894 189.331 42.8885H195.331ZM193.73 32.4006C192.637 29.2077 190.814 26.5216 188.264 24.419L184.447 29.0482C186.102 30.4127 187.303 32.1526 188.054 34.3446L193.73 32.4006ZM188.308 24.4558C185.808 22.3133 182.644 20.8288 178.958 19.897L177.488 25.7141C180.514 26.4789 182.772 27.6131 184.403 29.0114L188.308 24.4558ZM178.988 19.9047C175.306 18.9336 170.938 18.4777 165.941 18.4777V24.4777C170.607 24.4777 174.427 24.9071 177.458 25.7063L178.988 19.9047ZM165.941 18.4777H140.436V24.4777H165.941V18.4777ZM137.436 21.4777V64.41H143.436V21.4777H137.436ZM140.436 67.41H165.941V61.41H140.436V67.41ZM165.941 67.41C170.931 67.41 175.288 66.9737 178.958 66.046L177.488 60.2289C174.445 60.9979 170.614 61.41 165.941 61.41V67.41ZM178.988 66.0383C182.665 65.0685 185.817 63.5666 188.308 61.4319L184.403 56.8763C182.763 58.2824 180.493 59.4361 177.458 60.2367L178.988 66.0383ZM188.311 61.429C190.83 59.2641 192.64 56.56 193.73 53.3764L188.054 51.4324C187.3 53.6339 186.086 55.4295 184.4 56.8791L188.311 61.429ZM193.718 53.411C194.819 50.3198 195.331 46.7923 195.331 42.8885H189.331C189.331 46.2876 188.883 49.1041 188.066 51.3979L193.718 53.411Z" fill="#EEEFF3" mask="url(#path-13-outside-1_1089_2458)"/>
<path d="M27.9046 82.4521H28.8348L29.2483 81.6188L35.9717 68.0676H76.4902L83.2137 81.6188L83.6272 82.4521H84.5574H107.462H109.94L108.791 80.2567L69.0123 4.24008L68.5913 3.43555H67.6833H44.7787H43.8707L43.4497 4.24008L3.67097 80.2567L2.5221 82.4521H5H27.9046ZM44.8225 50.2405L56.3363 27.1216L67.7587 50.2405H44.8225Z" fill="#EEEFF3" stroke="#EEEFF3" stroke-width="3"/>
</svg>
