<svg width="327" height="128" viewBox="0 0 327 128" fill="none" xmlns="http://www.w3.org/2000/svg">
<path d="M324.625 26.8753C324.625 30.881 323.89 34.4227 322.418 37.5006C320.947 40.5557 318.843 43.113 316.104 45.1725C313.366 47.2319 310.039 48.7934 306.124 49.8571C302.232 50.8981 297.853 51.4186 292.987 51.4186C288.121 51.4186 283.72 50.8981 279.782 49.8571C275.867 48.7934 272.529 47.2319 269.768 45.1725C267.007 43.113 264.879 40.5557 263.386 37.5006C261.892 34.4227 261.145 30.881 261.145 26.8753C261.145 22.8696 261.892 19.3392 263.386 16.284C264.879 13.2062 267.007 10.6376 269.768 8.57818C272.529 6.51876 275.867 4.96854 279.782 3.92751C283.72 2.86386 288.121 2.33203 292.987 2.33203C297.853 2.33203 302.232 2.86386 306.124 3.92751C310.039 4.96854 313.366 6.51876 316.104 8.57818C318.843 10.6376 320.947 13.2062 322.418 16.284C323.89 19.3392 324.625 22.8696 324.625 26.8753ZM311.895 26.8753C311.895 25.1327 311.612 23.4015 311.046 21.6815C310.503 19.9389 309.519 18.3774 308.093 16.9969C306.69 15.6164 304.766 14.4962 302.322 13.6362C299.878 12.7762 296.766 12.3462 292.987 12.3462C290.452 12.3462 288.223 12.5499 286.299 12.9573C284.376 13.342 282.712 13.8851 281.309 14.5867C279.906 15.2883 278.729 16.1143 277.779 17.0648C276.828 17.9927 276.07 18.9997 275.504 20.086C274.939 21.1497 274.531 22.2699 274.282 23.4467C274.056 24.6009 273.943 25.7438 273.943 26.8753C273.943 28.0295 274.056 29.195 274.282 30.3718C274.531 31.5486 274.939 32.6802 275.504 33.7665C276.07 34.8301 276.828 35.8259 277.779 36.7537C278.729 37.6816 279.906 38.4963 281.309 39.1979C282.712 39.8768 284.376 40.42 286.299 40.8273C288.223 41.212 290.452 41.4044 292.987 41.4044C296.766 41.4044 299.878 40.9744 302.322 40.1144C304.766 39.2545 306.69 38.1342 308.093 36.7537C309.519 35.3732 310.503 33.823 311.046 32.1031C311.612 30.3605 311.895 28.6179 311.895 26.8753Z" fill="#EEEFF3"/>
<path d="M226.01 2.33203C230.582 2.33203 234.825 2.72807 238.74 3.52016C242.678 4.28961 246.288 5.28537 249.569 6.50745V17.9135C248.279 17.1893 246.819 16.4877 245.19 15.8088C243.583 15.1298 241.829 14.5301 239.928 14.0096C238.027 13.4891 235.99 13.0704 233.818 12.7536C231.645 12.4368 229.36 12.2783 226.961 12.2783C223.973 12.2783 221.371 12.4933 219.153 12.9233C216.935 13.3533 215.034 13.9304 213.45 14.6546C211.866 15.3788 210.565 16.2274 209.546 17.2006C208.528 18.1511 207.724 19.1695 207.136 20.2558C206.548 21.342 206.14 22.451 205.914 23.5825C205.688 24.7141 205.574 25.8117 205.574 26.8753C205.574 27.8032 205.665 28.8103 205.846 29.8966C206.05 30.9828 206.412 32.0691 206.932 33.1554C207.475 34.2417 208.222 35.2827 209.173 36.2785C210.123 37.2743 211.357 38.1569 212.873 38.9263C214.412 39.6958 216.256 40.3181 218.406 40.7934C220.556 41.246 223.113 41.4723 226.078 41.4723C227.572 41.4723 228.873 41.427 229.982 41.3365C231.091 41.246 232.098 41.1215 233.003 40.9631C233.931 40.8047 234.791 40.6123 235.583 40.386C236.398 40.1597 237.235 39.9221 238.095 39.6731V34.038H223.973V23.8201H250.689V47.6506C249.015 48.2163 247.136 48.7368 245.054 49.2121C242.995 49.6647 240.856 50.0494 238.638 50.3663C236.443 50.7057 234.237 50.966 232.019 51.147C229.801 51.3281 227.707 51.4186 225.739 51.4186C222.683 51.4186 219.753 51.2149 216.946 50.8076C214.14 50.4002 211.515 49.7779 209.071 48.9405C206.649 48.0805 204.432 46.9943 202.417 45.6817C200.426 44.3691 198.717 42.8075 197.291 40.997C195.888 39.1866 194.791 37.1158 193.999 34.7848C193.229 32.4312 192.844 29.7947 192.844 26.8753C192.844 23.9786 193.252 21.3534 194.067 18.9997C194.881 16.6461 196.013 14.5641 197.461 12.7536C198.932 10.9431 200.686 9.38158 202.723 8.06898C204.782 6.75639 207.034 5.68142 209.478 4.84407C211.945 3.98409 214.57 3.35043 217.354 2.94307C220.16 2.53571 223.046 2.33203 226.01 2.33203Z" fill="#EEEFF3"/>
<path d="M144.673 50.1629H132.079V3.52051H163.65C167.044 3.52051 169.918 3.87129 172.272 4.57285C174.648 5.27441 176.572 6.27017 178.043 7.56014C179.536 8.8501 180.611 10.4116 181.268 12.2447C181.947 14.0552 182.286 16.0807 182.286 18.3212C182.286 20.2901 182.003 22.01 181.437 23.481C180.894 24.952 180.148 26.2194 179.197 27.283C178.269 28.3241 177.183 29.2067 175.938 29.9309C174.693 30.655 173.381 31.2548 172 31.73L187.276 50.1629H172.544L158.422 32.986H144.673V50.1629ZM169.556 18.2533C169.556 17.348 169.432 16.5786 169.183 15.9449C168.957 15.3112 168.549 14.802 167.961 14.4173C167.372 14.01 166.58 13.7158 165.584 13.5347C164.611 13.3537 163.389 13.2631 161.918 13.2631H144.673V23.2434H161.918C163.389 23.2434 164.611 23.1529 165.584 22.9718C166.58 22.7908 167.372 22.5079 167.961 22.1232C168.549 21.7158 168.957 21.1953 169.183 20.5616C169.432 19.928 169.556 19.1585 169.556 18.2533Z" fill="#EEEFF3"/>
<path d="M106.005 41.3369H80.0019L75.6228 50.1629H61.569L85.9765 3.52051H100.03L124.438 50.1629H110.384L106.005 41.3369ZM84.5168 32.2392H101.558L93.0713 15.0623L84.5168 32.2392Z" fill="#EEEFF3"/>
<path d="M56.4477 46.9716C54.8183 47.6506 53.1775 48.2616 51.5255 48.8047C49.8734 49.3479 48.1648 49.8118 46.3995 50.1965C44.6343 50.6039 42.7673 50.9094 40.7984 51.1131C38.8521 51.3168 36.7588 51.4186 34.5183 51.4186C29.7658 51.4186 25.3867 50.9094 21.381 49.891C17.398 48.8726 13.958 47.345 11.0613 45.3082C8.18715 43.2488 5.94668 40.6915 4.33989 37.6363C2.73309 34.5585 1.92969 30.9715 1.92969 26.8753C1.92969 22.7791 2.73309 19.2034 4.33989 16.1482C5.94668 13.0704 8.18715 10.5131 11.0613 8.47634C13.958 6.41692 17.398 4.87802 21.381 3.85962C25.3867 2.84123 29.7658 2.33203 34.5183 2.33203C36.7588 2.33203 38.8521 2.43387 40.7984 2.63755C42.7673 2.84123 44.6343 3.14675 46.3995 3.5541C48.1648 3.93883 49.8734 4.40277 51.5255 4.94591C53.1775 5.48905 54.8183 6.10009 56.4477 6.77902V18.1171C55.1577 17.4156 53.7999 16.7253 52.3741 16.0464C50.9484 15.3448 49.3755 14.7225 47.6556 14.1793C45.9356 13.6136 44.0459 13.161 41.9865 12.8215C39.9271 12.4594 37.6074 12.2783 35.0275 12.2783C31.0671 12.2783 27.7743 12.6857 25.1491 13.5004C22.5465 14.3151 20.4645 15.4014 18.9029 16.7593C17.3414 18.1171 16.2438 19.6787 15.6101 21.4439C14.9764 23.1865 14.6596 24.9969 14.6596 26.8753C14.6596 28.12 14.7954 29.3534 15.067 30.5755C15.3385 31.7749 15.7912 32.9178 16.4248 34.0041C17.0585 35.0677 17.8845 36.0522 18.9029 36.9574C19.9213 37.8627 21.1886 38.6434 22.7049 39.2997C24.2212 39.956 25.9864 40.4765 28.0006 40.8613C30.0374 41.2234 32.3797 41.4044 35.0275 41.4044C37.6074 41.4044 39.9271 41.246 41.9865 40.9292C44.0459 40.5897 45.9356 40.1484 47.6556 39.6052C49.3755 39.0621 50.9484 38.4511 52.3741 37.7721C53.7999 37.0706 55.1577 36.3577 56.4477 35.6335V46.9716Z" fill="#EEEFF3"/>
<path fill-rule="evenodd" clip-rule="evenodd" d="M324.162 38.3329L324.16 38.3379C322.553 41.6742 320.249 44.4725 317.267 46.7154C314.3 48.9466 310.741 50.6039 306.632 51.7202L306.625 51.7222C302.54 52.8147 297.989 53.3493 292.988 53.3493C287.987 53.3493 283.416 52.8146 279.29 51.7236L279.277 51.7203C275.168 50.6041 271.601 48.9477 268.614 46.72C265.61 44.4793 263.282 41.6833 261.652 38.3483L261.65 38.3432C260.008 34.9614 259.215 31.123 259.215 26.8749C259.215 22.6272 260.008 18.7977 261.652 15.4354C263.282 12.0796 265.609 9.27161 268.614 7.02973C271.603 4.80031 275.173 3.15484 279.284 2.06154C283.413 0.946753 287.986 0.400391 292.988 0.400391C297.989 0.400391 302.541 0.946422 306.628 2.06235C310.738 3.15582 314.298 4.80199 317.267 7.03431C320.252 9.27953 322.557 12.0915 324.162 15.4508C325.778 18.8094 326.558 22.6334 326.558 26.8749C326.558 31.1189 325.777 34.9535 324.162 38.3329ZM322.42 16.2836C320.949 13.2057 318.844 10.6371 316.106 8.57771C313.367 6.5183 310.041 4.96808 306.126 3.92705C302.233 2.86339 297.854 2.33157 292.988 2.33157C288.123 2.33157 283.721 2.86339 279.783 3.92705C275.868 4.96808 272.53 6.5183 269.769 8.57771C267.008 10.6371 264.881 13.2057 263.387 16.2836C261.893 19.3387 261.147 22.8692 261.147 26.8749C261.147 30.8805 261.893 34.4223 263.387 37.5001C264.881 40.5553 267.008 43.1126 269.769 45.172C272.53 47.2314 275.868 48.7929 279.783 49.8566C283.721 50.8976 288.123 51.4181 292.988 51.4181C297.854 51.4181 302.233 50.8976 306.126 49.8566C310.041 48.7929 313.367 47.2314 316.106 45.172C318.844 43.1126 320.949 40.5553 322.42 37.5001C323.891 34.4223 324.626 30.8805 324.626 26.8749C324.626 22.8692 323.891 19.3387 322.42 16.2836ZM309.209 22.2701L309.204 22.2557C308.765 20.8481 307.965 19.5597 306.751 18.3838L306.746 18.3785L306.74 18.373C305.593 17.244 303.94 16.2517 301.683 15.4574C299.516 14.695 296.64 14.2769 292.988 14.2769C290.552 14.2769 288.462 14.4732 286.701 14.8461L286.69 14.8483L286.68 14.8505C284.884 15.2096 283.391 15.7051 282.174 16.3135C280.927 16.9374 279.927 17.6483 279.146 18.4299L279.138 18.4381L279.129 18.4462C278.313 19.2432 277.682 20.0876 277.219 20.9776L277.215 20.9851L277.211 20.9925C276.732 21.8927 276.388 22.8377 276.176 23.8325C275.975 24.864 275.875 25.8776 275.875 26.8749C275.875 27.8964 275.975 28.934 276.177 29.9893C276.389 30.9827 276.733 31.9407 277.215 32.8668C277.678 33.7349 278.309 34.5708 279.129 35.3714C279.911 36.1348 280.913 36.838 282.163 37.4645C283.39 38.057 284.892 38.5537 286.69 38.9353C288.457 39.2877 290.551 39.4728 292.988 39.4728C296.64 39.4728 299.516 39.0548 301.683 38.2923C303.94 37.498 305.593 36.5057 306.74 35.3767L306.746 35.3713L306.751 35.3659C307.97 34.1856 308.769 32.9053 309.206 31.5211L309.209 31.5137L309.211 31.5062C309.717 29.9463 309.965 28.4047 309.965 26.8749C309.965 25.3452 309.718 23.8174 309.213 22.2845L309.209 22.2701ZM286.301 40.8268C284.377 40.4195 282.714 39.8763 281.311 39.1974C279.908 38.4959 278.731 37.6811 277.78 36.7533C276.83 35.8254 276.072 34.8296 275.506 33.766C274.94 32.6797 274.533 31.5482 274.284 30.3713C274.057 29.1945 273.944 28.029 273.944 26.8749C273.944 25.7433 274.057 24.6004 274.284 23.4463C274.533 22.2695 274.94 21.1492 275.506 20.0856C276.072 18.9993 276.83 17.9922 277.78 17.0643C278.731 16.1138 279.908 15.2878 281.311 14.5862C282.714 13.8847 284.377 13.3415 286.301 12.9568C288.224 12.5495 290.454 12.3458 292.988 12.3458C296.768 12.3458 299.879 12.7758 302.324 13.6357C304.768 14.4957 306.691 15.6159 308.094 16.9964C309.52 18.3769 310.505 19.9385 311.048 21.681C311.614 23.401 311.896 25.1323 311.896 26.8749C311.896 28.6174 311.614 30.36 311.048 32.1026C310.505 33.8226 309.52 35.3728 308.094 36.7533C306.691 38.1338 304.768 39.254 302.324 40.114C299.879 40.9739 296.768 41.4039 292.988 41.4039C290.454 41.4039 288.224 41.2116 286.301 40.8268Z" fill="#EEEFF3"/>
<path fill-rule="evenodd" clip-rule="evenodd" d="M247.639 16.907C246.871 16.5344 246.055 16.1682 245.191 15.8083C243.584 15.1294 241.831 14.5297 239.93 14.0091C238.029 13.4886 235.992 13.07 233.819 12.7531C231.647 12.4363 229.361 12.2779 226.962 12.2779C223.975 12.2779 221.372 12.4929 219.154 12.9229C216.937 13.3528 215.036 13.9299 213.451 14.6541C211.867 15.3783 210.566 16.227 209.548 17.2001C208.529 18.1506 207.726 19.169 207.137 20.2553C206.549 21.3416 206.142 22.4505 205.915 23.582C205.689 24.7136 205.576 25.8112 205.576 26.8749C205.576 27.8027 205.666 28.8098 205.847 29.8961C206.051 30.9824 206.413 32.0687 206.934 33.1549C207.477 34.2412 208.224 35.2823 209.174 36.278C210.125 37.2738 211.358 38.1564 212.874 38.9258C214.413 39.6953 216.258 40.3176 218.408 40.7929C220.557 41.2455 223.115 41.4718 226.079 41.4718C227.573 41.4718 228.874 41.4266 229.983 41.336C231.092 41.2455 232.099 41.1211 233.005 40.9626C233.932 40.8042 234.792 40.6119 235.584 40.3855C236.399 40.1592 237.236 39.9216 238.096 39.6727V34.0376H223.975V23.8197H250.691V47.6501C249.016 48.2159 247.138 48.7364 245.056 49.2116C242.996 49.6642 240.857 50.049 238.64 50.3658C236.444 50.7053 234.238 50.9655 232.02 51.1466C229.802 51.3276 227.709 51.4181 225.74 51.4181C222.685 51.4181 219.754 51.2145 216.948 50.8071C214.142 50.3997 211.516 49.7774 209.072 48.9401C206.651 48.0801 204.433 46.9938 202.419 45.6812C200.427 44.3686 198.719 42.8071 197.293 40.9966C195.89 39.1861 194.792 37.1154 194 34.7844C193.231 32.4308 192.846 29.7943 192.846 26.8749C192.846 23.9781 193.253 21.3529 194.068 18.9993C194.883 16.6457 196.014 14.5636 197.463 12.7531C198.934 10.9427 200.687 9.38111 202.724 8.06852C204.784 6.75592 207.035 5.68095 209.48 4.8436C211.946 3.98363 214.572 3.34996 217.355 2.9426C220.161 2.53525 223.047 2.33157 226.012 2.33157C230.583 2.33157 234.826 2.72761 238.741 3.51969C242.679 4.28915 246.289 5.28491 249.57 6.50698V17.913C248.964 17.5726 248.32 17.2373 247.639 16.907ZM239.118 1.62565C235.062 0.805534 230.691 0.400391 226.012 0.400391C222.958 0.400391 219.98 0.610175 217.078 1.03146L217.076 1.03178C214.182 1.45527 211.438 2.11603 208.848 3.01846C206.27 3.90227 203.88 5.04151 201.686 6.43998L201.678 6.44523C199.477 7.86394 197.568 9.56058 195.964 11.5353L195.959 11.541L195.955 11.5467C194.359 13.5417 193.124 15.8212 192.243 18.3676C191.348 20.9545 190.915 23.7974 190.915 26.8749C190.915 29.9626 191.321 32.806 192.164 35.3845L192.168 35.3951L192.172 35.4057C193.027 37.9242 194.223 40.1877 195.766 42.1796L195.771 42.1855L195.776 42.1914C197.334 44.1702 199.198 45.8711 201.356 47.2937L201.364 47.2991C203.515 48.7004 205.871 49.8524 208.426 50.7599L208.436 50.7635L208.446 50.767C211.014 51.6467 213.757 52.2953 216.67 52.7183C219.575 53.1399 222.599 53.3493 225.74 53.3493C227.768 53.3493 229.914 53.2561 232.177 53.0713C234.438 52.8868 236.687 52.6217 238.924 52.2759C241.182 51.953 243.365 51.5605 245.47 51.0978L245.478 51.0961L245.485 51.0944C247.618 50.6075 249.561 50.0701 251.309 49.4797L252.622 49.0361V21.8885H222.044V35.9687H236.165V38.2169C235.795 38.3218 235.429 38.4245 235.068 38.5248L235.061 38.5267L235.054 38.5287C234.338 38.7332 233.548 38.9108 232.679 39.059L232.672 39.0604C231.835 39.2067 230.888 39.3246 229.826 39.4113C228.784 39.4964 227.537 39.5407 226.079 39.5407C223.21 39.5407 220.796 39.3213 218.815 38.9052C216.786 38.4561 215.105 37.8811 213.744 37.2014C212.381 36.5092 211.339 35.749 210.571 34.9446C209.741 34.0746 209.114 33.1938 208.668 32.3059C208.221 31.3698 207.919 30.4549 207.749 29.5591C207.585 28.5668 207.507 27.6736 207.507 26.8749C207.507 25.9486 207.605 24.9781 207.809 23.9608C207.995 23.0312 208.332 22.1038 208.835 21.1751C209.313 20.294 209.98 19.438 210.865 18.6119L210.873 18.6042L210.882 18.5963C211.712 17.8025 212.821 17.0655 214.254 16.4105C215.665 15.7654 217.412 15.2277 219.522 14.8187C221.587 14.4183 224.061 14.2091 226.962 14.2091C229.276 14.2091 231.468 14.3619 233.541 14.6641C235.644 14.9708 237.603 15.3743 239.42 15.8718C241.249 16.3726 242.921 16.9454 244.44 17.5872L244.449 17.5909C246.021 18.2463 247.412 18.9158 248.625 19.5969L251.502 21.2119V5.16543L250.244 4.69723C246.853 3.43424 243.142 2.41228 239.118 1.62565Z" fill="#EEEFF3"/>
<path fill-rule="evenodd" clip-rule="evenodd" d="M110.392 50.1625L106.013 41.3364H80.0099L75.6308 50.1625H61.577L85.9845 3.52004H100.038L124.446 50.1625H110.392ZM81.2076 43.2676L76.8285 52.0937H58.3868L84.8155 1.58887H101.207L127.636 52.0937H109.194L104.815 43.2676H81.2076ZM101.566 32.2387L93.0793 15.0618L84.5248 32.2387H101.566ZM87.644 30.3076H98.4578L93.0724 19.4076L87.644 30.3076Z" fill="#EEEFF3"/>
<path fill-rule="evenodd" clip-rule="evenodd" d="M58.3804 48.2586L57.1919 48.7538C55.5174 49.4515 53.8301 50.0799 52.1301 50.6388C50.4163 51.2023 48.6474 51.6826 46.824 52.0804C44.9785 52.5058 43.0368 52.8226 41.0009 53.0333C38.9791 53.2449 36.818 53.3493 34.5198 53.3493C29.6302 53.3493 25.089 52.8255 20.9067 51.7622L20.9041 51.7615C16.7303 50.6944 13.0683 49.0787 9.95201 46.8875L9.94496 46.8826L9.93796 46.8776C6.82562 44.6475 4.38237 41.8626 2.63217 38.5348L2.62944 38.5296C0.85482 35.1303 0 31.2264 0 26.8749C0 22.5249 0.854223 18.6307 2.63076 15.2515C4.38099 11.8999 6.82632 9.11142 9.94498 6.90108C13.0627 4.68479 16.7272 3.05614 20.9041 1.98817L20.9067 1.98752C25.089 0.924207 29.6302 0.400391 34.5198 0.400391C36.8176 0.400391 38.9783 0.504779 40.9998 0.716281C43.036 0.926973 44.9779 1.24385 46.8237 1.66925C48.6472 2.06707 50.4162 2.5474 52.1301 3.11087C53.8301 3.66976 55.5174 4.29818 57.1919 4.99593L58.3804 5.4911V21.3653L55.5265 19.8132C54.2691 19.1293 52.9422 18.4547 51.5453 17.7895L51.5341 17.7842L51.523 17.7787C50.1955 17.1255 48.7147 16.538 47.0755 16.0204L47.0645 16.017L47.0536 16.0134C45.4411 15.4829 43.6497 15.0522 41.6739 14.7265L41.6637 14.7248L41.6536 14.723C39.7266 14.3842 37.5216 14.2091 35.029 14.2091C31.1859 14.2091 28.1025 14.6062 25.7248 15.3438C23.3009 16.1029 21.4786 17.0795 20.1716 18.2161C18.833 19.3801 17.94 20.6729 17.4292 22.0959L17.4265 22.1034C16.8708 23.6316 16.5923 25.2186 16.5923 26.8749C16.5923 27.9765 16.7122 29.0682 16.9528 30.1522C17.1793 31.1511 17.5563 32.1064 18.09 33.023C18.6122 33.8976 19.3048 34.729 20.1874 35.5136C21.0238 36.257 22.1069 36.9355 23.4735 37.527C24.8303 38.1142 26.4507 38.5976 28.3524 38.9616C30.249 39.2979 32.4703 39.4728 35.029 39.4728C37.5284 39.4728 39.744 39.3194 41.6842 39.0215C43.6627 38.695 45.4582 38.274 47.0755 37.7632C48.7176 37.2447 50.2023 36.6669 51.5344 36.0333C52.9269 35.3479 54.2499 34.6531 55.5038 33.9491L58.3804 32.3342V48.2586ZM52.3756 37.7717C50.9499 38.4506 49.377 39.0616 47.6571 39.6048C45.9371 40.1479 44.0474 40.5892 41.988 40.9287C39.9286 41.2455 37.6089 41.4039 35.029 41.4039C32.3811 41.4039 30.0388 41.2229 28.0021 40.8608C25.9879 40.4761 24.2227 39.9556 22.7064 39.2993C21.1901 38.643 19.9228 37.8622 18.9044 36.957C17.886 36.0517 17.06 35.0673 16.4263 34.0036C15.7926 32.9173 15.34 31.7745 15.0685 30.575C14.7969 29.3529 14.6611 28.1196 14.6611 26.8749C14.6611 24.9965 14.9779 23.186 15.6116 21.4434C16.2453 19.6782 17.3429 18.1167 18.9044 16.7588C20.4659 15.401 22.548 14.3147 25.1506 13.5C27.7757 12.6852 31.0686 12.2779 35.029 12.2779C37.6089 12.2779 39.9286 12.4589 41.988 12.821C44.0474 13.1605 45.9371 13.6131 47.6571 14.1789C49.377 14.722 50.9499 15.3444 52.3756 16.0459C53.1076 16.3945 53.8218 16.7461 54.518 17.1006C55.1778 17.4366 55.8215 17.7753 56.4492 18.1167V6.77855C54.8198 6.09962 53.179 5.48859 51.527 4.94544C49.8749 4.4023 48.1663 3.93837 46.401 3.55364C44.6358 3.14628 42.7688 2.84076 40.7999 2.63708C38.8536 2.43341 36.7602 2.33157 34.5198 2.33157C29.7673 2.33157 25.3882 2.84076 21.3825 3.85916C17.3994 4.87755 13.9595 6.41646 11.0628 8.47588C8.18864 10.5127 5.94817 13.07 4.34137 16.1478C2.73458 19.203 1.93118 22.7786 1.93118 26.8749C1.93118 30.9711 2.73458 34.5581 4.34137 37.6359C5.94817 40.6911 8.18864 43.2484 11.0628 45.3078C13.9595 47.3446 17.3994 48.8722 21.3825 49.8906C25.3882 50.9089 29.7673 51.4181 34.5198 51.4181C36.7602 51.4181 38.8536 51.3163 40.7999 51.1126C42.7688 50.9089 44.6358 50.6034 46.401 50.1961C48.1663 49.8113 49.8749 49.3474 51.527 48.8043C53.179 48.2611 54.8198 47.6501 56.4492 46.9712V35.633C55.8215 35.9854 55.1778 36.3351 54.518 36.6821C53.8218 37.0483 53.1076 37.4115 52.3756 37.7717Z" fill="#EEEFF3"/>
<path d="M256.8 95.2021C256.8 97.5331 256.46 99.6831 255.782 101.652C255.103 103.598 254.005 105.284 252.489 106.71C250.995 108.113 249.049 109.211 246.65 110.003C244.251 110.795 241.332 111.191 237.892 111.191H216.981V125.924H204.387V79.2812H237.892C241.332 79.2812 244.251 79.6773 246.65 80.4694C249.049 81.2388 250.995 82.3364 252.489 83.7622C254.005 85.1653 255.103 86.84 255.782 88.7863C256.46 90.7325 256.8 92.8711 256.8 95.2021ZM244.07 95.4058C244.07 94.3195 243.912 93.3917 243.595 92.6222C243.301 91.8301 242.803 91.1851 242.101 90.6873C241.4 90.1894 240.483 89.8273 239.351 89.601C238.22 89.352 236.828 89.2276 235.176 89.2276H216.981V101.245H235.176C236.828 101.245 238.22 101.154 239.351 100.973C240.483 100.769 241.4 100.441 242.101 99.9886C242.803 99.5133 243.301 98.9023 243.595 98.1555C243.912 97.4087 244.07 96.4921 244.07 95.4058Z" fill="#EEEFF3"/>
<path d="M193.931 95.2021C193.931 97.5331 193.591 99.6831 192.912 101.652C192.233 103.598 191.136 105.284 189.619 106.71C188.126 108.113 186.179 109.211 183.781 110.003C181.382 110.795 178.462 111.191 175.022 111.191H154.111V125.924H141.517V79.2812H175.022C178.462 79.2812 181.382 79.6773 183.781 80.4694C186.179 81.2388 188.126 82.3364 189.619 83.7622C191.136 85.1653 192.233 86.84 192.912 88.7863C193.591 90.7325 193.931 92.8711 193.931 95.2021ZM181.201 95.4058C181.201 94.3195 181.042 93.3917 180.725 92.6222C180.431 91.8301 179.933 91.1851 179.232 90.6873C178.53 90.1894 177.614 89.8273 176.482 89.601C175.351 89.352 173.959 89.2276 172.307 89.2276H154.111V101.245H172.307C173.959 101.245 175.351 101.154 176.482 100.973C177.614 100.769 178.53 100.441 179.232 99.9886C179.933 99.5133 180.431 98.9023 180.725 98.1555C181.042 97.4087 181.201 96.4921 181.201 95.4058Z" fill="#EEEFF3"/>
<path d="M115.443 117.098H89.4398L85.0607 125.924H71.0068L95.4143 79.2812H109.468L133.876 125.924H119.822L115.443 117.098ZM93.9546 108H110.996L102.509 90.823L93.9546 108Z" fill="#EEEFF3"/>
<path fill-rule="evenodd" clip-rule="evenodd" d="M257.609 102.281L257.606 102.288C256.824 104.53 255.553 106.48 253.813 108.116C252.072 109.752 249.862 110.976 247.257 111.836C244.606 112.711 241.47 113.122 237.893 113.122H218.913V127.854H202.457V77.3496H237.893C241.466 77.3496 244.601 77.7592 247.25 78.6327C249.858 79.4704 252.07 80.6947 253.813 82.3548C255.555 83.97 256.825 85.9092 257.606 88.1497C258.365 90.3253 258.732 92.6821 258.732 95.2017C258.732 97.7216 258.365 100.087 257.609 102.281ZM252.49 83.7617C250.996 82.336 249.05 81.2384 246.651 80.4689C244.252 79.6768 241.333 79.2808 237.893 79.2808H204.388V125.923H216.982V111.19H237.893C241.333 111.19 244.252 110.794 246.651 110.002C249.05 109.21 250.996 108.113 252.49 106.71C254.006 105.284 255.104 103.598 255.783 101.652C256.462 99.6826 256.801 97.5327 256.801 95.2017C256.801 92.8707 256.462 90.7321 255.783 88.7858C255.104 86.8395 254.006 85.1648 252.49 83.7617ZM241.798 93.3258L241.786 93.2942C241.629 92.8726 241.376 92.5395 240.985 92.2617C240.566 91.9646 239.926 91.6845 238.974 91.4942L238.956 91.4906L238.938 91.4866C237.987 91.2773 236.744 91.1583 235.177 91.1583H218.913V99.313H235.177C236.758 99.313 238.034 99.2263 239.029 99.0687C239.974 98.8968 240.616 98.644 241.037 98.3773C241.425 98.1104 241.658 97.8057 241.799 97.4472L241.809 97.4239L241.818 97.4008C242.006 96.9586 242.14 96.3155 242.14 95.4054C242.14 94.498 242.007 93.8339 241.81 93.357L241.798 93.3258ZM242.102 99.9881C241.401 100.441 240.484 100.769 239.353 100.973C238.221 101.154 236.829 101.244 235.177 101.244H216.982V89.2271H235.177C236.829 89.2271 238.221 89.3516 239.353 89.6005C240.484 89.8268 241.401 90.1889 242.102 90.6868C242.804 91.1847 243.302 91.8297 243.596 92.6217C243.913 93.3912 244.071 94.3191 244.071 95.4054C244.071 96.4916 243.913 97.4082 243.596 98.155C243.302 98.9018 242.804 99.5129 242.102 99.9881Z" fill="#EEEFF3"/>
<path fill-rule="evenodd" clip-rule="evenodd" d="M194.739 102.281L194.737 102.288C193.955 104.53 192.684 106.48 190.944 108.116C189.203 109.752 186.993 110.976 184.387 111.836C181.737 112.711 178.6 113.122 175.024 113.122H156.044V127.854H139.587V77.3496H175.024C178.596 77.3496 181.73 77.7591 184.379 78.6323C186.987 79.47 189.201 80.6945 190.944 82.3548C192.686 83.97 193.955 85.9092 194.737 88.1497C195.496 90.3253 195.863 92.6821 195.863 95.2017C195.863 97.7216 195.496 100.087 194.739 102.281ZM189.621 83.7617C188.127 82.336 186.181 81.2384 183.782 80.4689C181.383 79.6768 178.464 79.2808 175.024 79.2808H141.519V125.923H154.113V111.19H175.024C178.464 111.19 181.383 110.794 183.782 110.002C186.181 109.21 188.127 108.113 189.621 106.71C191.137 105.284 192.235 103.598 192.914 101.652C193.592 99.6826 193.932 97.5327 193.932 95.2017C193.932 92.8707 193.592 90.7321 192.914 88.7858C192.235 86.8395 191.137 85.1648 189.621 83.7617ZM178.928 93.3258L178.916 93.2942C178.76 92.8726 178.507 92.5395 178.115 92.2617C177.697 91.9646 177.056 91.6845 176.105 91.4942L176.087 91.4906L176.069 91.4866C175.117 91.2773 173.874 91.1583 172.308 91.1583H156.044V99.313H172.308C173.888 99.313 175.165 99.2263 176.159 99.0687C177.105 98.8968 177.747 98.6439 178.168 98.3771C178.555 98.1102 178.789 97.8056 178.93 97.4472L178.939 97.4239L178.949 97.4008C179.137 96.9586 179.271 96.3155 179.271 95.4054C179.271 94.498 179.137 93.8339 178.941 93.357L178.928 93.3258ZM179.233 99.9881C178.532 100.441 177.615 100.769 176.483 100.973C175.352 101.154 173.96 101.244 172.308 101.244H154.113V89.2271H172.308C173.96 89.2271 175.352 89.3516 176.483 89.6005C177.615 89.8268 178.532 90.1889 179.233 90.6868C179.935 91.1847 180.433 91.8297 180.727 92.6217C181.044 93.3912 181.202 94.3191 181.202 95.4054C181.202 96.4916 181.044 97.4082 180.727 98.155C180.433 98.9018 179.935 99.5129 179.233 99.9881Z" fill="#EEEFF3"/>
<path fill-rule="evenodd" clip-rule="evenodd" d="M119.83 125.923L115.451 117.097H89.4478L85.0687 125.923H71.0149L95.4224 79.2808H109.476L133.884 125.923H119.83ZM90.6454 119.028L86.2664 127.854H67.8247L94.2534 77.3496H110.645L137.074 127.854H118.632L114.253 119.028H90.6454ZM111.004 107.999L102.517 90.8226L93.9627 107.999H111.004ZM97.0819 106.068H107.896L102.51 95.1684L97.0819 106.068Z" fill="#EEEFF3"/>
</svg>
