<svg width="1172" height="115" viewBox="0 0 1172 115" fill="none" xmlns="http://www.w3.org/2000/svg">
<path d="M1167.81 41.0953C1167.81 46.1264 1167.08 50.7667 1165.61 55.0163C1164.15 59.217 1161.78 62.856 1158.51 65.9333C1155.28 68.9617 1151.08 71.3307 1145.91 73.0403C1140.73 74.7499 1134.43 75.6047 1127 75.6047H1081.87V107.403H1054.69V6.73242H1127C1134.43 6.73242 1140.73 7.58722 1145.91 9.29681C1151.08 10.9576 1155.28 13.3266 1158.51 16.4038C1161.78 19.4323 1164.15 23.0468 1165.61 27.2476C1167.08 31.4483 1167.81 36.0642 1167.81 41.0953ZM1140.34 41.5349C1140.34 39.1903 1140 37.1876 1139.31 35.5269C1138.68 33.8173 1137.6 32.4252 1136.09 31.3506C1134.57 30.276 1132.6 29.4945 1130.15 29.006C1127.71 28.4687 1124.71 28.2001 1121.14 28.2001H1081.87V54.1371H1121.14C1124.71 54.1371 1127.71 53.9417 1130.15 53.5509C1132.6 53.1113 1134.57 52.403 1136.09 51.4261C1137.6 50.4004 1138.68 49.0815 1139.31 47.4696C1140 45.8577 1140.34 43.8795 1140.34 41.5349Z" fill="#EEEFF3"/>
<path d="M1032.12 41.0953C1032.12 46.1264 1031.39 50.7667 1029.92 55.0163C1028.46 59.217 1026.09 62.856 1022.81 65.9333C1019.59 68.9617 1015.39 71.3307 1010.21 73.0403C1005.03 74.7499 998.733 75.6047 991.308 75.6047H946.175V107.403H918.992V6.73242H991.308C998.733 6.73242 1005.03 7.58722 1010.21 9.29681C1015.39 10.9576 1019.59 13.3266 1022.81 16.4038C1026.09 19.4323 1028.46 23.0468 1029.92 27.2476C1031.39 31.4483 1032.12 36.0642 1032.12 41.0953ZM1004.64 41.5349C1004.64 39.1903 1004.3 37.1876 1003.62 35.5269C1002.98 33.8173 1001.91 32.4252 1000.39 31.3506C998.879 30.276 996.901 29.4945 994.459 29.006C992.016 28.4687 989.012 28.2001 985.447 28.2001H946.175V54.1371H985.447C989.012 54.1371 992.016 53.9417 994.459 53.5509C996.901 53.1113 998.879 52.403 1000.39 51.4261C1001.91 50.4004 1002.98 49.0815 1003.62 47.4696C1004.3 45.8577 1004.64 43.8795 1004.64 41.5349Z" fill="#EEEFF3"/>
<path d="M862.715 88.3534H806.591L797.139 107.403H766.806L819.486 6.73242H849.819L902.499 107.403H872.166L862.715 88.3534ZM816.336 68.7175H853.116L834.799 31.6437L816.336 68.7175Z" fill="#EEEFF3"/>
<path d="M700.654 57.141C700.654 65.7867 699.067 73.431 695.892 80.074C692.717 86.6681 688.174 92.1877 682.264 96.6326C676.354 101.078 669.173 104.448 660.723 106.744C652.322 108.991 642.87 110.114 632.368 110.114C621.866 110.114 612.366 108.991 603.867 106.744C595.417 104.448 588.212 101.078 582.253 96.6326C576.294 92.1877 571.702 86.6681 568.478 80.074C565.254 73.431 563.643 65.7867 563.643 57.141C563.643 48.4953 565.254 40.8754 568.478 34.2813C571.702 27.6383 576.294 22.0943 582.253 17.6493C588.212 13.2044 595.417 9.85848 603.867 7.61158C612.366 5.31584 621.866 4.16797 632.368 4.16797C642.87 4.16797 652.322 5.31584 660.723 7.61158C669.173 9.85848 676.354 13.2044 682.264 17.6493C688.174 22.0943 692.717 27.6383 695.892 34.2813C699.067 40.8754 700.654 48.4953 700.654 57.141ZM673.179 57.141C673.179 53.3799 672.568 49.6432 671.347 45.9309C670.175 42.1698 668.05 38.7995 664.973 35.8199C661.944 32.8403 657.792 30.4225 652.517 28.5663C647.242 26.7102 640.526 25.7821 632.368 25.7821C626.898 25.7821 622.086 26.2217 617.934 27.101C613.783 27.9313 610.192 29.1036 607.164 30.6178C604.136 32.1321 601.596 33.9149 599.544 35.9664C597.493 37.9691 595.856 40.1427 594.635 42.4873C593.414 44.7831 592.535 47.2009 591.997 49.7409C591.509 52.232 591.265 54.6987 591.265 57.141C591.265 59.6321 591.509 62.1477 591.997 64.6876C592.535 67.2276 593.414 69.6699 594.635 72.0145C595.856 74.3102 597.493 76.4594 599.544 78.4621C601.596 80.4648 604.136 82.2232 607.164 83.7374C610.192 85.2028 613.783 86.3751 617.934 87.2543C622.086 88.0847 626.898 88.4999 632.368 88.4999C640.526 88.4999 647.242 87.5718 652.517 85.7157C657.792 83.8595 661.944 81.4417 664.973 78.4621C668.05 75.4825 670.175 72.1366 671.347 68.4243C672.568 64.6632 673.179 60.9021 673.179 57.141Z" fill="#EEEFF3"/>
<path d="M487.809 4.16797C497.676 4.16797 506.834 5.02277 515.285 6.73236C523.784 8.39311 531.575 10.5423 538.657 13.18V37.7981C535.873 36.2351 532.723 34.7209 529.206 33.2555C525.738 31.7901 521.952 30.4957 517.849 29.3723C513.746 28.2488 509.35 27.3452 504.661 26.6614C499.972 25.9775 495.038 25.6356 489.861 25.6356C483.413 25.6356 477.796 26.0996 473.009 27.0277C468.222 27.9558 464.119 29.2013 460.7 30.7644C457.281 32.3274 454.472 34.1592 452.274 36.2595C450.076 38.311 448.342 40.5091 447.072 42.8537C445.802 45.1982 444.923 47.5917 444.434 50.034C443.946 52.4762 443.702 54.8453 443.702 57.141C443.702 59.1437 443.897 61.3173 444.288 63.6619C444.727 66.0065 445.509 68.3511 446.632 70.6956C447.805 73.0402 449.417 75.2871 451.468 77.4363C453.52 79.5855 456.182 81.4905 459.454 83.1513C462.776 84.812 466.757 86.1553 471.397 87.181C476.037 88.1579 481.557 88.6464 487.956 88.6464C491.179 88.6464 493.988 88.5487 496.382 88.3533C498.775 88.1579 500.949 87.8893 502.902 87.5474C504.905 87.2054 506.761 86.7903 508.471 86.3018C510.229 85.8133 512.037 85.3005 513.893 84.7632V72.6006H483.413V50.5468H541.075V101.981C537.461 103.202 533.406 104.326 528.913 105.352C524.468 106.328 519.852 107.159 515.065 107.843C510.327 108.575 505.565 109.137 500.778 109.528C495.991 109.919 491.473 110.114 487.223 110.114C480.629 110.114 474.303 109.674 468.246 108.795C462.19 107.916 456.524 106.573 451.248 104.765C446.022 102.909 441.235 100.565 436.888 97.7317C432.589 94.8986 428.901 91.5283 425.824 87.6206C422.796 83.713 420.427 79.2436 418.717 74.2125C417.056 69.1326 416.226 63.4421 416.226 57.141C416.226 50.8888 417.105 45.2227 418.864 40.1427C420.622 35.0628 423.064 30.569 426.19 26.6614C429.365 22.7537 433.151 19.3834 437.547 16.5503C441.992 13.7173 446.852 11.3971 452.127 9.58983C457.452 7.7337 463.118 6.36602 469.126 5.4868C475.183 4.60758 481.41 4.16797 487.809 4.16797Z" fill="#EEEFF3"/>
<path d="M312.256 107.403H285.073V6.73242H353.213C360.54 6.73242 366.743 7.48953 371.823 9.00374C376.952 10.518 381.104 12.6672 384.279 15.4514C387.503 18.2356 389.823 21.6059 391.239 25.5624C392.705 29.47 393.437 33.8417 393.437 38.6774C393.437 42.927 392.827 46.6393 391.606 49.8142C390.433 52.9892 388.821 55.7245 386.77 58.0203C384.767 60.2672 382.423 62.1721 379.736 63.7352C377.05 65.2983 374.217 66.5927 371.237 67.6184L404.208 107.403H372.409L341.93 70.3294H312.256V107.403ZM365.962 38.5309C365.962 36.5771 365.693 34.9163 365.156 33.5486C364.667 32.181 363.788 31.0819 362.518 30.2516C361.248 29.3723 359.539 28.7374 357.389 28.3466C355.289 27.9558 352.651 27.7604 349.476 27.7604H312.256V49.3013H349.476C352.651 49.3013 355.289 49.106 357.389 48.7152C359.539 48.3244 361.248 47.7139 362.518 46.8835C363.788 46.0043 364.667 44.8808 365.156 43.5131C365.693 42.1455 365.962 40.4847 365.962 38.5309Z" fill="#EEEFF3"/>
<path d="M228.796 88.3534H172.672L163.221 107.403H132.887L185.567 6.73242H215.9L268.58 107.403H238.247L228.796 88.3534ZM182.417 68.7175H219.198L200.88 31.6437L182.417 68.7175Z" fill="#EEEFF3"/>
<path d="M121.834 100.516C118.317 101.981 114.776 103.3 111.21 104.472C107.644 105.645 103.957 106.646 100.147 107.476C96.3366 108.356 92.3069 109.015 88.0573 109.455C83.8566 109.894 79.3384 110.114 74.5027 110.114C64.2451 110.114 54.7935 109.015 46.1478 106.817C37.551 104.619 30.1265 101.322 23.8742 96.9257C17.6708 92.4808 12.8351 86.9612 9.36709 80.3671C5.89906 73.7241 4.16504 65.982 4.16504 57.141C4.16504 48.2999 5.89906 40.5823 9.36709 33.9882C12.8351 27.3452 17.6708 21.8256 23.8742 17.4295C30.1265 12.9846 37.551 9.6631 46.1478 7.46504C54.7935 5.26699 64.2451 4.16797 74.5027 4.16797C79.3384 4.16797 83.8566 4.38777 88.0573 4.82738C92.3069 5.26699 96.3366 5.92641 100.147 6.80563C103.957 7.636 107.644 8.63734 111.21 9.80963C114.776 10.9819 118.317 12.3008 121.834 13.7661V38.2378C119.05 36.7235 116.119 35.2338 113.042 33.7684C109.965 32.2542 106.57 30.9109 102.858 29.7386C99.1453 28.5175 95.0667 27.5406 90.6217 26.8079C86.1768 26.0264 81.1701 25.6356 75.6017 25.6356C67.0537 25.6356 59.9467 26.5148 54.2806 28.2733C48.6634 30.0317 44.1696 32.3763 40.7992 35.307C37.4289 38.2378 35.0599 41.6081 33.6922 45.4181C32.3245 49.1792 31.6407 53.0868 31.6407 57.141C31.6407 59.8275 31.9337 62.4896 32.5199 65.1272C33.106 67.7161 34.083 70.1828 35.4506 72.5274C36.8183 74.8231 38.6012 76.9479 40.7992 78.9017C42.9973 80.8555 45.7326 82.5407 49.0053 83.9572C52.2779 85.3737 56.0879 86.4972 60.4351 87.3276C64.8312 88.1091 69.8868 88.4999 75.6017 88.4999C81.1701 88.4999 86.1768 88.1579 90.6217 87.4741C95.0667 86.7414 99.1453 85.7889 102.858 84.6166C106.57 83.4443 109.965 82.1255 113.042 80.6601C116.119 79.1459 119.05 77.6073 121.834 76.0442V100.516Z" fill="#EEEFF3"/>
<path fill-rule="evenodd" clip-rule="evenodd" d="M1169.56 56.3752L1169.55 56.3893C1167.86 61.2299 1165.12 65.4379 1161.37 68.97C1157.61 72.4993 1152.84 75.1418 1147.22 76.9985C1141.49 78.8874 1134.72 79.773 1127.01 79.773H1086.04V111.571H1050.52V2.56445H1127.01C1134.72 2.56445 1141.48 3.44848 1147.2 5.33391C1152.83 7.14179 1157.6 9.78435 1161.37 13.3674C1165.13 16.8535 1167.87 21.039 1169.55 25.8749C1171.19 30.5706 1171.98 35.6574 1171.98 41.0955C1171.98 46.5344 1171.19 51.6397 1169.56 56.3752ZM1158.51 16.404C1155.29 13.3268 1151.09 10.9578 1145.91 9.297C1140.73 7.58741 1134.43 6.73261 1127.01 6.73261H1054.69V107.403H1081.87V75.6049H1127.01C1134.43 75.6049 1140.73 74.7501 1145.91 73.0405C1151.09 71.3309 1155.29 68.9619 1158.51 65.9334C1161.78 62.8562 1164.15 59.2172 1165.62 55.0165C1167.08 50.7669 1167.82 46.1266 1167.82 41.0955C1167.82 36.0644 1167.08 31.4485 1165.62 27.2477C1164.15 23.047 1161.78 19.4325 1158.51 16.404ZM1135.43 37.0467L1135.41 36.9784C1135.07 36.0685 1134.52 35.3495 1133.68 34.7499C1132.77 34.1088 1131.39 33.5042 1129.34 33.0934L1129.3 33.0856L1129.26 33.077C1127.21 32.6253 1124.52 32.3684 1121.14 32.3684H1086.04V49.9691H1121.14C1124.55 49.9691 1127.31 49.7821 1129.46 49.4418C1131.5 49.0709 1132.88 48.5253 1133.79 47.9496C1134.63 47.3735 1135.13 46.716 1135.44 45.9421L1135.46 45.8918L1135.48 45.8419C1135.88 44.8876 1136.17 43.4995 1136.17 41.5351C1136.17 39.5767 1135.88 38.1433 1135.46 37.1141L1135.43 37.0467ZM1136.09 51.4263C1134.58 52.4032 1132.6 53.1115 1130.16 53.5511C1127.71 53.9419 1124.71 54.1372 1121.14 54.1372H1081.87V28.2002H1121.14C1124.71 28.2002 1127.71 28.4689 1130.16 29.0062C1132.6 29.4946 1134.58 30.2762 1136.09 31.3508C1137.6 32.4254 1138.68 33.8175 1139.31 35.5271C1140 37.1878 1140.34 39.1905 1140.34 41.5351C1140.34 43.8797 1140 45.8579 1139.31 47.4698C1138.68 49.0817 1137.6 50.4006 1136.09 51.4263Z" fill="#EEEFF3"/>
<path fill-rule="evenodd" clip-rule="evenodd" d="M1033.86 56.3752L1033.86 56.3893C1032.17 61.2299 1029.43 65.4379 1025.67 68.97C1021.92 72.4993 1017.14 75.1418 1011.52 76.9985C1005.8 78.8874 999.031 79.773 991.311 79.773H950.346V111.571H914.827V2.56445H991.311C999.022 2.56445 1005.79 3.4482 1011.5 5.333C1017.13 7.1409 1021.91 9.78392 1025.67 13.3674C1029.43 16.8535 1032.17 21.039 1033.86 25.8749C1035.5 30.5706 1036.29 35.6574 1036.29 41.0955C1036.29 46.5344 1035.5 51.6397 1033.86 56.3752ZM1022.82 16.404C1019.59 13.3268 1015.39 10.9578 1010.21 9.297C1005.04 7.58741 998.736 6.73261 991.311 6.73261H918.995V107.403H946.178V75.6049H991.311C998.736 75.6049 1005.04 74.7501 1010.21 73.0405C1015.39 71.3309 1019.59 68.9619 1022.82 65.9334C1026.09 62.8562 1028.46 59.2172 1029.92 55.0165C1031.39 50.7669 1032.12 46.1266 1032.12 41.0955C1032.12 36.0644 1031.39 31.4485 1029.92 27.2477C1028.46 23.047 1026.09 19.4325 1022.82 16.404ZM999.738 37.0467L999.713 36.9784C999.375 36.0685 998.829 35.3495 997.984 34.7499C997.081 34.1088 995.698 33.5042 993.644 33.0934L993.605 33.0856L993.566 33.077C991.513 32.6253 988.83 32.3684 985.45 32.3684H950.346V49.9691H985.45C988.861 49.9691 991.616 49.7821 993.762 49.4418C995.802 49.0708 997.19 48.5249 998.097 47.9491C998.934 47.3732 999.437 46.7157 999.742 45.9421L999.762 45.8918L999.783 45.8419C1000.19 44.8876 1000.48 43.4995 1000.48 41.5351C1000.48 39.5767 1000.19 38.1433 999.766 37.1141L999.738 37.0467ZM1000.4 51.4263C998.882 52.4032 996.904 53.1115 994.462 53.5511C992.02 53.9419 989.016 54.1372 985.45 54.1372H946.178V28.2002H985.45C989.016 28.2002 992.02 28.4689 994.462 29.0062C996.904 29.4946 998.882 30.2762 1000.4 31.3508C1001.91 32.4254 1002.99 33.8175 1003.62 35.5271C1004.3 37.1878 1004.65 39.1905 1004.65 41.5351C1004.65 43.8797 1004.3 45.8579 1003.62 47.4698C1002.99 49.0817 1001.91 50.4006 1000.4 51.4263Z" fill="#EEEFF3"/>
<path fill-rule="evenodd" clip-rule="evenodd" d="M872.184 107.403L862.732 88.3536H806.608L797.157 107.403H766.824L819.504 6.73261H849.837L902.517 107.403H872.184ZM809.193 92.5217L799.742 111.571H759.938L816.98 2.56445H852.36L909.402 111.571H869.599L860.147 92.5217H809.193ZM853.134 68.7176L834.817 31.6439L816.353 68.7176H853.134ZM823.085 64.5495H846.425L834.802 41.0236L823.085 64.5495Z" fill="#EEEFF3"/>
<path fill-rule="evenodd" clip-rule="evenodd" d="M699.656 81.8716L699.651 81.8824C696.183 89.0833 691.209 95.123 684.772 99.964C678.369 104.78 670.688 108.357 661.819 110.766L661.803 110.771C652.987 113.128 643.164 114.282 632.371 114.282C621.577 114.282 611.711 113.128 602.805 110.774L602.777 110.766C593.91 108.357 586.21 104.782 579.764 99.9739C573.28 95.1376 568.256 89.1029 564.737 81.9049L564.731 81.894C561.189 74.5947 559.478 66.3101 559.478 57.1412C559.478 47.9732 561.189 39.7078 564.737 32.4508C568.254 25.2078 573.277 19.1472 579.764 14.3084C586.215 9.49658 593.92 5.94508 602.792 3.58535C611.704 1.17924 621.575 0 632.371 0C643.165 0 652.99 1.17853 661.811 3.58709C670.681 5.94718 678.366 9.5002 684.772 14.3183C691.216 19.1643 696.19 25.2335 699.656 32.4841C703.144 39.7331 704.826 47.9866 704.826 57.1412C704.826 66.3012 703.142 74.5777 699.656 81.8716ZM695.895 34.2815C692.72 27.6385 688.177 22.0945 682.267 17.6495C676.357 13.2046 669.177 9.85867 660.726 7.61177C652.325 5.31603 642.873 4.16816 632.371 4.16816C621.87 4.16816 612.369 5.31603 603.87 7.61177C595.42 9.85867 588.215 13.2046 582.256 17.6495C576.297 22.0945 571.705 27.6385 568.481 34.2815C565.258 40.8756 563.646 48.4955 563.646 57.1412C563.646 65.7868 565.258 73.4312 568.481 80.0742C571.705 86.6683 576.297 92.1879 582.256 96.6328C588.215 101.078 595.42 104.448 603.87 106.744C612.369 108.991 621.87 110.114 632.371 110.114C642.873 110.114 652.325 108.991 660.726 106.744C669.177 104.448 676.357 101.078 682.267 96.6328C688.177 92.1879 692.72 86.6683 695.895 80.0742C699.07 73.4312 700.658 65.7868 700.658 57.1412C700.658 48.4955 699.07 40.8756 695.895 34.2815ZM667.381 47.2026L667.371 47.1714C666.424 44.1334 664.697 41.3524 662.076 38.8146L662.064 38.803L662.053 38.7913C659.576 36.3544 656.009 34.2128 651.137 32.4984C646.459 30.8527 640.254 29.9505 632.371 29.9505C627.112 29.9505 622.601 30.3741 618.801 31.1789L618.778 31.1838L618.755 31.1884C614.88 31.9634 611.658 33.0329 609.031 34.3461C606.338 35.6927 604.181 37.2271 602.495 38.914L602.477 38.9317L602.459 38.9492C600.697 40.6694 599.336 42.4918 598.335 44.4129L598.327 44.429L598.318 44.4449C597.285 46.388 596.542 48.4277 596.085 50.5746C595.65 52.801 595.436 54.9887 595.436 57.1412C595.436 59.3461 595.651 61.5856 596.087 63.8631C596.544 66.0073 597.288 68.0751 598.327 70.0739C599.326 71.9476 600.689 73.7517 602.459 75.4797C604.147 77.1275 606.308 78.6451 609.007 79.9974C611.656 81.2761 614.896 82.3482 618.778 83.1718C622.591 83.9324 627.111 84.3319 632.371 84.3319C640.254 84.3319 646.459 83.4297 651.137 81.784C656.009 80.0696 659.576 77.9279 662.053 75.4911L662.064 75.4794L662.076 75.4678C664.707 72.9204 666.432 70.1571 667.376 67.1693L667.381 67.1533L667.386 67.1374C668.479 63.7705 669.014 60.4432 669.014 57.1412C669.014 53.8397 668.479 50.5421 667.391 47.2336L667.381 47.2026ZM617.938 87.2545C613.786 86.3753 610.196 85.203 607.167 83.7376C604.139 82.2234 601.599 80.4649 599.547 78.4623C597.496 76.4596 595.859 74.3104 594.638 72.0147C593.417 69.6701 592.538 67.2278 592.001 64.6878C591.512 62.1479 591.268 59.6323 591.268 57.1412C591.268 54.6989 591.512 52.2322 592.001 49.7411C592.538 47.2011 593.417 44.7832 594.638 42.4875C595.859 40.1429 597.496 37.9693 599.547 35.9666C601.599 33.9151 604.139 32.1322 607.167 30.618C610.196 29.1038 613.786 27.9315 617.938 27.1012C622.089 26.2219 626.901 25.7823 632.371 25.7823C640.529 25.7823 647.245 26.7104 652.52 28.5665C657.796 30.4227 661.947 32.8405 664.976 35.8201C668.053 38.7997 670.178 42.17 671.35 45.9311C672.571 49.6434 673.182 53.3801 673.182 57.1412C673.182 60.9023 672.571 64.6634 671.35 68.4245C670.178 72.1368 668.053 75.4827 664.976 78.4623C661.947 81.4419 657.796 83.8597 652.52 85.7158C647.245 87.572 640.529 88.5 632.371 88.5C626.901 88.5 622.089 88.0849 617.938 87.2545Z" fill="#EEEFF3"/>
<path fill-rule="evenodd" clip-rule="evenodd" d="M534.492 35.627C532.834 34.8228 531.073 34.0324 529.209 33.2557C525.741 31.7903 521.955 30.4959 517.852 29.3725C513.749 28.249 509.353 27.3454 504.664 26.6615C499.975 25.9777 495.041 25.6358 489.864 25.6358C483.416 25.6358 477.799 26.0998 473.012 27.0279C468.225 27.9559 464.122 29.2015 460.703 30.7646C457.284 32.3276 454.475 34.1593 452.277 36.2597C450.079 38.3112 448.345 40.5093 447.075 42.8539C445.805 45.1984 444.926 47.5919 444.437 50.0341C443.949 52.4764 443.705 54.8454 443.705 57.1412C443.705 59.1438 443.9 61.3175 444.291 63.6621C444.73 66.0067 445.512 68.3512 446.635 70.6958C447.808 73.0404 449.42 75.2873 451.471 77.4365C453.523 79.5857 456.185 81.4907 459.457 83.1515C462.779 84.8122 466.76 86.1554 471.4 87.1812C476.04 88.1581 481.56 88.6466 487.959 88.6466C491.183 88.6466 493.991 88.5489 496.385 88.3535C498.778 88.1581 500.952 87.8895 502.906 87.5476C504.908 87.2056 506.764 86.7904 508.474 86.302C510.232 85.8135 512.04 85.3007 513.896 84.7634V72.6008H483.416V50.547H541.078V101.981C537.464 103.203 533.41 104.326 528.916 105.352C524.471 106.329 519.855 107.159 515.068 107.843C510.33 108.576 505.568 109.137 500.781 109.528C495.994 109.919 491.476 110.114 487.226 110.114C480.632 110.114 474.306 109.675 468.25 108.795C462.193 107.916 456.527 106.573 451.251 104.766C446.025 102.909 441.238 100.565 436.891 97.7318C432.592 94.8988 428.904 91.5285 425.827 87.6208C422.799 83.7132 420.43 79.2438 418.72 74.2127C417.059 69.1328 416.229 63.4423 416.229 57.1412C416.229 50.8889 417.108 45.2229 418.867 40.1429C420.625 35.063 423.067 30.5692 426.194 26.6615C429.369 22.7539 433.154 19.3836 437.55 16.5505C441.995 13.7175 446.855 11.3973 452.131 9.59001C457.455 7.73388 463.121 6.36621 469.129 5.48699C475.186 4.60777 481.413 4.16816 487.812 4.16816C497.679 4.16816 506.838 5.02295 515.288 6.73255C523.787 8.3933 531.578 10.5425 538.66 13.1802V37.7983C537.352 37.0638 535.963 36.34 534.492 35.627ZM516.101 2.64454C507.347 0.874442 497.913 0 487.812 0C481.222 0 474.794 0.452787 468.53 1.36206L468.525 1.36276C462.279 2.27681 456.358 3.70295 450.768 5.65071C445.203 7.55829 440.046 10.0172 435.31 13.0355L435.292 13.0469C430.541 16.1089 426.422 19.7709 422.959 24.0331L422.949 24.0454L422.939 24.0577C419.494 28.3634 416.83 33.2835 414.928 38.7795C412.995 44.3629 412.061 50.499 412.061 57.1412C412.061 63.8055 412.939 69.9427 414.758 75.5079L414.766 75.5309L414.774 75.5538C416.621 80.9895 419.201 85.8749 422.533 90.1741L422.543 90.1869L422.553 90.1996C425.916 94.4706 429.939 98.1418 434.597 101.212L434.615 101.224C439.256 104.248 444.341 106.735 449.856 108.693L449.878 108.701L449.9 108.709C455.443 110.608 461.363 112.007 467.651 112.92C473.921 113.83 480.447 114.282 487.226 114.282C491.602 114.282 496.234 114.081 501.12 113.682C505.999 113.284 510.853 112.712 515.682 111.966C520.556 111.269 525.266 110.421 529.811 109.423L529.827 109.419L529.843 109.415C534.447 108.364 538.64 107.205 542.412 105.93L545.247 104.973V46.3789H479.248V76.769H509.728V81.6213C508.928 81.8477 508.138 82.0693 507.358 82.2859L507.344 82.29L507.329 82.2942C505.784 82.7356 504.078 83.1189 502.204 83.4388L502.187 83.4418C500.382 83.7577 498.337 84.0121 496.046 84.1992C493.796 84.3828 491.105 84.4784 487.959 84.4784C481.766 84.4784 476.555 84.005 472.28 83.1068C467.901 82.1375 464.271 80.8965 461.334 79.4295C458.392 77.9354 456.143 76.2946 454.486 74.5585C452.694 72.6807 451.342 70.7797 450.379 68.8632C449.414 66.8428 448.762 64.8681 448.395 62.9347C448.04 60.7929 447.873 58.8652 447.873 57.1412C447.873 55.142 448.085 53.0472 448.525 50.8516C448.926 48.8453 449.654 46.8435 450.74 44.8391C451.77 42.9375 453.211 41.0898 455.121 39.3069L455.139 39.2901L455.157 39.2732C456.95 37.5598 459.343 35.9691 462.436 34.5554C465.482 33.1631 469.252 32.0026 473.805 31.1198C478.263 30.2556 483.603 29.8039 489.864 29.8039C494.858 29.8039 499.59 30.1338 504.062 30.7861C508.602 31.4481 512.83 32.3189 516.752 33.3927C520.699 34.4736 524.308 35.71 527.587 37.0952L527.606 37.1032C531 38.5177 534.001 39.9627 536.62 41.4329L542.829 44.9184V10.2846L540.115 9.27409C532.795 6.54811 524.787 4.34235 516.101 2.64454Z" fill="#EEEFF3"/>
<path fill-rule="evenodd" clip-rule="evenodd" d="M238.265 107.403L228.813 88.3536H172.689L163.238 107.403H132.905L185.585 6.73261H215.918L268.598 107.403H238.265ZM175.274 92.5217L165.823 111.571H126.019L183.062 2.56445H218.441L275.483 111.571H235.68L226.228 92.5217H175.274ZM219.215 68.7176L200.898 31.6439L182.434 68.7176H219.215ZM189.166 64.5495H212.506L200.883 41.0236L189.166 64.5495Z" fill="#EEEFF3"/>
<path fill-rule="evenodd" clip-rule="evenodd" d="M126.005 103.295L123.44 104.364C119.826 105.87 116.184 107.226 112.515 108.432C108.816 109.648 104.998 110.685 101.063 111.544C97.0793 112.462 92.8886 113.146 88.4943 113.6C84.1306 114.057 79.4661 114.282 74.5058 114.282C63.9524 114.282 54.1509 113.152 45.1239 110.857L45.1184 110.855C36.1098 108.552 28.206 105.065 21.4799 100.336L21.4647 100.325L21.4496 100.314C14.7321 95.5007 9.4587 89.4901 5.68114 82.3074L5.67525 82.2962C1.845 74.9594 0 66.5334 0 57.1412C0 47.7524 1.84371 39.3473 5.6781 32.054C9.45572 24.82 14.7336 18.8015 21.4648 14.0308C28.194 9.24724 36.1031 5.73204 45.1184 3.42699L45.1239 3.42558C54.1509 1.13058 63.9524 0 74.5058 0C79.4652 0 84.1289 0.225307 88.4919 0.681803C92.8868 1.13655 97.0782 1.82048 101.062 2.73865C104.998 3.59729 108.816 4.634 112.515 5.85017C116.184 7.05644 119.826 8.4128 123.44 9.91878L126.005 10.9875V45.2495L119.846 41.8996C117.132 40.4236 114.268 38.9675 111.253 37.5318L111.229 37.5203L111.205 37.5085C108.339 36.0986 105.143 34.8307 101.605 33.7135L101.582 33.706L101.558 33.6983C98.0779 32.5534 94.2113 31.6237 89.9469 30.9207L89.9249 30.9171L89.903 30.9133C85.7439 30.182 80.9848 29.8039 75.6048 29.8039C67.3102 29.8039 60.655 30.6611 55.5232 32.2531C50.2915 33.8914 46.3584 35.9995 43.5374 38.4525C40.6482 40.9649 38.7209 43.7552 37.6184 46.8265L37.6125 46.8427C36.413 50.1412 35.8119 53.5664 35.8119 57.1412C35.8119 59.519 36.0707 61.8751 36.5901 64.2149C37.0791 66.3709 37.8927 68.4327 39.0446 70.411C40.1717 72.2987 41.6665 74.0932 43.5715 75.7866C45.3768 77.3912 47.7145 78.8555 50.6641 80.1322C53.5925 81.3997 57.0898 82.4431 61.1944 83.2287C65.288 83.9544 70.0823 84.3319 75.6048 84.3319C80.9994 84.3319 85.7815 84.0008 89.9691 83.358C94.2394 82.6531 98.1148 81.7445 101.605 80.6421C105.15 79.5229 108.354 78.2758 111.229 76.9083C114.235 75.4289 117.09 73.9293 119.797 72.4099L126.005 68.9243V103.295ZM113.045 80.6603C109.968 82.1257 106.573 83.4445 102.861 84.6168C99.1484 85.7891 95.0698 86.7416 90.6248 87.4743C86.1799 88.1581 81.1732 88.5 75.6048 88.5C69.8899 88.5 64.8344 88.1093 60.4383 87.3277C56.091 86.4974 52.281 85.3739 49.0084 83.9574C45.7357 82.5409 43.0004 80.8557 40.8023 78.9019C38.6043 76.9481 36.8214 74.8233 35.4537 72.5275C34.0861 70.183 33.1092 67.7162 32.523 65.1274C31.9369 62.4898 31.6438 59.8277 31.6438 57.1412C31.6438 53.087 32.3276 49.1794 33.6953 45.4182C35.063 41.6083 37.432 38.2379 40.8023 35.3072C44.1727 32.3765 48.6665 30.0319 54.2837 28.2734C59.9498 26.515 67.0568 25.6358 75.6048 25.6358C81.1732 25.6358 86.1799 26.0266 90.6248 26.8081C95.0698 27.5408 99.1484 28.5177 102.861 29.7388C106.573 30.9111 109.968 32.2544 113.045 33.7686C114.625 34.5209 116.166 35.2798 117.669 36.045C119.093 36.7702 120.482 37.5012 121.837 38.2379V13.7663C118.32 12.3009 114.779 10.9821 111.213 9.80982C107.648 8.63753 103.96 7.63619 100.15 6.80582C96.3398 5.9266 92.31 5.26718 88.0604 4.82757C83.8597 4.38796 79.3415 4.16816 74.5058 4.16816C64.2482 4.16816 54.7966 5.26718 46.1509 7.46523C37.5541 9.66328 30.1296 12.9848 23.8773 17.4297C17.674 21.8258 12.8382 27.3454 9.37021 33.9884C5.90217 40.5825 4.16816 48.3001 4.16816 57.1412C4.16816 65.9822 5.90217 73.7243 9.37021 80.3672C12.8382 86.9614 17.674 92.481 23.8773 96.9259C30.1296 101.322 37.5541 104.619 46.1509 106.817C54.7966 109.015 64.2482 110.114 74.5058 110.114C79.3415 110.114 83.8597 109.894 88.0604 109.455C92.31 109.015 96.3398 108.356 100.15 107.477C103.96 106.646 107.648 105.645 111.213 104.473C114.779 103.3 118.32 101.981 121.837 100.516V76.0444C120.482 76.805 119.093 77.5597 117.669 78.3087C116.166 79.099 114.625 79.8829 113.045 80.6603Z" fill="#EEEFF3"/>
</svg>
