<svg width="615" height="116" viewBox="0 0 615 116" fill="none" xmlns="http://www.w3.org/2000/svg">
<path d="M609.91 57.4798C609.91 63.9823 609.196 69.7706 607.767 74.8446C606.338 79.8694 604.319 84.2537 601.708 87.9976C599.146 91.7415 596.043 94.9189 592.397 97.5298C588.801 100.141 584.786 102.234 580.353 103.811C575.919 105.387 571.141 106.545 566.017 107.284C560.894 107.973 555.549 108.318 549.983 108.318H485.548V6.78906H549.835C555.401 6.78906 560.746 7.15853 565.87 7.89746C570.993 8.58713 575.771 9.72016 580.205 11.2965C584.688 12.8729 588.752 14.9666 592.397 17.5775C596.043 20.1391 599.146 23.3165 601.708 27.1097C604.319 30.8536 606.338 35.2379 607.767 40.2626C609.196 45.2874 609.91 51.0264 609.91 57.4798ZM582.274 57.4798C582.274 52.6028 581.634 48.3663 580.353 44.7701C579.121 41.174 577.101 38.2183 574.294 35.903C571.535 33.5384 567.914 31.7896 563.431 30.6565C558.948 29.4743 553.48 28.8831 547.027 28.8831H512.962V86.2242H547.027C553.48 86.2242 558.948 85.6577 563.431 84.5246C567.914 83.3423 571.535 81.5689 574.294 79.2043C577.101 76.7905 579.121 73.7855 580.353 70.1894C581.634 66.5932 582.274 62.3567 582.274 57.4798Z" fill="#EEEFF3"/>
<path d="M428.79 89.106H372.188L362.656 108.318H332.064L385.193 6.78906H415.785L468.914 108.318H438.322L428.79 89.106ZM382.016 69.3027H419.11L400.637 31.9127L382.016 69.3027Z" fill="#EEEFF3"/>
<path d="M323.718 57.6279C323.718 66.3472 322.117 74.0568 318.915 80.7564C315.713 87.4068 311.132 92.9734 305.171 97.4563C299.21 101.939 291.969 105.338 283.446 107.654C274.973 109.92 265.441 111.053 254.85 111.053C244.258 111.053 234.677 109.92 226.105 107.654C217.583 105.338 210.317 101.939 204.307 97.4563C198.297 92.9734 193.666 87.4068 190.415 80.7564C187.164 74.0568 185.538 66.3472 185.538 57.6279C185.538 48.9085 187.164 41.2236 190.415 34.5732C193.666 27.8736 198.297 22.2823 204.307 17.7995C210.317 13.3166 217.583 9.94216 226.105 7.6761C234.677 5.36078 244.258 4.20312 254.85 4.20312C265.441 4.20312 274.973 5.36078 283.446 7.6761C291.969 9.94216 299.21 13.3166 305.171 17.7995C311.132 22.2823 315.713 27.8736 318.915 34.5732C322.117 41.2236 323.718 48.9085 323.718 57.6279ZM296.008 57.6279C296.008 53.8347 295.393 50.0661 294.161 46.3222C292.979 42.529 290.836 39.1299 287.732 36.125C284.678 33.12 280.491 30.6815 275.17 28.8095C269.85 26.9376 263.077 26.0016 254.85 26.0016C249.332 26.0016 244.48 26.445 240.293 27.3317C236.106 28.1691 232.485 29.3514 229.431 30.8785C226.376 32.4057 223.815 34.2037 221.746 36.2727C219.677 38.2925 218.026 40.4847 216.795 42.8492C215.563 45.1646 214.677 47.603 214.135 50.1647C213.642 52.677 213.396 55.1648 213.396 57.6279C213.396 60.1402 213.642 62.6772 214.135 65.2389C214.677 67.8005 215.563 70.2636 216.795 72.6282C218.026 74.9435 219.677 77.111 221.746 79.1308C223.815 81.1505 226.376 82.9239 229.431 84.4511C232.485 85.9289 236.106 87.1112 240.293 87.9979C244.48 88.8354 249.332 89.2541 254.85 89.2541C263.077 89.2541 269.85 88.3181 275.17 86.4462C280.491 84.5742 284.678 82.1357 287.732 79.1308C290.836 76.1258 292.979 72.7513 294.161 69.0074C295.393 65.2142 296.008 61.421 296.008 57.6279Z" fill="#EEEFF3"/>
<path d="M133.296 108.318V37.0114L95.6106 108.318H69.3047L31.6192 37.0114V108.318H4.20483V6.78906H41.447L82.4577 83.6379L123.468 6.78906H160.563V108.318H133.296Z" fill="#EEEFF3"/>
<path fill-rule="evenodd" clip-rule="evenodd" d="M611.812 75.9845L611.809 75.9948C610.273 81.3993 608.072 86.2168 605.163 90.3914C602.332 94.5236 598.892 98.0468 594.854 100.941C590.917 103.797 586.545 106.071 581.76 107.772C577.039 109.45 571.988 110.67 566.616 111.445L566.597 111.448L566.577 111.45C561.254 112.167 555.721 112.522 549.981 112.522H481.343V2.58594H549.834C555.579 2.58594 561.119 2.96681 566.449 3.73458C571.822 4.45909 576.877 5.65357 581.601 7.33261C581.605 7.33385 581.608 7.33509 581.612 7.33633L580.204 11.2971L581.598 7.33146C581.599 7.33185 581.6 7.33222 581.601 7.33261C586.429 9.0305 590.844 11.2987 594.827 14.1482C594.822 14.145 594.817 14.1418 594.813 14.1386L592.396 17.578L594.844 14.1605C594.838 14.1564 594.832 14.1523 594.827 14.1482C598.887 17.0042 602.338 20.541 605.171 24.7295C605.166 24.7216 605.16 24.7136 605.155 24.7057L601.706 27.1102L605.19 24.7576C605.184 24.7482 605.178 24.7389 605.171 24.7295C608.076 28.9012 610.274 33.7145 611.809 39.1136C613.366 44.588 614.112 50.7256 614.112 57.4803C614.112 64.2821 613.366 70.4652 611.812 75.9845ZM607.766 74.8452C606.337 79.8699 604.317 84.2543 601.706 87.9982C599.145 91.7421 596.041 94.9195 592.396 97.5304C588.8 100.141 584.785 102.235 580.351 103.811C575.918 105.388 571.139 106.545 566.016 107.284C560.893 107.974 555.548 108.319 549.981 108.319H485.546V6.78964H549.834C555.4 6.78964 560.745 7.1591 565.868 7.89803M576.383 46.1569L576.374 46.1327C575.383 43.2378 573.799 40.945 571.618 39.1469L571.587 39.1213L571.556 39.0952C569.406 37.2521 566.42 35.7488 562.4 34.7327L562.379 34.7273L562.358 34.7218C558.331 33.6599 553.247 33.0874 547.026 33.0874H517.165V82.0211H547.026C553.246 82.0211 558.339 81.4734 562.379 80.455C566.399 79.3922 569.393 77.8663 571.552 76.0172C573.777 74.1044 575.379 71.736 576.374 68.828L576.383 68.8037L576.391 68.7795C577.473 65.7421 578.069 62.0037 578.069 57.4803C578.069 52.957 577.473 49.2186 576.391 46.1811L576.383 46.1569ZM574.292 79.2049C571.533 81.5695 567.913 83.3429 563.43 84.5252C558.947 85.6582 553.479 86.2248 547.026 86.2248H512.961V28.8837H547.026C553.479 28.8837 558.947 29.4748 563.43 30.6571C567.913 31.7901 571.533 33.5389 574.292 35.9035C577.1 38.2188 579.12 41.1746 580.351 44.7707C581.632 48.3668 582.273 52.6034 582.273 57.4803C582.273 62.3573 581.632 66.5938 580.351 70.1899C579.12 73.7861 577.1 76.7911 574.292 79.2049Z" fill="#EEEFF3"/>
<path fill-rule="evenodd" clip-rule="evenodd" d="M438.336 108.319L428.803 89.1066H372.201L362.669 108.319H332.077L385.206 6.78964H415.798L468.927 108.319H438.336ZM374.808 93.3103L365.276 112.522H325.133L382.662 2.58594H418.343L475.872 112.522H435.729L426.196 93.3103H374.808ZM419.123 69.3032L400.65 31.9133L382.029 69.3032H419.123ZM388.819 65.0995H412.358L400.635 41.373L388.819 65.0995Z" fill="#EEEFF3"/>
<path fill-rule="evenodd" clip-rule="evenodd" d="M322.707 82.5697L322.702 82.5806C319.205 89.843 314.188 95.9341 307.697 100.816C301.239 105.673 293.492 109.281 284.547 111.711L284.531 111.715C275.64 114.093 265.734 115.257 254.849 115.257C243.963 115.257 234.012 114.093 225.03 111.718L225.002 111.711C216.059 109.281 208.294 105.676 201.792 100.826C195.253 95.9489 190.186 89.8627 186.637 82.6033L186.632 82.5923C183.059 75.2308 181.333 66.8755 181.333 57.6284C181.333 48.3853 183.058 40.0519 186.634 32.7347C190.181 25.4268 195.248 19.3121 201.792 14.4305C208.298 9.57775 216.069 5.99606 225.016 3.61621C234.004 1.18939 243.959 0 254.849 0C265.735 0 275.644 1.18868 284.54 3.61801C293.486 5.99823 301.236 9.58143 307.697 14.4404C314.193 19.3265 319.209 25.4456 322.704 32.7556C326.224 40.0677 327.921 48.3935 327.921 57.6284C327.921 66.8666 326.223 75.2136 322.707 82.5697ZM318.914 34.5738C315.712 27.8741 311.131 22.2829 305.17 17.8C299.209 13.3172 291.968 9.94273 283.445 7.67668C274.972 5.36136 265.44 4.2037 254.849 4.2037C244.257 4.2037 234.676 5.36136 226.104 7.67668C217.582 9.94273 210.316 13.3172 204.306 17.8C198.296 22.2829 193.665 27.8741 190.414 34.5738C187.163 41.2242 185.537 48.909 185.537 57.6284C185.537 66.3478 187.163 74.0574 190.414 80.757C193.665 87.4074 198.296 92.974 204.306 97.4568C210.316 101.94 217.582 105.339 226.104 107.654C234.676 109.92 244.257 111.053 254.849 111.053C265.44 111.053 274.972 109.92 283.445 107.654C291.968 105.339 299.209 101.94 305.17 97.4568C311.131 92.974 315.712 87.4074 318.914 80.757C322.116 74.0574 323.717 66.3478 323.717 57.6284C323.717 48.909 322.116 41.2242 318.914 34.5738ZM290.156 47.6051L290.147 47.5737C289.192 44.5097 287.45 41.705 284.807 39.1455L284.795 39.1339L284.783 39.1221C282.285 36.6644 278.688 34.5045 273.774 32.7755C269.057 31.1158 262.798 30.2059 254.849 30.2059C249.545 30.2059 244.995 30.6331 241.163 31.4448L241.139 31.4497L241.116 31.4543C237.208 32.2359 233.958 33.3146 231.309 34.639C228.593 35.9971 226.418 37.5445 224.717 39.2458L224.699 39.2637L224.681 39.2814C222.904 41.0162 221.531 42.8542 220.522 44.7916L220.514 44.8078L220.505 44.8239C219.463 46.7833 218.714 48.8401 218.253 51.0051C217.814 53.2508 217.598 55.4573 217.598 57.6284C217.598 59.8518 217.815 62.1099 218.254 64.4064C218.715 66.569 219.465 68.6543 220.513 70.6702C221.521 72.5603 222.895 74.3802 224.681 76.1233C226.383 77.785 228.562 79.3154 231.284 80.6792C233.956 81.9689 237.224 83.0504 241.139 83.8811C244.985 84.6482 249.543 85.051 254.849 85.051C262.798 85.051 269.057 84.1411 273.774 82.4814C278.688 80.7524 282.285 78.5924 284.783 76.1348L284.795 76.123L284.807 76.1113C287.46 73.5422 289.2 70.7553 290.151 67.7421L290.156 67.726L290.162 67.7098C291.264 64.3143 291.803 60.9586 291.803 57.6284C291.803 54.2988 291.264 50.9731 290.167 47.6363L290.156 47.6051ZM240.292 87.9985C236.104 87.1118 232.484 85.9295 229.429 84.4517C226.375 82.9245 223.814 81.1511 221.745 79.1313C219.676 77.1116 218.025 74.9441 216.794 72.6287C215.562 70.2642 214.675 67.8011 214.134 65.2394C213.641 62.6778 213.395 60.1408 213.395 57.6284C213.395 55.1653 213.641 52.6776 214.134 50.1652C214.675 47.6036 215.562 45.1651 216.794 42.8498C218.025 40.4852 219.676 38.2931 221.745 36.2733C223.814 34.2043 226.375 32.4062 229.429 30.8791C232.484 29.352 236.104 28.1697 240.292 27.3323C244.479 26.4455 249.331 26.0022 254.849 26.0022C263.075 26.0022 269.849 26.9382 275.169 28.8101C280.49 30.6821 284.677 33.1205 287.731 36.1255C290.835 39.1305 292.978 42.5296 294.16 46.3228C295.391 50.0667 296.007 53.8353 296.007 57.6284C296.007 61.4216 295.391 65.2148 294.16 69.008C292.978 72.7519 290.835 76.1264 287.731 79.1313C284.677 82.1363 280.49 84.5748 275.169 86.4468C269.849 88.3187 263.075 89.2547 254.849 89.2547C249.331 89.2547 244.479 88.836 240.292 87.9985Z" fill="#EEEFF3"/>
<path fill-rule="evenodd" clip-rule="evenodd" d="M129.091 112.522V53.9625L98.1425 112.522H66.7705L35.8218 53.9625V112.522H0V2.58594H43.9674L82.4565 74.7098L120.946 2.58594H164.765V112.522H129.091ZM82.4565 83.6385L41.4458 6.78964H4.2037V108.319H31.6181V37.0119L69.3036 108.319H95.6095L133.295 37.0119V108.319H160.562V6.78964H123.467L82.4565 83.6385Z" fill="#EEEFF3"/>
</svg>
