<svg width="20" height="25" viewBox="0 0 20 25" fill="none" xmlns="http://www.w3.org/2000/svg">
<path fill-rule="evenodd" clip-rule="evenodd" d="M19.1462 6.08861C18.4058 4.43971 17.1863 2.99496 15.5907 1.97421C14.2326 1.10658 12.6092 0.541236 10.7721 0.423457C10.5187 0.407753 10.2613 0.399902 9.99999 0.399902C9.74263 0.399902 9.48526 0.407753 9.2279 0.423457C7.39074 0.53731 5.76739 1.10265 4.40931 1.97421C2.81367 2.99496 1.59417 4.44364 0.853765 6.08861C-0.409287 8.89567 -0.227169 12.268 1.11111 14.8749C2.34216 17.2727 2.93288 17.9562 4.24825 19.4782L4.24829 19.4782C4.35863 19.6059 4.47407 19.7395 4.59541 19.8805C6.16334 21.7021 7.98863 23.8378 7.98863 23.8378C8.54295 24.6112 9.27146 24.996 9.99999 24.9999C10.7285 24.9999 11.4571 24.6112 12.0114 23.8378C12.0114 23.8378 13.8367 21.6982 15.4046 19.8805C15.5256 19.7399 15.6407 19.6067 15.7507 19.4794L15.7517 19.4783C17.0671 17.9562 17.6578 17.2727 18.8889 14.8749C20.2272 12.268 20.4093 8.89567 19.1462 6.08861Z" fill="#fff"/>
</svg>
